  0
SECTION
  2
HEADER
  9
$ACADVER
  1
AC1009
  9
$EXTMIN
 10
0.0
 20
0.0
 30
0.0
  9
$EXTMAX
 10
1000.0
 20
1000.0
 30
0.0
  9
$FILLMODE
 70
 0
  9
$SPLFRAME
 70
 1
  0
ENDSEC
  0
SECTION
  2
TABLES
  0
TABLE
  2
LAYER
 70
1
  0
LAYER
  2
0
 70
     0
 62
     7
  6
CONTINUOUS
  0
ENDTAB
  0
ENDSEC
  0
SECTION
  2
ENTITIES
  0
LINE
  8
0
 62
     0
 10
68.2459
 20
54.186
 30
0.0
 11
68.6375
 21
54.1708
 31
0.0
  0
LINE
  8
0
 62
     0
 10
68.6375
 20
54.1708
 30
0.0
 11
69.0273
 21
54.1253
 31
0.0
  0
LINE
  8
0
 62
     0
 10
69.0273
 20
54.1253
 30
0.0
 11
69.4133
 21
54.048
 31
0.0
  0
LINE
  8
0
 62
     0
 10
69.4133
 20
54.048
 30
0.0
 11
69.7907
 21
53.9418
 31
0.0
  0
LINE
  8
0
 62
     0
 10
69.7907
 20
53.9418
 30
0.0
 11
70.1587
 21
53.8057
 31
0.0
  0
LINE
  8
0
 62
     0
 10
70.1587
 20
53.8057
 30
0.0
 11
70.5143
 21
53.6416
 31
0.0
  0
LINE
  8
0
 62
     0
 10
70.5143
 20
53.6416
 30
0.0
 11
70.8572
 21
53.4501
 31
0.0
  0
LINE
  8
0
 62
     0
 10
70.8572
 20
53.4501
 30
0.0
 11
71.1839
 21
53.2324
 31
0.0
  0
LINE
  8
0
 62
     0
 10
71.1839
 20
53.2324
 30
0.0
 11
71.4925
 21
52.9897
 31
0.0
  0
LINE
  8
0
 62
     0
 10
71.4925
 20
52.9897
 30
0.0
 11
71.7808
 21
52.7223
 31
0.0
  0
LINE
  8
0
 62
     0
 10
71.7808
 20
52.7223
 30
0.0
 11
72.0478
 21
52.4344
 31
0.0
  0
LINE
  8
0
 62
     0
 10
72.0478
 20
52.4344
 30
0.0
 11
72.2905
 21
52.1257
 31
0.0
  0
LINE
  8
0
 62
     0
 10
72.2905
 20
52.1257
 30
0.0
 11
72.5082
 21
51.7991
 31
0.0
  0
LINE
  8
0
 62
     0
 10
72.5082
 20
51.7991
 30
0.0
 11
72.7012
 21
51.4558
 31
0.0
  0
LINE
  8
0
 62
     0
 10
72.7012
 20
51.4558
 30
0.0
 11
72.8652
 21
51.1006
 31
0.0
  0
LINE
  8
0
 62
     0
 10
72.8652
 20
51.1006
 30
0.0
 11
73.0003
 21
50.7326
 31
0.0
  0
LINE
  8
0
 62
     0
 10
73.0003
 20
50.7326
 30
0.0
 11
73.1061
 21
50.3534
 31
0.0
  0
LINE
  8
0
 62
     0
 10
73.1061
 20
50.3534
 30
0.0
 11
73.1834
 21
49.9692
 31
0.0
  0
LINE
  8
0
 62
     0
 10
73.1834
 20
49.9692
 30
0.0
 11
73.2303
 21
49.579
 31
0.0
  0
LINE
  8
0
 62
     0
 10
73.2303
 20
49.579
 30
0.0
 11
73.2455
 21
49.1864
 31
0.0
  0
LINE
  8
0
 62
     0
 10
73.2455
 20
49.1864
 30
0.0
 11
73.2455
 21
5.08497
 31
0.0
  0
LINE
  8
0
 62
     0
 10
73.2455
 20
5.08497
 30
0.0
 11
73.2303
 21
4.6936
 31
0.0
  0
LINE
  8
0
 62
     0
 10
73.2303
 20
4.6936
 30
0.0
 11
73.1834
 21
4.30361
 31
0.0
  0
LINE
  8
0
 62
     0
 10
73.1834
 20
4.30361
 30
0.0
 11
73.1061
 21
3.91777
 31
0.0
  0
LINE
  8
0
 62
     0
 10
73.1061
 20
3.91777
 30
0.0
 11
73.0003
 21
3.5402
 31
0.0
  0
LINE
  8
0
 62
     0
 10
73.0003
 20
3.5402
 30
0.0
 11
72.8652
 21
3.17224
 31
0.0
  0
LINE
  8
0
 62
     0
 10
72.8652
 20
3.17224
 30
0.0
 11
72.7012
 21
2.81671
 31
0.0
  0
LINE
  8
0
 62
     0
 10
72.7012
 20
2.81671
 30
0.0
 11
72.5082
 21
2.47358
 31
0.0
  0
LINE
  8
0
 62
     0
 10
72.5082
 20
2.47358
 30
0.0
 11
72.2905
 21
2.14698
 31
0.0
  0
LINE
  8
0
 62
     0
 10
72.2905
 20
2.14698
 30
0.0
 11
72.0478
 21
1.8383
 31
0.0
  0
LINE
  8
0
 62
     0
 10
72.0478
 20
1.8383
 30
0.0
 11
71.7808
 21
1.55029
 31
0.0
  0
LINE
  8
0
 62
     0
 10
71.7808
 20
1.55029
 30
0.0
 11
71.4925
 21
1.28295
 31
0.0
  0
LINE
  8
0
 62
     0
 10
71.4925
 20
1.28295
 30
0.0
 11
71.1839
 21
1.04042
 31
0.0
  0
LINE
  8
0
 62
     0
 10
71.1839
 20
1.04042
 30
0.0
 11
70.8572
 21
0.822688
 31
0.0
  0
LINE
  8
0
 62
     0
 10
70.8572
 20
0.822688
 30
0.0
 11
70.5143
 21
0.629765
 31
0.0
  0
LINE
  8
0
 62
     0
 10
70.5143
 20
0.629765
 30
0.0
 11
70.1587
 21
0.465776
 31
0.0
  0
LINE
  8
0
 62
     0
 10
70.1587
 20
0.465776
 30
0.0
 11
69.7907
 21
0.330729
 31
0.0
  0
LINE
  8
0
 62
     0
 10
69.7907
 20
0.330729
 30
0.0
 11
69.4133
 21
0.22462
 31
0.0
  0
LINE
  8
0
 62
     0
 10
69.4133
 20
0.22462
 30
0.0
 11
69.0273
 21
0.14745
 31
0.0
  0
LINE
  8
0
 62
     0
 10
69.0273
 20
0.14745
 30
0.0
 11
68.6375
 21
0.100597
 31
0.0
  0
LINE
  8
0
 62
     0
 10
68.6375
 20
0.100597
 30
0.0
 11
68.2445
 21
0.0854385
 31
0.0
  0
LINE
  8
0
 62
     0
 10
68.2445
 20
0.0854385
 30
0.0
 11
5.0946
 21
0.0854385
 31
0.0
  0
LINE
  8
0
 62
     0
 10
5.0946
 20
0.0854385
 30
0.0
 11
4.70186
 21
0.100597
 31
0.0
  0
LINE
  8
0
 62
     0
 10
4.70186
 20
0.100597
 30
0.0
 11
4.3119
 21
0.14745
 31
0.0
  0
LINE
  8
0
 62
     0
 10
4.3119
 20
0.14745
 30
0.0
 11
3.9274
 21
0.22462
 31
0.0
  0
LINE
  8
0
 62
     0
 10
3.9274
 20
0.22462
 30
0.0
 11
3.54845
 21
0.330729
 31
0.0
  0
LINE
  8
0
 62
     0
 10
3.54845
 20
0.330729
 30
0.0
 11
3.18051
 21
0.465776
 31
0.0
  0
LINE
  8
0
 62
     0
 10
3.18051
 20
0.465776
 30
0.0
 11
2.82498
 21
0.629765
 31
0.0
  0
LINE
  8
0
 62
     0
 10
2.82498
 20
0.629765
 30
0.0
 11
2.48185
 21
0.822688
 31
0.0
  0
LINE
  8
0
 62
     0
 10
2.48185
 20
0.822688
 30
0.0
 11
2.15525
 21
1.04042
 31
0.0
  0
LINE
  8
0
 62
     0
 10
2.15525
 20
1.04042
 30
0.0
 11
1.84657
 21
1.28295
 31
0.0
  0
LINE
  8
0
 62
     0
 10
1.84657
 20
1.28295
 30
0.0
 11
1.55856
 21
1.55029
 31
0.0
  0
LINE
  8
0
 62
     0
 10
1.55856
 20
1.55029
 30
0.0
 11
1.29122
 21
1.8383
 31
0.0
  0
LINE
  8
0
 62
     0
 10
1.29122
 20
1.8383
 30
0.0
 11
1.04869
 21
2.14698
 31
0.0
  0
LINE
  8
0
 62
     0
 10
1.04869
 20
2.14698
 30
0.0
 11
0.830957
 21
2.47358
 31
0.0
  0
LINE
  8
0
 62
     0
 10
0.830957
 20
2.47358
 30
0.0
 11
0.63941
 21
2.81671
 31
0.0
  0
LINE
  8
0
 62
     0
 10
0.63941
 20
2.81671
 30
0.0
 11
0.475424
 21
3.17224
 31
0.0
  0
LINE
  8
0
 62
     0
 10
0.475424
 20
3.17224
 30
0.0
 11
0.338998
 21
3.5402
 31
0.0
  0
LINE
  8
0
 62
     0
 10
0.338998
 20
3.5402
 30
0.0
 11
0.232888
 21
3.91777
 31
0.0
  0
LINE
  8
0
 62
     0
 10
0.232888
 20
3.91777
 30
0.0
 11
0.155718
 21
4.30361
 31
0.0
  0
LINE
  8
0
 62
     0
 10
0.155718
 20
4.30361
 30
0.0
 11
0.110243
 21
4.6936
 31
0.0
  0
LINE
  8
0
 62
     0
 10
0.110243
 20
4.6936
 30
0.0
 11
0.0937066
 21
5.08635
 31
0.0
  0
LINE
  8
0
 62
     0
 10
0.0937066
 20
5.08635
 30
0.0
 11
0.0950846
 21
49.1864
 31
0.0
  0
LINE
  8
0
 62
     0
 10
0.0950846
 20
49.1864
 30
0.0
 11
0.110243
 21
49.579
 31
0.0
  0
LINE
  8
0
 62
     0
 10
0.110243
 20
49.579
 30
0.0
 11
0.155718
 21
49.9692
 31
0.0
  0
LINE
  8
0
 62
     0
 10
0.155718
 20
49.9692
 30
0.0
 11
0.232888
 21
50.3534
 31
0.0
  0
LINE
  8
0
 62
     0
 10
0.232888
 20
50.3534
 30
0.0
 11
0.338998
 21
50.7326
 31
0.0
  0
LINE
  8
0
 62
     0
 10
0.338998
 20
50.7326
 30
0.0
 11
0.475424
 21
51.1006
 31
0.0
  0
LINE
  8
0
 62
     0
 10
0.475424
 20
51.1006
 30
0.0
 11
0.63941
 21
51.4558
 31
0.0
  0
LINE
  8
0
 62
     0
 10
0.63941
 20
51.4558
 30
0.0
 11
0.830957
 21
51.7991
 31
0.0
  0
LINE
  8
0
 62
     0
 10
0.830957
 20
51.7991
 30
0.0
 11
1.04869
 21
52.1257
 31
0.0
  0
LINE
  8
0
 62
     0
 10
1.04869
 20
52.1257
 30
0.0
 11
1.29122
 21
52.4344
 31
0.0
  0
LINE
  8
0
 62
     0
 10
1.29122
 20
52.4344
 30
0.0
 11
1.55856
 21
52.7223
 31
0.0
  0
LINE
  8
0
 62
     0
 10
1.55856
 20
52.7223
 30
0.0
 11
1.84657
 21
52.9897
 31
0.0
  0
LINE
  8
0
 62
     0
 10
1.84657
 20
52.9897
 30
0.0
 11
2.15525
 21
53.2324
 31
0.0
  0
LINE
  8
0
 62
     0
 10
2.15525
 20
53.2324
 30
0.0
 11
2.48185
 21
53.4501
 31
0.0
  0
LINE
  8
0
 62
     0
 10
2.48185
 20
53.4501
 30
0.0
 11
2.82498
 21
53.6416
 31
0.0
  0
LINE
  8
0
 62
     0
 10
2.82498
 20
53.6416
 30
0.0
 11
3.18051
 21
53.8057
 31
0.0
  0
LINE
  8
0
 62
     0
 10
3.18051
 20
53.8057
 30
0.0
 11
3.54845
 21
53.9418
 31
0.0
  0
LINE
  8
0
 62
     0
 10
3.54845
 20
53.9418
 30
0.0
 11
3.9274
 21
54.048
 31
0.0
  0
LINE
  8
0
 62
     0
 10
3.9274
 20
54.048
 30
0.0
 11
4.3119
 21
54.1253
 31
0.0
  0
LINE
  8
0
 62
     0
 10
4.3119
 20
54.1253
 30
0.0
 11
4.70186
 21
54.1708
 31
0.0
  0
LINE
  8
0
 62
     0
 10
4.70186
 20
54.1708
 30
0.0
 11
5.0946
 21
54.1874
 31
0.0
  0
LINE
  8
0
 62
     0
 10
5.0946
 20
54.1874
 30
0.0
 11
68.2459
 21
54.186
 31
0.0
  0
ENDSEC
  0
EOF
