  0
SECTION
  2
HEADER
  9
$ACADVER
  1
AC1009
  9
$EXTMIN
 10
0.0
 20
0.0
 30
0.0
  9
$EXTMAX
 10
1000.0
 20
1000.0
 30
0.0
  9
$FILLMODE
 70
 0
  9
$SPLFRAME
 70
 1
  0
ENDSEC
  0
SECTION
  2
TABLES
  0
TABLE
  2
LAYER
 70
1
  0
LAYER
  2
0
 70
     0
 62
     7
  6
CONTINUOUS
  0
ENDTAB
  0
ENDSEC
  0
SECTION
  2
ENTITIES
  0
LINE
  8
0
 62
     0
 10
68.2459
 20
54.186
 30
0.0
 11
68.6375
 21
54.1708
 31
0.0
  0
LINE
  8
0
 62
     0
 10
68.6375
 20
54.1708
 30
0.0
 11
69.0273
 21
54.1253
 31
0.0
  0
LINE
  8
0
 62
     0
 10
69.0273
 20
54.1253
 30
0.0
 11
69.4133
 21
54.048
 31
0.0
  0
LINE
  8
0
 62
     0
 10
69.4133
 20
54.048
 30
0.0
 11
69.7907
 21
53.9418
 31
0.0
  0
LINE
  8
0
 62
     0
 10
69.7907
 20
53.9418
 30
0.0
 11
70.1587
 21
53.8057
 31
0.0
  0
LINE
  8
0
 62
     0
 10
70.1587
 20
53.8057
 30
0.0
 11
70.5143
 21
53.6416
 31
0.0
  0
LINE
  8
0
 62
     0
 10
70.5143
 20
53.6416
 30
0.0
 11
70.8572
 21
53.4501
 31
0.0
  0
LINE
  8
0
 62
     0
 10
70.8572
 20
53.4501
 30
0.0
 11
71.1839
 21
53.2324
 31
0.0
  0
LINE
  8
0
 62
     0
 10
71.1839
 20
53.2324
 30
0.0
 11
71.4925
 21
52.9897
 31
0.0
  0
LINE
  8
0
 62
     0
 10
71.4925
 20
52.9897
 30
0.0
 11
71.7808
 21
52.7223
 31
0.0
  0
LINE
  8
0
 62
     0
 10
71.7808
 20
52.7223
 30
0.0
 11
72.0478
 21
52.4344
 31
0.0
  0
LINE
  8
0
 62
     0
 10
72.0478
 20
52.4344
 30
0.0
 11
72.2905
 21
52.1257
 31
0.0
  0
LINE
  8
0
 62
     0
 10
72.2905
 20
52.1257
 30
0.0
 11
72.5082
 21
51.7991
 31
0.0
  0
LINE
  8
0
 62
     0
 10
72.5082
 20
51.7991
 30
0.0
 11
72.7012
 21
51.4558
 31
0.0
  0
LINE
  8
0
 62
     0
 10
72.7012
 20
51.4558
 30
0.0
 11
72.8652
 21
51.1006
 31
0.0
  0
LINE
  8
0
 62
     0
 10
72.8652
 20
51.1006
 30
0.0
 11
73.0003
 21
50.7326
 31
0.0
  0
LINE
  8
0
 62
     0
 10
73.0003
 20
50.7326
 30
0.0
 11
73.1061
 21
50.3534
 31
0.0
  0
LINE
  8
0
 62
     0
 10
73.1061
 20
50.3534
 30
0.0
 11
73.1834
 21
49.9692
 31
0.0
  0
LINE
  8
0
 62
     0
 10
73.1834
 20
49.9692
 30
0.0
 11
73.2303
 21
49.579
 31
0.0
  0
LINE
  8
0
 62
     0
 10
73.2303
 20
49.579
 30
0.0
 11
73.2455
 21
49.1864
 31
0.0
  0
LINE
  8
0
 62
     0
 10
73.2455
 20
49.1864
 30
0.0
 11
73.2455
 21
5.08497
 31
0.0
  0
LINE
  8
0
 62
     0
 10
73.2455
 20
5.08497
 30
0.0
 11
73.2303
 21
4.6936
 31
0.0
  0
LINE
  8
0
 62
     0
 10
73.2303
 20
4.6936
 30
0.0
 11
73.1834
 21
4.30361
 31
0.0
  0
LINE
  8
0
 62
     0
 10
73.1834
 20
4.30361
 30
0.0
 11
73.1061
 21
3.91777
 31
0.0
  0
LINE
  8
0
 62
     0
 10
73.1061
 20
3.91777
 30
0.0
 11
73.0003
 21
3.5402
 31
0.0
  0
LINE
  8
0
 62
     0
 10
73.0003
 20
3.5402
 30
0.0
 11
72.8652
 21
3.17224
 31
0.0
  0
LINE
  8
0
 62
     0
 10
72.8652
 20
3.17224
 30
0.0
 11
72.7012
 21
2.81671
 31
0.0
  0
LINE
  8
0
 62
     0
 10
72.7012
 20
2.81671
 30
0.0
 11
72.5082
 21
2.47358
 31
0.0
  0
LINE
  8
0
 62
     0
 10
72.5082
 20
2.47358
 30
0.0
 11
72.2905
 21
2.14698
 31
0.0
  0
LINE
  8
0
 62
     0
 10
72.2905
 20
2.14698
 30
0.0
 11
72.0478
 21
1.8383
 31
0.0
  0
LINE
  8
0
 62
     0
 10
72.0478
 20
1.8383
 30
0.0
 11
71.7808
 21
1.55029
 31
0.0
  0
LINE
  8
0
 62
     0
 10
71.7808
 20
1.55029
 30
0.0
 11
71.4925
 21
1.28295
 31
0.0
  0
LINE
  8
0
 62
     0
 10
71.4925
 20
1.28295
 30
0.0
 11
71.1839
 21
1.04042
 31
0.0
  0
LINE
  8
0
 62
     0
 10
71.1839
 20
1.04042
 30
0.0
 11
70.8572
 21
0.822688
 31
0.0
  0
LINE
  8
0
 62
     0
 10
70.8572
 20
0.822688
 30
0.0
 11
70.5143
 21
0.629765
 31
0.0
  0
LINE
  8
0
 62
     0
 10
70.5143
 20
0.629765
 30
0.0
 11
70.1587
 21
0.465776
 31
0.0
  0
LINE
  8
0
 62
     0
 10
70.1587
 20
0.465776
 30
0.0
 11
69.7907
 21
0.330729
 31
0.0
  0
LINE
  8
0
 62
     0
 10
69.7907
 20
0.330729
 30
0.0
 11
69.4133
 21
0.22462
 31
0.0
  0
LINE
  8
0
 62
     0
 10
69.4133
 20
0.22462
 30
0.0
 11
69.0273
 21
0.14745
 31
0.0
  0
LINE
  8
0
 62
     0
 10
69.0273
 20
0.14745
 30
0.0
 11
68.6375
 21
0.100597
 31
0.0
  0
LINE
  8
0
 62
     0
 10
68.6375
 20
0.100597
 30
0.0
 11
68.2445
 21
0.0854385
 31
0.0
  0
LINE
  8
0
 62
     0
 10
68.2445
 20
0.0854385
 30
0.0
 11
5.0946
 21
0.0854385
 31
0.0
  0
LINE
  8
0
 62
     0
 10
5.0946
 20
0.0854385
 30
0.0
 11
4.70186
 21
0.100597
 31
0.0
  0
LINE
  8
0
 62
     0
 10
4.70186
 20
0.100597
 30
0.0
 11
4.3119
 21
0.14745
 31
0.0
  0
LINE
  8
0
 62
     0
 10
4.3119
 20
0.14745
 30
0.0
 11
3.9274
 21
0.22462
 31
0.0
  0
LINE
  8
0
 62
     0
 10
3.9274
 20
0.22462
 30
0.0
 11
3.54845
 21
0.330729
 31
0.0
  0
LINE
  8
0
 62
     0
 10
3.54845
 20
0.330729
 30
0.0
 11
3.18051
 21
0.465776
 31
0.0
  0
LINE
  8
0
 62
     0
 10
3.18051
 20
0.465776
 30
0.0
 11
2.82498
 21
0.629765
 31
0.0
  0
LINE
  8
0
 62
     0
 10
2.82498
 20
0.629765
 30
0.0
 11
2.48185
 21
0.822688
 31
0.0
  0
LINE
  8
0
 62
     0
 10
2.48185
 20
0.822688
 30
0.0
 11
2.15525
 21
1.04042
 31
0.0
  0
LINE
  8
0
 62
     0
 10
2.15525
 20
1.04042
 30
0.0
 11
1.84657
 21
1.28295
 31
0.0
  0
LINE
  8
0
 62
     0
 10
1.84657
 20
1.28295
 30
0.0
 11
1.55856
 21
1.55029
 31
0.0
  0
LINE
  8
0
 62
     0
 10
1.55856
 20
1.55029
 30
0.0
 11
1.29122
 21
1.8383
 31
0.0
  0
LINE
  8
0
 62
     0
 10
1.29122
 20
1.8383
 30
0.0
 11
1.04869
 21
2.14698
 31
0.0
  0
LINE
  8
0
 62
     0
 10
1.04869
 20
2.14698
 30
0.0
 11
0.830957
 21
2.47358
 31
0.0
  0
LINE
  8
0
 62
     0
 10
0.830957
 20
2.47358
 30
0.0
 11
0.63941
 21
2.81671
 31
0.0
  0
LINE
  8
0
 62
     0
 10
0.63941
 20
2.81671
 30
0.0
 11
0.475424
 21
3.17224
 31
0.0
  0
LINE
  8
0
 62
     0
 10
0.475424
 20
3.17224
 30
0.0
 11
0.338998
 21
3.5402
 31
0.0
  0
LINE
  8
0
 62
     0
 10
0.338998
 20
3.5402
 30
0.0
 11
0.232888
 21
3.91777
 31
0.0
  0
LINE
  8
0
 62
     0
 10
0.232888
 20
3.91777
 30
0.0
 11
0.155718
 21
4.30361
 31
0.0
  0
LINE
  8
0
 62
     0
 10
0.155718
 20
4.30361
 30
0.0
 11
0.110243
 21
4.6936
 31
0.0
  0
LINE
  8
0
 62
     0
 10
0.110243
 20
4.6936
 30
0.0
 11
0.0937066
 21
5.08635
 31
0.0
  0
LINE
  8
0
 62
     0
 10
0.0937066
 20
5.08635
 30
0.0
 11
0.0950846
 21
49.1864
 31
0.0
  0
LINE
  8
0
 62
     0
 10
0.0950846
 20
49.1864
 30
0.0
 11
0.110243
 21
49.579
 31
0.0
  0
LINE
  8
0
 62
     0
 10
0.110243
 20
49.579
 30
0.0
 11
0.155718
 21
49.9692
 31
0.0
  0
LINE
  8
0
 62
     0
 10
0.155718
 20
49.9692
 30
0.0
 11
0.232888
 21
50.3534
 31
0.0
  0
LINE
  8
0
 62
     0
 10
0.232888
 20
50.3534
 30
0.0
 11
0.338998
 21
50.7326
 31
0.0
  0
LINE
  8
0
 62
     0
 10
0.338998
 20
50.7326
 30
0.0
 11
0.475424
 21
51.1006
 31
0.0
  0
LINE
  8
0
 62
     0
 10
0.475424
 20
51.1006
 30
0.0
 11
0.63941
 21
51.4558
 31
0.0
  0
LINE
  8
0
 62
     0
 10
0.63941
 20
51.4558
 30
0.0
 11
0.830957
 21
51.7991
 31
0.0
  0
LINE
  8
0
 62
     0
 10
0.830957
 20
51.7991
 30
0.0
 11
1.04869
 21
52.1257
 31
0.0
  0
LINE
  8
0
 62
     0
 10
1.04869
 20
52.1257
 30
0.0
 11
1.29122
 21
52.4344
 31
0.0
  0
LINE
  8
0
 62
     0
 10
1.29122
 20
52.4344
 30
0.0
 11
1.55856
 21
52.7223
 31
0.0
  0
LINE
  8
0
 62
     0
 10
1.55856
 20
52.7223
 30
0.0
 11
1.84657
 21
52.9897
 31
0.0
  0
LINE
  8
0
 62
     0
 10
1.84657
 20
52.9897
 30
0.0
 11
2.15525
 21
53.2324
 31
0.0
  0
LINE
  8
0
 62
     0
 10
2.15525
 20
53.2324
 30
0.0
 11
2.48185
 21
53.4501
 31
0.0
  0
LINE
  8
0
 62
     0
 10
2.48185
 20
53.4501
 30
0.0
 11
2.82498
 21
53.6416
 31
0.0
  0
LINE
  8
0
 62
     0
 10
2.82498
 20
53.6416
 30
0.0
 11
3.18051
 21
53.8057
 31
0.0
  0
LINE
  8
0
 62
     0
 10
3.18051
 20
53.8057
 30
0.0
 11
3.54845
 21
53.9418
 31
0.0
  0
LINE
  8
0
 62
     0
 10
3.54845
 20
53.9418
 30
0.0
 11
3.9274
 21
54.048
 31
0.0
  0
LINE
  8
0
 62
     0
 10
3.9274
 20
54.048
 30
0.0
 11
4.3119
 21
54.1253
 31
0.0
  0
LINE
  8
0
 62
     0
 10
4.3119
 20
54.1253
 30
0.0
 11
4.70186
 21
54.1708
 31
0.0
  0
LINE
  8
0
 62
     0
 10
4.70186
 20
54.1708
 30
0.0
 11
5.0946
 21
54.1874
 31
0.0
  0
LINE
  8
0
 62
     0
 10
5.0946
 20
54.1874
 30
0.0
 11
68.2459
 21
54.186
 31
0.0
  0
LINE
  8
0
 62
     0
 10
10.6192
 20
24.6118
 30
0.0
 11
10.6192
 21
23.6113
 31
0.0
  0
LINE
  8
0
 62
     0
 10
10.6192
 20
23.6113
 30
0.0
 11
9.81851
 21
23.6113
 31
0.0
  0
LINE
  8
0
 62
     0
 10
9.81851
 20
23.6113
 30
0.0
 11
9.81851
 21
20.5107
 31
0.0
  0
LINE
  8
0
 62
     0
 10
9.81851
 20
20.5107
 30
0.0
 11
10.6192
 21
20.5107
 31
0.0
  0
LINE
  8
0
 62
     0
 10
10.6192
 20
20.5107
 30
0.0
 11
10.6192
 21
14.7106
 31
0.0
  0
LINE
  8
0
 62
     0
 10
10.6192
 20
14.7106
 30
0.0
 11
9.81851
 21
14.7106
 31
0.0
  0
LINE
  8
0
 62
     0
 10
9.81851
 20
14.7106
 30
0.0
 11
9.81851
 21
11.6114
 31
0.0
  0
LINE
  8
0
 62
     0
 10
9.81851
 20
11.6114
 30
0.0
 11
10.6192
 21
11.6114
 31
0.0
  0
LINE
  8
0
 62
     0
 10
10.6192
 20
11.6114
 30
0.0
 11
10.6192
 21
10.6109
 31
0.0
  0
LINE
  8
0
 62
     0
 10
10.6192
 20
10.6109
 30
0.0
 11
24.62
 21
10.6109
 31
0.0
  0
LINE
  8
0
 62
     0
 10
24.62
 20
10.6109
 30
0.0
 11
24.62
 21
11.6114
 31
0.0
  0
LINE
  8
0
 62
     0
 10
24.62
 20
11.6114
 30
0.0
 11
25.4193
 21
11.6114
 31
0.0
  0
LINE
  8
0
 62
     0
 10
25.4193
 20
11.6114
 30
0.0
 11
25.4193
 21
14.7106
 31
0.0
  0
LINE
  8
0
 62
     0
 10
25.4193
 20
14.7106
 30
0.0
 11
24.62
 21
14.7106
 31
0.0
  0
LINE
  8
0
 62
     0
 10
24.62
 20
14.7106
 30
0.0
 11
24.62
 21
20.5107
 31
0.0
  0
LINE
  8
0
 62
     0
 10
24.62
 20
20.5107
 30
0.0
 11
25.4193
 21
20.5107
 31
0.0
  0
LINE
  8
0
 62
     0
 10
25.4193
 20
20.5107
 30
0.0
 11
25.4193
 21
23.6113
 31
0.0
  0
LINE
  8
0
 62
     0
 10
25.4193
 20
23.6113
 30
0.0
 11
24.62
 21
23.6113
 31
0.0
  0
LINE
  8
0
 62
     0
 10
24.62
 20
23.6113
 30
0.0
 11
24.62
 21
24.6118
 31
0.0
  0
LINE
  8
0
 62
     0
 10
24.62
 20
24.6118
 30
0.0
 11
10.6192
 21
24.6118
 31
0.0
  0
LINE
  8
0
 62
     0
 10
29.6692
 20
24.6118
 30
0.0
 11
29.6692
 21
23.6113
 31
0.0
  0
LINE
  8
0
 62
     0
 10
29.6692
 20
23.6113
 30
0.0
 11
28.8699
 21
23.6113
 31
0.0
  0
LINE
  8
0
 62
     0
 10
28.8699
 20
23.6113
 30
0.0
 11
28.8699
 21
20.5107
 31
0.0
  0
LINE
  8
0
 62
     0
 10
28.8699
 20
20.5107
 30
0.0
 11
29.6692
 21
20.5107
 31
0.0
  0
LINE
  8
0
 62
     0
 10
29.6692
 20
20.5107
 30
0.0
 11
29.6692
 21
14.7106
 31
0.0
  0
LINE
  8
0
 62
     0
 10
29.6692
 20
14.7106
 30
0.0
 11
28.8699
 21
14.7106
 31
0.0
  0
LINE
  8
0
 62
     0
 10
28.8699
 20
14.7106
 30
0.0
 11
28.8699
 21
11.6114
 31
0.0
  0
LINE
  8
0
 62
     0
 10
28.8699
 20
11.6114
 30
0.0
 11
29.6692
 21
11.6114
 31
0.0
  0
LINE
  8
0
 62
     0
 10
29.6692
 20
11.6114
 30
0.0
 11
29.6692
 21
10.6109
 31
0.0
  0
LINE
  8
0
 62
     0
 10
29.6692
 20
10.6109
 30
0.0
 11
43.67
 21
10.6109
 31
0.0
  0
LINE
  8
0
 62
     0
 10
43.67
 20
10.6109
 30
0.0
 11
43.67
 21
11.6114
 31
0.0
  0
LINE
  8
0
 62
     0
 10
43.67
 20
11.6114
 30
0.0
 11
44.4694
 21
11.6114
 31
0.0
  0
LINE
  8
0
 62
     0
 10
44.4694
 20
11.6114
 30
0.0
 11
44.4694
 21
14.7106
 31
0.0
  0
LINE
  8
0
 62
     0
 10
44.4694
 20
14.7106
 30
0.0
 11
43.67
 21
14.7106
 31
0.0
  0
LINE
  8
0
 62
     0
 10
43.67
 20
14.7106
 30
0.0
 11
43.67
 21
20.5107
 31
0.0
  0
LINE
  8
0
 62
     0
 10
43.67
 20
20.5107
 30
0.0
 11
44.4694
 21
20.5107
 31
0.0
  0
LINE
  8
0
 62
     0
 10
44.4694
 20
20.5107
 30
0.0
 11
44.4694
 21
23.6113
 31
0.0
  0
LINE
  8
0
 62
     0
 10
44.4694
 20
23.6113
 30
0.0
 11
43.67
 21
23.6113
 31
0.0
  0
LINE
  8
0
 62
     0
 10
43.67
 20
23.6113
 30
0.0
 11
43.67
 21
24.6118
 31
0.0
  0
LINE
  8
0
 62
     0
 10
43.67
 20
24.6118
 30
0.0
 11
29.6692
 21
24.6118
 31
0.0
  0
LINE
  8
0
 62
     0
 10
48.7193
 20
24.6118
 30
0.0
 11
48.7193
 21
23.6113
 31
0.0
  0
LINE
  8
0
 62
     0
 10
48.7193
 20
23.6113
 30
0.0
 11
47.9199
 21
23.6113
 31
0.0
  0
LINE
  8
0
 62
     0
 10
47.9199
 20
23.6113
 30
0.0
 11
47.9199
 21
20.5107
 31
0.0
  0
LINE
  8
0
 62
     0
 10
47.9199
 20
20.5107
 30
0.0
 11
48.7193
 21
20.5107
 31
0.0
  0
LINE
  8
0
 62
     0
 10
48.7193
 20
20.5107
 30
0.0
 11
48.7193
 21
14.7106
 31
0.0
  0
LINE
  8
0
 62
     0
 10
48.7193
 20
14.7106
 30
0.0
 11
47.9199
 21
14.7106
 31
0.0
  0
LINE
  8
0
 62
     0
 10
47.9199
 20
14.7106
 30
0.0
 11
47.9199
 21
11.6114
 31
0.0
  0
LINE
  8
0
 62
     0
 10
47.9199
 20
11.6114
 30
0.0
 11
48.7193
 21
11.6114
 31
0.0
  0
LINE
  8
0
 62
     0
 10
48.7193
 20
11.6114
 30
0.0
 11
48.7193
 21
10.6109
 31
0.0
  0
LINE
  8
0
 62
     0
 10
48.7193
 20
10.6109
 30
0.0
 11
62.72
 21
10.6109
 31
0.0
  0
LINE
  8
0
 62
     0
 10
62.72
 20
10.6109
 30
0.0
 11
62.72
 21
11.6114
 31
0.0
  0
LINE
  8
0
 62
     0
 10
62.72
 20
11.6114
 30
0.0
 11
63.5194
 21
11.6114
 31
0.0
  0
LINE
  8
0
 62
     0
 10
63.5194
 20
11.6114
 30
0.0
 11
63.5194
 21
14.7106
 31
0.0
  0
LINE
  8
0
 62
     0
 10
63.5194
 20
14.7106
 30
0.0
 11
62.72
 21
14.7106
 31
0.0
  0
LINE
  8
0
 62
     0
 10
62.72
 20
14.7106
 30
0.0
 11
62.72
 21
20.5107
 31
0.0
  0
LINE
  8
0
 62
     0
 10
62.72
 20
20.5107
 30
0.0
 11
63.5194
 21
20.5107
 31
0.0
  0
LINE
  8
0
 62
     0
 10
63.5194
 20
20.5107
 30
0.0
 11
63.5194
 21
23.6113
 31
0.0
  0
LINE
  8
0
 62
     0
 10
63.5194
 20
23.6113
 30
0.0
 11
62.72
 21
23.6113
 31
0.0
  0
LINE
  8
0
 62
     0
 10
62.72
 20
23.6113
 30
0.0
 11
62.72
 21
24.6118
 31
0.0
  0
LINE
  8
0
 62
     0
 10
62.72
 20
24.6118
 30
0.0
 11
48.7193
 21
24.6118
 31
0.0
  0
LINE
  8
0
 62
     0
 10
29.6692
 20
43.6619
 30
0.0
 11
29.6692
 21
42.6614
 31
0.0
  0
LINE
  8
0
 62
     0
 10
29.6692
 20
42.6614
 30
0.0
 11
28.8699
 21
42.6614
 31
0.0
  0
LINE
  8
0
 62
     0
 10
28.8699
 20
42.6614
 30
0.0
 11
28.8699
 21
39.5609
 31
0.0
  0
LINE
  8
0
 62
     0
 10
28.8699
 20
39.5609
 30
0.0
 11
29.6692
 21
39.5609
 31
0.0
  0
LINE
  8
0
 62
     0
 10
29.6692
 20
39.5609
 30
0.0
 11
29.6692
 21
33.7619
 31
0.0
  0
LINE
  8
0
 62
     0
 10
29.6692
 20
33.7619
 30
0.0
 11
28.8699
 21
33.7619
 31
0.0
  0
LINE
  8
0
 62
     0
 10
28.8699
 20
33.7619
 30
0.0
 11
28.8699
 21
30.6614
 31
0.0
  0
LINE
  8
0
 62
     0
 10
28.8699
 20
30.6614
 30
0.0
 11
29.6692
 21
30.6614
 31
0.0
  0
LINE
  8
0
 62
     0
 10
29.6692
 20
30.6614
 30
0.0
 11
29.6692
 21
29.6609
 31
0.0
  0
LINE
  8
0
 62
     0
 10
29.6692
 20
29.6609
 30
0.0
 11
43.67
 21
29.6609
 31
0.0
  0
LINE
  8
0
 62
     0
 10
43.67
 20
29.6609
 30
0.0
 11
43.67
 21
30.6614
 31
0.0
  0
LINE
  8
0
 62
     0
 10
43.67
 20
30.6614
 30
0.0
 11
44.4694
 21
30.6614
 31
0.0
  0
LINE
  8
0
 62
     0
 10
44.4694
 20
30.6614
 30
0.0
 11
44.4694
 21
33.7619
 31
0.0
  0
LINE
  8
0
 62
     0
 10
44.4694
 20
33.7619
 30
0.0
 11
43.67
 21
33.7619
 31
0.0
  0
LINE
  8
0
 62
     0
 10
43.67
 20
33.7619
 30
0.0
 11
43.67
 21
39.5609
 31
0.0
  0
LINE
  8
0
 62
     0
 10
43.67
 20
39.5609
 30
0.0
 11
44.4694
 21
39.5609
 31
0.0
  0
LINE
  8
0
 62
     0
 10
44.4694
 20
39.5609
 30
0.0
 11
44.4694
 21
42.6614
 31
0.0
  0
LINE
  8
0
 62
     0
 10
44.4694
 20
42.6614
 30
0.0
 11
43.67
 21
42.6614
 31
0.0
  0
LINE
  8
0
 62
     0
 10
43.67
 20
42.6614
 30
0.0
 11
43.67
 21
43.6619
 31
0.0
  0
LINE
  8
0
 62
     0
 10
43.67
 20
43.6619
 30
0.0
 11
29.6692
 21
43.6619
 31
0.0
  0
LINE
  8
0
 62
     0
 10
17.3054
 20
40.6495
 30
0.0
 11
16.994
 21
40.6121
 31
0.0
  0
LINE
  8
0
 62
     0
 10
16.994
 20
40.6121
 30
0.0
 11
16.6853
 21
40.55
 31
0.0
  0
LINE
  8
0
 62
     0
 10
16.6853
 20
40.55
 30
0.0
 11
16.3835
 21
40.4647
 31
0.0
  0
LINE
  8
0
 62
     0
 10
16.3835
 20
40.4647
 30
0.0
 11
16.0886
 21
40.3571
 31
0.0
  0
LINE
  8
0
 62
     0
 10
16.0886
 20
40.3571
 30
0.0
 11
15.8034
 21
40.2248
 31
0.0
  0
LINE
  8
0
 62
     0
 10
15.8034
 20
40.2248
 30
0.0
 11
15.5291
 21
40.072
 31
0.0
  0
LINE
  8
0
 62
     0
 10
15.5291
 20
40.072
 30
0.0
 11
15.2687
 21
39.8971
 31
0.0
  0
LINE
  8
0
 62
     0
 10
15.2687
 20
39.8971
 30
0.0
 11
15.022
 21
39.7027
 31
0.0
  0
LINE
  8
0
 62
     0
 10
15.022
 20
39.7027
 30
0.0
 11
14.7919
 21
39.4892
 31
0.0
  0
LINE
  8
0
 62
     0
 10
14.7919
 20
39.4892
 30
0.0
 11
14.5783
 21
39.2589
 31
0.0
  0
LINE
  8
0
 62
     0
 10
14.5783
 20
39.2589
 30
0.0
 11
14.3839
 21
39.0123
 31
0.0
  0
LINE
  8
0
 62
     0
 10
14.3839
 20
39.0123
 30
0.0
 11
14.2089
 21
38.7519
 31
0.0
  0
LINE
  8
0
 62
     0
 10
14.2089
 20
38.7519
 30
0.0
 11
14.056
 21
38.4775
 31
0.0
  0
LINE
  8
0
 62
     0
 10
14.056
 20
38.4775
 30
0.0
 11
13.9237
 21
38.1924
 31
0.0
  0
LINE
  8
0
 62
     0
 10
13.9237
 20
38.1924
 30
0.0
 11
13.8162
 21
37.8975
 31
0.0
  0
LINE
  8
0
 62
     0
 10
13.8162
 20
37.8975
 30
0.0
 11
13.7308
 21
37.5955
 31
0.0
  0
LINE
  8
0
 62
     0
 10
13.7308
 20
37.5955
 30
0.0
 11
13.6688
 21
37.2868
 31
0.0
  0
LINE
  8
0
 62
     0
 10
13.6688
 20
37.2868
 30
0.0
 11
13.6315
 21
36.9757
 31
0.0
  0
LINE
  8
0
 62
     0
 10
13.6315
 20
36.9757
 30
0.0
 11
13.6192
 21
36.6614
 31
0.0
  0
LINE
  8
0
 62
     0
 10
13.6192
 20
36.6614
 30
0.0
 11
13.6315
 21
36.347
 31
0.0
  0
LINE
  8
0
 62
     0
 10
13.6315
 20
36.347
 30
0.0
 11
13.6688
 21
36.0355
 31
0.0
  0
LINE
  8
0
 62
     0
 10
13.6688
 20
36.0355
 30
0.0
 11
13.7308
 21
35.7269
 31
0.0
  0
LINE
  8
0
 62
     0
 10
13.7308
 20
35.7269
 30
0.0
 11
13.8162
 21
35.4252
 31
0.0
  0
LINE
  8
0
 62
     0
 10
13.8162
 20
35.4252
 30
0.0
 11
13.9237
 21
35.1303
 31
0.0
  0
LINE
  8
0
 62
     0
 10
13.9237
 20
35.1303
 30
0.0
 11
14.056
 21
34.8451
 31
0.0
  0
LINE
  8
0
 62
     0
 10
14.056
 20
34.8451
 30
0.0
 11
14.2089
 21
34.5708
 31
0.0
  0
LINE
  8
0
 62
     0
 10
14.2089
 20
34.5708
 30
0.0
 11
14.3839
 21
34.3104
 31
0.0
  0
LINE
  8
0
 62
     0
 10
14.3839
 20
34.3104
 30
0.0
 11
14.5783
 21
34.0637
 31
0.0
  0
LINE
  8
0
 62
     0
 10
14.5783
 20
34.0637
 30
0.0
 11
14.7919
 21
33.8336
 31
0.0
  0
LINE
  8
0
 62
     0
 10
14.7919
 20
33.8336
 30
0.0
 11
15.022
 21
33.6186
 31
0.0
  0
LINE
  8
0
 62
     0
 10
15.022
 20
33.6186
 30
0.0
 11
15.2687
 21
33.4257
 31
0.0
  0
LINE
  8
0
 62
     0
 10
15.2687
 20
33.4257
 30
0.0
 11
15.5291
 21
33.2507
 31
0.0
  0
LINE
  8
0
 62
     0
 10
15.5291
 20
33.2507
 30
0.0
 11
15.8034
 21
33.0977
 31
0.0
  0
LINE
  8
0
 62
     0
 10
15.8034
 20
33.0977
 30
0.0
 11
16.0886
 21
32.9654
 31
0.0
  0
LINE
  8
0
 62
     0
 10
16.0886
 20
32.9654
 30
0.0
 11
16.3835
 21
32.8566
 31
0.0
  0
LINE
  8
0
 62
     0
 10
16.3835
 20
32.8566
 30
0.0
 11
16.6853
 21
32.7725
 31
0.0
  0
LINE
  8
0
 62
     0
 10
16.6853
 20
32.7725
 30
0.0
 11
16.994
 21
32.7105
 31
0.0
  0
LINE
  8
0
 62
     0
 10
16.994
 20
32.7105
 30
0.0
 11
17.3054
 21
32.6733
 31
0.0
  0
LINE
  8
0
 62
     0
 10
17.3054
 20
32.6733
 30
0.0
 11
17.6196
 21
32.6609
 31
0.0
  0
LINE
  8
0
 62
     0
 10
17.6196
 20
32.6609
 30
0.0
 11
17.9338
 21
32.6733
 31
0.0
  0
LINE
  8
0
 62
     0
 10
17.9338
 20
32.6733
 30
0.0
 11
18.2452
 21
32.7105
 31
0.0
  0
LINE
  8
0
 62
     0
 10
18.2452
 20
32.7105
 30
0.0
 11
18.5539
 21
32.7725
 31
0.0
  0
LINE
  8
0
 62
     0
 10
18.5539
 20
32.7725
 30
0.0
 11
18.8557
 21
32.8566
 31
0.0
  0
LINE
  8
0
 62
     0
 10
18.8557
 20
32.8566
 30
0.0
 11
19.1506
 21
32.9654
 31
0.0
  0
LINE
  8
0
 62
     0
 10
19.1506
 20
32.9654
 30
0.0
 11
19.4359
 21
33.0977
 31
0.0
  0
LINE
  8
0
 62
     0
 10
19.4359
 20
33.0977
 30
0.0
 11
19.7101
 21
33.2507
 31
0.0
  0
LINE
  8
0
 62
     0
 10
19.7101
 20
33.2507
 30
0.0
 11
19.9705
 21
33.4257
 31
0.0
  0
LINE
  8
0
 62
     0
 10
19.9705
 20
33.4257
 30
0.0
 11
20.2172
 21
33.6186
 31
0.0
  0
LINE
  8
0
 62
     0
 10
20.2172
 20
33.6186
 30
0.0
 11
20.4473
 21
33.8336
 31
0.0
  0
LINE
  8
0
 62
     0
 10
20.4473
 20
33.8336
 30
0.0
 11
20.6623
 21
34.0637
 31
0.0
  0
LINE
  8
0
 62
     0
 10
20.6623
 20
34.0637
 30
0.0
 11
20.8552
 21
34.3104
 31
0.0
  0
LINE
  8
0
 62
     0
 10
20.8552
 20
34.3104
 30
0.0
 11
21.0302
 21
34.5708
 31
0.0
  0
LINE
  8
0
 62
     0
 10
21.0302
 20
34.5708
 30
0.0
 11
21.1832
 21
34.8451
 31
0.0
  0
LINE
  8
0
 62
     0
 10
21.1832
 20
34.8451
 30
0.0
 11
21.3155
 21
35.1303
 31
0.0
  0
LINE
  8
0
 62
     0
 10
21.3155
 20
35.1303
 30
0.0
 11
21.4244
 21
35.4252
 31
0.0
  0
LINE
  8
0
 62
     0
 10
21.4244
 20
35.4252
 30
0.0
 11
21.5084
 21
35.7269
 31
0.0
  0
LINE
  8
0
 62
     0
 10
21.5084
 20
35.7269
 30
0.0
 11
21.5704
 21
36.0355
 31
0.0
  0
LINE
  8
0
 62
     0
 10
21.5704
 20
36.0355
 30
0.0
 11
21.6076
 21
36.347
 31
0.0
  0
LINE
  8
0
 62
     0
 10
21.6076
 20
36.347
 30
0.0
 11
21.6201
 21
36.6614
 31
0.0
  0
LINE
  8
0
 62
     0
 10
21.6201
 20
36.6614
 30
0.0
 11
21.6076
 21
36.9757
 31
0.0
  0
LINE
  8
0
 62
     0
 10
21.6076
 20
36.9757
 30
0.0
 11
21.5704
 21
37.2868
 31
0.0
  0
LINE
  8
0
 62
     0
 10
21.5704
 20
37.2868
 30
0.0
 11
21.5084
 21
37.5955
 31
0.0
  0
LINE
  8
0
 62
     0
 10
21.5084
 20
37.5955
 30
0.0
 11
21.4244
 21
37.8975
 31
0.0
  0
LINE
  8
0
 62
     0
 10
21.4244
 20
37.8975
 30
0.0
 11
21.3155
 21
38.1924
 31
0.0
  0
LINE
  8
0
 62
     0
 10
21.3155
 20
38.1924
 30
0.0
 11
21.1832
 21
38.4775
 31
0.0
  0
LINE
  8
0
 62
     0
 10
21.1832
 20
38.4775
 30
0.0
 11
21.0302
 21
38.7519
 31
0.0
  0
LINE
  8
0
 62
     0
 10
21.0302
 20
38.7519
 30
0.0
 11
20.8552
 21
39.0123
 31
0.0
  0
LINE
  8
0
 62
     0
 10
20.8552
 20
39.0123
 30
0.0
 11
20.6623
 21
39.2589
 31
0.0
  0
LINE
  8
0
 62
     0
 10
20.6623
 20
39.2589
 30
0.0
 11
20.4473
 21
39.4892
 31
0.0
  0
LINE
  8
0
 62
     0
 10
20.4473
 20
39.4892
 30
0.0
 11
20.2172
 21
39.7027
 31
0.0
  0
LINE
  8
0
 62
     0
 10
20.2172
 20
39.7027
 30
0.0
 11
19.9705
 21
39.8971
 31
0.0
  0
LINE
  8
0
 62
     0
 10
19.9705
 20
39.8971
 30
0.0
 11
19.7101
 21
40.072
 31
0.0
  0
LINE
  8
0
 62
     0
 10
19.7101
 20
40.072
 30
0.0
 11
19.4359
 21
40.2248
 31
0.0
  0
LINE
  8
0
 62
     0
 10
19.4359
 20
40.2248
 30
0.0
 11
19.1506
 21
40.3571
 31
0.0
  0
LINE
  8
0
 62
     0
 10
19.1506
 20
40.3571
 30
0.0
 11
18.8557
 21
40.4647
 31
0.0
  0
LINE
  8
0
 62
     0
 10
18.8557
 20
40.4647
 30
0.0
 11
18.5539
 21
40.55
 31
0.0
  0
LINE
  8
0
 62
     0
 10
18.5539
 20
40.55
 30
0.0
 11
18.2452
 21
40.6121
 31
0.0
  0
LINE
  8
0
 62
     0
 10
18.2452
 20
40.6121
 30
0.0
 11
17.9338
 21
40.6495
 31
0.0
  0
LINE
  8
0
 62
     0
 10
17.9338
 20
40.6495
 30
0.0
 11
17.6196
 21
40.6619
 31
0.0
  0
LINE
  8
0
 62
     0
 10
17.6196
 20
40.6619
 30
0.0
 11
17.3054
 21
40.6495
 31
0.0
  0
LINE
  8
0
 62
     0
 10
55.4055
 20
40.6495
 30
0.0
 11
55.094
 21
40.6121
 31
0.0
  0
LINE
  8
0
 62
     0
 10
55.094
 20
40.6121
 30
0.0
 11
54.7853
 21
40.55
 31
0.0
  0
LINE
  8
0
 62
     0
 10
54.7853
 20
40.55
 30
0.0
 11
54.4834
 21
40.4647
 31
0.0
  0
LINE
  8
0
 62
     0
 10
54.4834
 20
40.4647
 30
0.0
 11
54.1884
 21
40.3571
 31
0.0
  0
LINE
  8
0
 62
     0
 10
54.1884
 20
40.3571
 30
0.0
 11
53.9034
 21
40.2248
 31
0.0
  0
LINE
  8
0
 62
     0
 10
53.9034
 20
40.2248
 30
0.0
 11
53.6293
 21
40.072
 31
0.0
  0
LINE
  8
0
 62
     0
 10
53.6293
 20
40.072
 30
0.0
 11
53.3686
 21
39.8971
 31
0.0
  0
LINE
  8
0
 62
     0
 10
53.3686
 20
39.8971
 30
0.0
 11
53.122
 21
39.7027
 31
0.0
  0
LINE
  8
0
 62
     0
 10
53.122
 20
39.7027
 30
0.0
 11
52.892
 21
39.4892
 31
0.0
  0
LINE
  8
0
 62
     0
 10
52.892
 20
39.4892
 30
0.0
 11
52.6782
 21
39.2589
 31
0.0
  0
LINE
  8
0
 62
     0
 10
52.6782
 20
39.2589
 30
0.0
 11
52.4838
 21
39.0123
 31
0.0
  0
LINE
  8
0
 62
     0
 10
52.4838
 20
39.0123
 30
0.0
 11
52.3088
 21
38.7519
 31
0.0
  0
LINE
  8
0
 62
     0
 10
52.3088
 20
38.7519
 30
0.0
 11
52.1561
 21
38.4775
 31
0.0
  0
LINE
  8
0
 62
     0
 10
52.1561
 20
38.4775
 30
0.0
 11
52.0238
 21
38.1924
 31
0.0
  0
LINE
  8
0
 62
     0
 10
52.0238
 20
38.1924
 30
0.0
 11
51.9162
 21
37.8975
 31
0.0
  0
LINE
  8
0
 62
     0
 10
51.9162
 20
37.8975
 30
0.0
 11
51.8308
 21
37.5955
 31
0.0
  0
LINE
  8
0
 62
     0
 10
51.8308
 20
37.5955
 30
0.0
 11
51.7687
 21
37.2868
 31
0.0
  0
LINE
  8
0
 62
     0
 10
51.7687
 20
37.2868
 30
0.0
 11
51.7317
 21
36.9757
 31
0.0
  0
LINE
  8
0
 62
     0
 10
51.7317
 20
36.9757
 30
0.0
 11
51.719
 21
36.6614
 31
0.0
  0
LINE
  8
0
 62
     0
 10
51.719
 20
36.6614
 30
0.0
 11
51.7317
 21
36.347
 31
0.0
  0
LINE
  8
0
 62
     0
 10
51.7317
 20
36.347
 30
0.0
 11
51.7687
 21
36.0355
 31
0.0
  0
LINE
  8
0
 62
     0
 10
51.7687
 20
36.0355
 30
0.0
 11
51.8308
 21
35.7269
 31
0.0
  0
LINE
  8
0
 62
     0
 10
51.8308
 20
35.7269
 30
0.0
 11
51.9162
 21
35.4252
 31
0.0
  0
LINE
  8
0
 62
     0
 10
51.9162
 20
35.4252
 30
0.0
 11
52.0238
 21
35.1303
 31
0.0
  0
LINE
  8
0
 62
     0
 10
52.0238
 20
35.1303
 30
0.0
 11
52.1561
 21
34.8451
 31
0.0
  0
LINE
  8
0
 62
     0
 10
52.1561
 20
34.8451
 30
0.0
 11
52.3088
 21
34.5708
 31
0.0
  0
LINE
  8
0
 62
     0
 10
52.3088
 20
34.5708
 30
0.0
 11
52.4838
 21
34.3104
 31
0.0
  0
LINE
  8
0
 62
     0
 10
52.4838
 20
34.3104
 30
0.0
 11
52.6782
 21
34.0637
 31
0.0
  0
LINE
  8
0
 62
     0
 10
52.6782
 20
34.0637
 30
0.0
 11
52.892
 21
33.8336
 31
0.0
  0
LINE
  8
0
 62
     0
 10
52.892
 20
33.8336
 30
0.0
 11
53.122
 21
33.6186
 31
0.0
  0
LINE
  8
0
 62
     0
 10
53.122
 20
33.6186
 30
0.0
 11
53.3686
 21
33.4257
 31
0.0
  0
LINE
  8
0
 62
     0
 10
53.3686
 20
33.4257
 30
0.0
 11
53.6293
 21
33.2507
 31
0.0
  0
LINE
  8
0
 62
     0
 10
53.6293
 20
33.2507
 30
0.0
 11
53.9034
 21
33.0977
 31
0.0
  0
LINE
  8
0
 62
     0
 10
53.9034
 20
33.0977
 30
0.0
 11
54.1884
 21
32.9654
 31
0.0
  0
LINE
  8
0
 62
     0
 10
54.1884
 20
32.9654
 30
0.0
 11
54.4834
 21
32.8566
 31
0.0
  0
LINE
  8
0
 62
     0
 10
54.4834
 20
32.8566
 30
0.0
 11
54.7853
 21
32.7725
 31
0.0
  0
LINE
  8
0
 62
     0
 10
54.7853
 20
32.7725
 30
0.0
 11
55.094
 21
32.7105
 31
0.0
  0
LINE
  8
0
 62
     0
 10
55.094
 20
32.7105
 30
0.0
 11
55.4055
 21
32.6733
 31
0.0
  0
LINE
  8
0
 62
     0
 10
55.4055
 20
32.6733
 30
0.0
 11
55.7195
 21
32.6609
 31
0.0
  0
LINE
  8
0
 62
     0
 10
55.7195
 20
32.6609
 30
0.0
 11
56.0338
 21
32.6733
 31
0.0
  0
LINE
  8
0
 62
     0
 10
56.0338
 20
32.6733
 30
0.0
 11
56.3453
 21
32.7105
 31
0.0
  0
LINE
  8
0
 62
     0
 10
56.3453
 20
32.7105
 30
0.0
 11
56.654
 21
32.7725
 31
0.0
  0
LINE
  8
0
 62
     0
 10
56.654
 20
32.7725
 30
0.0
 11
56.9556
 21
32.8566
 31
0.0
  0
LINE
  8
0
 62
     0
 10
56.9556
 20
32.8566
 30
0.0
 11
57.2505
 21
32.9654
 31
0.0
  0
LINE
  8
0
 62
     0
 10
57.2505
 20
32.9654
 30
0.0
 11
57.5359
 21
33.0977
 31
0.0
  0
LINE
  8
0
 62
     0
 10
57.5359
 20
33.0977
 30
0.0
 11
57.81
 21
33.2507
 31
0.0
  0
LINE
  8
0
 62
     0
 10
57.81
 20
33.2507
 30
0.0
 11
58.0704
 21
33.4257
 31
0.0
  0
LINE
  8
0
 62
     0
 10
58.0704
 20
33.4257
 30
0.0
 11
58.3173
 21
33.6186
 31
0.0
  0
LINE
  8
0
 62
     0
 10
58.3173
 20
33.6186
 30
0.0
 11
58.5474
 21
33.8336
 31
0.0
  0
LINE
  8
0
 62
     0
 10
58.5474
 20
33.8336
 30
0.0
 11
58.7622
 21
34.0637
 31
0.0
  0
LINE
  8
0
 62
     0
 10
58.7622
 20
34.0637
 30
0.0
 11
58.9552
 21
34.3104
 31
0.0
  0
LINE
  8
0
 62
     0
 10
58.9552
 20
34.3104
 30
0.0
 11
59.1301
 21
34.5708
 31
0.0
  0
LINE
  8
0
 62
     0
 10
59.1301
 20
34.5708
 30
0.0
 11
59.2832
 21
34.8451
 31
0.0
  0
LINE
  8
0
 62
     0
 10
59.2832
 20
34.8451
 30
0.0
 11
59.4155
 21
35.1303
 31
0.0
  0
LINE
  8
0
 62
     0
 10
59.4155
 20
35.1303
 30
0.0
 11
59.5242
 21
35.4252
 31
0.0
  0
LINE
  8
0
 62
     0
 10
59.5242
 20
35.4252
 30
0.0
 11
59.6085
 21
35.7269
 31
0.0
  0
LINE
  8
0
 62
     0
 10
59.6085
 20
35.7269
 30
0.0
 11
59.6706
 21
36.0355
 31
0.0
  0
LINE
  8
0
 62
     0
 10
59.6706
 20
36.0355
 30
0.0
 11
59.7076
 21
36.347
 31
0.0
  0
LINE
  8
0
 62
     0
 10
59.7076
 20
36.347
 30
0.0
 11
59.72
 21
36.6614
 31
0.0
  0
LINE
  8
0
 62
     0
 10
59.72
 20
36.6614
 30
0.0
 11
59.7076
 21
36.9757
 31
0.0
  0
LINE
  8
0
 62
     0
 10
59.7076
 20
36.9757
 30
0.0
 11
59.6706
 21
37.2868
 31
0.0
  0
LINE
  8
0
 62
     0
 10
59.6706
 20
37.2868
 30
0.0
 11
59.6085
 21
37.5955
 31
0.0
  0
LINE
  8
0
 62
     0
 10
59.6085
 20
37.5955
 30
0.0
 11
59.5242
 21
37.8975
 31
0.0
  0
LINE
  8
0
 62
     0
 10
59.5242
 20
37.8975
 30
0.0
 11
59.4155
 21
38.1924
 31
0.0
  0
LINE
  8
0
 62
     0
 10
59.4155
 20
38.1924
 30
0.0
 11
59.2832
 21
38.4775
 31
0.0
  0
LINE
  8
0
 62
     0
 10
59.2832
 20
38.4775
 30
0.0
 11
59.1301
 21
38.7519
 31
0.0
  0
LINE
  8
0
 62
     0
 10
59.1301
 20
38.7519
 30
0.0
 11
58.9552
 21
39.0123
 31
0.0
  0
LINE
  8
0
 62
     0
 10
58.9552
 20
39.0123
 30
0.0
 11
58.7622
 21
39.2589
 31
0.0
  0
LINE
  8
0
 62
     0
 10
58.7622
 20
39.2589
 30
0.0
 11
58.5474
 21
39.4892
 31
0.0
  0
LINE
  8
0
 62
     0
 10
58.5474
 20
39.4892
 30
0.0
 11
58.3173
 21
39.7027
 31
0.0
  0
LINE
  8
0
 62
     0
 10
58.3173
 20
39.7027
 30
0.0
 11
58.0704
 21
39.8971
 31
0.0
  0
LINE
  8
0
 62
     0
 10
58.0704
 20
39.8971
 30
0.0
 11
57.81
 21
40.072
 31
0.0
  0
LINE
  8
0
 62
     0
 10
57.81
 20
40.072
 30
0.0
 11
57.5359
 21
40.2248
 31
0.0
  0
LINE
  8
0
 62
     0
 10
57.5359
 20
40.2248
 30
0.0
 11
57.2505
 21
40.3571
 31
0.0
  0
LINE
  8
0
 62
     0
 10
57.2505
 20
40.3571
 30
0.0
 11
56.9556
 21
40.4647
 31
0.0
  0
LINE
  8
0
 62
     0
 10
56.9556
 20
40.4647
 30
0.0
 11
56.654
 21
40.55
 31
0.0
  0
LINE
  8
0
 62
     0
 10
56.654
 20
40.55
 30
0.0
 11
56.3453
 21
40.6121
 31
0.0
  0
LINE
  8
0
 62
     0
 10
56.3453
 20
40.6121
 30
0.0
 11
56.0338
 21
40.6495
 31
0.0
  0
LINE
  8
0
 62
     0
 10
56.0338
 20
40.6495
 30
0.0
 11
55.7195
 21
40.6619
 31
0.0
  0
LINE
  8
0
 62
     0
 10
55.7195
 20
40.6619
 30
0.0
 11
55.4055
 21
40.6495
 31
0.0
  0
ENDSEC
  0
EOF
