M48
; DRILL file {KiCad 5.1.2} date Do 02 Mai 2019 19:12:56 CEST
; FORMAT={-:-/ absolute / inch / decimal}
; #@! TF.CreationDate,2019-05-02T19:12:56+02:00
; #@! TF.GenerationSoftware,Kicad,Pcbnew,5.1.2
; #@! TF.FileFunction,Plated,1,2,PTH
FMAT,2
INCH
T1C0.0118
T2C0.0157
T3C0.0197
T4C0.0315
T5C0.0394
T6C0.0433
T7C0.0591
%
G90
G05
T1
X5.1Y-4.325
X5.2Y-4.4
X5.375Y-3.925
X5.4984Y-3.8484
X5.875Y-3.45
X5.95Y-3.45
X6.0Y-4.475
X6.15Y-3.625
X6.25Y-4.85
X6.3Y-3.625
X6.3Y-3.95
X6.325Y-4.1
X6.35Y-4.075
X6.375Y-3.68
X6.4Y-3.7
X6.425Y-4.5
X6.475Y-4.45
X6.599Y-4.054
X6.5998Y-4.3202
X6.625Y-4.6
X6.7721Y-4.775
X6.8824Y-4.3825
X6.9Y-4.575
X7.012Y-4.162
X7.025Y-4.1935
X7.025Y-4.25
T2
X6.1398Y-3.5211
X6.1555Y-3.4935
X6.187Y-3.4935
X6.2028Y-3.5211
X6.2185Y-3.4935
X6.2343Y-3.5211
X6.2657Y-3.5211
X6.2815Y-3.4935
X6.2972Y-3.5211
X6.313Y-3.4935
X6.3445Y-3.4935
X6.3602Y-3.5211
T4
X6.325Y-4.85
X6.625Y-4.85
X5.85Y-4.475
X5.85Y-4.775
X6.6Y-3.425
X6.6Y-3.725
X6.85Y-3.375
X7.15Y-3.375
X7.35Y-4.475
X7.35Y-4.775
X5.9Y-3.725
X5.9Y-4.025
T5
X5.2047Y-3.6516
X5.2047Y-3.75
X5.2047Y-3.8484
X5.7756Y-3.6516
X5.7756Y-3.8484
X6.7244Y-3.6266
X6.7244Y-3.8234
X7.2953Y-3.6266
X7.2953Y-3.725
X7.2953Y-3.8234
T6
X5.5441Y-4.15
X5.5441Y-4.3272
X5.8Y-4.15
X5.8Y-4.3272
T3
G00X6.0732Y-3.2514
M15
G01X6.0732Y-3.275
M16
G05
G00X6.0874Y-3.4856
M15
G01X6.0874Y-3.5093
M16
G05
G00X6.4126Y-3.4856
M15
G01X6.4126Y-3.5093
M16
G05
G00X6.4268Y-3.2514
M15
G01X6.4268Y-3.275
M16
G05
T7
G00X5.4744Y-3.5295
M15
G01X5.5256Y-3.5295
M16
G05
G00X5.4744Y-3.9705
M15
G01X5.5256Y-3.9705
M16
G05
G00X7.0256Y-3.5045
M15
G01X6.9744Y-3.5045
M16
G05
G00X7.0256Y-3.9455
M15
G01X6.9744Y-3.9455
M16
G05
T0
M30
