G04 #@! TF.GenerationSoftware,KiCad,Pcbnew,5.1.2*
G04 #@! TF.CreationDate,2019-05-02T19:13:18+02:00*
G04 #@! TF.ProjectId,pcb,7063622e-6b69-4636-9164-5f7063625858,rev?*
G04 #@! TF.SameCoordinates,Original*
G04 #@! TF.FileFunction,Soldermask,Bot*
G04 #@! TF.FilePolarity,Negative*
%FSLAX46Y46*%
G04 Gerber Fmt 4.6, Leading zero omitted, Abs format (unit mm)*
G04 Created by KiCad (PCBNEW 5.1.2) date 2019-05-02 19:13:18*
%MOMM*%
%LPD*%
G04 APERTURE LIST*
%ADD10R,2.550000X2.500000*%
%ADD11C,3.987800*%
%ADD12C,3.000000*%
%ADD13C,0.100000*%
%ADD14C,1.150000*%
%ADD15R,2.100000X1.725000*%
%ADD16R,1.500000X0.550000*%
%ADD17R,0.550000X1.500000*%
%ADD18R,2.000000X2.000000*%
%ADD19C,2.000000*%
%ADD20R,3.200000X2.000000*%
%ADD21C,0.650000*%
%ADD22O,0.950000X0.650000*%
%ADD23O,0.800000X1.400000*%
%ADD24R,0.300000X0.700000*%
%ADD25R,1.500000X1.000000*%
%ADD26O,1.600000X1.600000*%
%ADD27R,1.600000X1.600000*%
G04 APERTURE END LIST*
D10*
X166310000Y-97790000D03*
D11*
X158750000Y-95250000D03*
D12*
X162560000Y-97790000D03*
X156210000Y-100330000D03*
D10*
X152460000Y-100330000D03*
D13*
G36*
X130014505Y-91256204D02*
G01*
X130038773Y-91259804D01*
X130062572Y-91265765D01*
X130085671Y-91274030D01*
X130107850Y-91284520D01*
X130128893Y-91297132D01*
X130148599Y-91311747D01*
X130166777Y-91328223D01*
X130183253Y-91346401D01*
X130197868Y-91366107D01*
X130210480Y-91387150D01*
X130220970Y-91409329D01*
X130229235Y-91432428D01*
X130235196Y-91456227D01*
X130238796Y-91480495D01*
X130240000Y-91504999D01*
X130240000Y-92155001D01*
X130238796Y-92179505D01*
X130235196Y-92203773D01*
X130229235Y-92227572D01*
X130220970Y-92250671D01*
X130210480Y-92272850D01*
X130197868Y-92293893D01*
X130183253Y-92313599D01*
X130166777Y-92331777D01*
X130148599Y-92348253D01*
X130128893Y-92362868D01*
X130107850Y-92375480D01*
X130085671Y-92385970D01*
X130062572Y-92394235D01*
X130038773Y-92400196D01*
X130014505Y-92403796D01*
X129990001Y-92405000D01*
X129089999Y-92405000D01*
X129065495Y-92403796D01*
X129041227Y-92400196D01*
X129017428Y-92394235D01*
X128994329Y-92385970D01*
X128972150Y-92375480D01*
X128951107Y-92362868D01*
X128931401Y-92348253D01*
X128913223Y-92331777D01*
X128896747Y-92313599D01*
X128882132Y-92293893D01*
X128869520Y-92272850D01*
X128859030Y-92250671D01*
X128850765Y-92227572D01*
X128844804Y-92203773D01*
X128841204Y-92179505D01*
X128840000Y-92155001D01*
X128840000Y-91504999D01*
X128841204Y-91480495D01*
X128844804Y-91456227D01*
X128850765Y-91432428D01*
X128859030Y-91409329D01*
X128869520Y-91387150D01*
X128882132Y-91366107D01*
X128896747Y-91346401D01*
X128913223Y-91328223D01*
X128931401Y-91311747D01*
X128951107Y-91297132D01*
X128972150Y-91284520D01*
X128994329Y-91274030D01*
X129017428Y-91265765D01*
X129041227Y-91259804D01*
X129065495Y-91256204D01*
X129089999Y-91255000D01*
X129990001Y-91255000D01*
X130014505Y-91256204D01*
X130014505Y-91256204D01*
G37*
D14*
X129540000Y-91830000D03*
D13*
G36*
X130014505Y-89206204D02*
G01*
X130038773Y-89209804D01*
X130062572Y-89215765D01*
X130085671Y-89224030D01*
X130107850Y-89234520D01*
X130128893Y-89247132D01*
X130148599Y-89261747D01*
X130166777Y-89278223D01*
X130183253Y-89296401D01*
X130197868Y-89316107D01*
X130210480Y-89337150D01*
X130220970Y-89359329D01*
X130229235Y-89382428D01*
X130235196Y-89406227D01*
X130238796Y-89430495D01*
X130240000Y-89454999D01*
X130240000Y-90105001D01*
X130238796Y-90129505D01*
X130235196Y-90153773D01*
X130229235Y-90177572D01*
X130220970Y-90200671D01*
X130210480Y-90222850D01*
X130197868Y-90243893D01*
X130183253Y-90263599D01*
X130166777Y-90281777D01*
X130148599Y-90298253D01*
X130128893Y-90312868D01*
X130107850Y-90325480D01*
X130085671Y-90335970D01*
X130062572Y-90344235D01*
X130038773Y-90350196D01*
X130014505Y-90353796D01*
X129990001Y-90355000D01*
X129089999Y-90355000D01*
X129065495Y-90353796D01*
X129041227Y-90350196D01*
X129017428Y-90344235D01*
X128994329Y-90335970D01*
X128972150Y-90325480D01*
X128951107Y-90312868D01*
X128931401Y-90298253D01*
X128913223Y-90281777D01*
X128896747Y-90263599D01*
X128882132Y-90243893D01*
X128869520Y-90222850D01*
X128859030Y-90200671D01*
X128850765Y-90177572D01*
X128844804Y-90153773D01*
X128841204Y-90129505D01*
X128840000Y-90105001D01*
X128840000Y-89454999D01*
X128841204Y-89430495D01*
X128844804Y-89406227D01*
X128850765Y-89382428D01*
X128859030Y-89359329D01*
X128869520Y-89337150D01*
X128882132Y-89316107D01*
X128896747Y-89296401D01*
X128913223Y-89278223D01*
X128931401Y-89261747D01*
X128951107Y-89247132D01*
X128972150Y-89234520D01*
X128994329Y-89224030D01*
X129017428Y-89215765D01*
X129041227Y-89209804D01*
X129065495Y-89206204D01*
X129089999Y-89205000D01*
X129990001Y-89205000D01*
X130014505Y-89206204D01*
X130014505Y-89206204D01*
G37*
D14*
X129540000Y-89780000D03*
D13*
G36*
X130014505Y-99511204D02*
G01*
X130038773Y-99514804D01*
X130062572Y-99520765D01*
X130085671Y-99529030D01*
X130107850Y-99539520D01*
X130128893Y-99552132D01*
X130148599Y-99566747D01*
X130166777Y-99583223D01*
X130183253Y-99601401D01*
X130197868Y-99621107D01*
X130210480Y-99642150D01*
X130220970Y-99664329D01*
X130229235Y-99687428D01*
X130235196Y-99711227D01*
X130238796Y-99735495D01*
X130240000Y-99759999D01*
X130240000Y-100410001D01*
X130238796Y-100434505D01*
X130235196Y-100458773D01*
X130229235Y-100482572D01*
X130220970Y-100505671D01*
X130210480Y-100527850D01*
X130197868Y-100548893D01*
X130183253Y-100568599D01*
X130166777Y-100586777D01*
X130148599Y-100603253D01*
X130128893Y-100617868D01*
X130107850Y-100630480D01*
X130085671Y-100640970D01*
X130062572Y-100649235D01*
X130038773Y-100655196D01*
X130014505Y-100658796D01*
X129990001Y-100660000D01*
X129089999Y-100660000D01*
X129065495Y-100658796D01*
X129041227Y-100655196D01*
X129017428Y-100649235D01*
X128994329Y-100640970D01*
X128972150Y-100630480D01*
X128951107Y-100617868D01*
X128931401Y-100603253D01*
X128913223Y-100586777D01*
X128896747Y-100568599D01*
X128882132Y-100548893D01*
X128869520Y-100527850D01*
X128859030Y-100505671D01*
X128850765Y-100482572D01*
X128844804Y-100458773D01*
X128841204Y-100434505D01*
X128840000Y-100410001D01*
X128840000Y-99759999D01*
X128841204Y-99735495D01*
X128844804Y-99711227D01*
X128850765Y-99687428D01*
X128859030Y-99664329D01*
X128869520Y-99642150D01*
X128882132Y-99621107D01*
X128896747Y-99601401D01*
X128913223Y-99583223D01*
X128931401Y-99566747D01*
X128951107Y-99552132D01*
X128972150Y-99539520D01*
X128994329Y-99529030D01*
X129017428Y-99520765D01*
X129041227Y-99514804D01*
X129065495Y-99511204D01*
X129089999Y-99510000D01*
X129990001Y-99510000D01*
X130014505Y-99511204D01*
X130014505Y-99511204D01*
G37*
D14*
X129540000Y-100085000D03*
D13*
G36*
X130014505Y-97461204D02*
G01*
X130038773Y-97464804D01*
X130062572Y-97470765D01*
X130085671Y-97479030D01*
X130107850Y-97489520D01*
X130128893Y-97502132D01*
X130148599Y-97516747D01*
X130166777Y-97533223D01*
X130183253Y-97551401D01*
X130197868Y-97571107D01*
X130210480Y-97592150D01*
X130220970Y-97614329D01*
X130229235Y-97637428D01*
X130235196Y-97661227D01*
X130238796Y-97685495D01*
X130240000Y-97709999D01*
X130240000Y-98360001D01*
X130238796Y-98384505D01*
X130235196Y-98408773D01*
X130229235Y-98432572D01*
X130220970Y-98455671D01*
X130210480Y-98477850D01*
X130197868Y-98498893D01*
X130183253Y-98518599D01*
X130166777Y-98536777D01*
X130148599Y-98553253D01*
X130128893Y-98567868D01*
X130107850Y-98580480D01*
X130085671Y-98590970D01*
X130062572Y-98599235D01*
X130038773Y-98605196D01*
X130014505Y-98608796D01*
X129990001Y-98610000D01*
X129089999Y-98610000D01*
X129065495Y-98608796D01*
X129041227Y-98605196D01*
X129017428Y-98599235D01*
X128994329Y-98590970D01*
X128972150Y-98580480D01*
X128951107Y-98567868D01*
X128931401Y-98553253D01*
X128913223Y-98536777D01*
X128896747Y-98518599D01*
X128882132Y-98498893D01*
X128869520Y-98477850D01*
X128859030Y-98455671D01*
X128850765Y-98432572D01*
X128844804Y-98408773D01*
X128841204Y-98384505D01*
X128840000Y-98360001D01*
X128840000Y-97709999D01*
X128841204Y-97685495D01*
X128844804Y-97661227D01*
X128850765Y-97637428D01*
X128859030Y-97614329D01*
X128869520Y-97592150D01*
X128882132Y-97571107D01*
X128896747Y-97551401D01*
X128913223Y-97533223D01*
X128931401Y-97516747D01*
X128951107Y-97502132D01*
X128972150Y-97489520D01*
X128994329Y-97479030D01*
X129017428Y-97470765D01*
X129041227Y-97464804D01*
X129065495Y-97461204D01*
X129089999Y-97460000D01*
X129990001Y-97460000D01*
X130014505Y-97461204D01*
X130014505Y-97461204D01*
G37*
D14*
X129540000Y-98035000D03*
D13*
G36*
X188434505Y-96191204D02*
G01*
X188458773Y-96194804D01*
X188482572Y-96200765D01*
X188505671Y-96209030D01*
X188527850Y-96219520D01*
X188548893Y-96232132D01*
X188568599Y-96246747D01*
X188586777Y-96263223D01*
X188603253Y-96281401D01*
X188617868Y-96301107D01*
X188630480Y-96322150D01*
X188640970Y-96344329D01*
X188649235Y-96367428D01*
X188655196Y-96391227D01*
X188658796Y-96415495D01*
X188660000Y-96439999D01*
X188660000Y-97090001D01*
X188658796Y-97114505D01*
X188655196Y-97138773D01*
X188649235Y-97162572D01*
X188640970Y-97185671D01*
X188630480Y-97207850D01*
X188617868Y-97228893D01*
X188603253Y-97248599D01*
X188586777Y-97266777D01*
X188568599Y-97283253D01*
X188548893Y-97297868D01*
X188527850Y-97310480D01*
X188505671Y-97320970D01*
X188482572Y-97329235D01*
X188458773Y-97335196D01*
X188434505Y-97338796D01*
X188410001Y-97340000D01*
X187509999Y-97340000D01*
X187485495Y-97338796D01*
X187461227Y-97335196D01*
X187437428Y-97329235D01*
X187414329Y-97320970D01*
X187392150Y-97310480D01*
X187371107Y-97297868D01*
X187351401Y-97283253D01*
X187333223Y-97266777D01*
X187316747Y-97248599D01*
X187302132Y-97228893D01*
X187289520Y-97207850D01*
X187279030Y-97185671D01*
X187270765Y-97162572D01*
X187264804Y-97138773D01*
X187261204Y-97114505D01*
X187260000Y-97090001D01*
X187260000Y-96439999D01*
X187261204Y-96415495D01*
X187264804Y-96391227D01*
X187270765Y-96367428D01*
X187279030Y-96344329D01*
X187289520Y-96322150D01*
X187302132Y-96301107D01*
X187316747Y-96281401D01*
X187333223Y-96263223D01*
X187351401Y-96246747D01*
X187371107Y-96232132D01*
X187392150Y-96219520D01*
X187414329Y-96209030D01*
X187437428Y-96200765D01*
X187461227Y-96194804D01*
X187485495Y-96191204D01*
X187509999Y-96190000D01*
X188410001Y-96190000D01*
X188434505Y-96191204D01*
X188434505Y-96191204D01*
G37*
D14*
X187960000Y-96765000D03*
D13*
G36*
X188434505Y-98241204D02*
G01*
X188458773Y-98244804D01*
X188482572Y-98250765D01*
X188505671Y-98259030D01*
X188527850Y-98269520D01*
X188548893Y-98282132D01*
X188568599Y-98296747D01*
X188586777Y-98313223D01*
X188603253Y-98331401D01*
X188617868Y-98351107D01*
X188630480Y-98372150D01*
X188640970Y-98394329D01*
X188649235Y-98417428D01*
X188655196Y-98441227D01*
X188658796Y-98465495D01*
X188660000Y-98489999D01*
X188660000Y-99140001D01*
X188658796Y-99164505D01*
X188655196Y-99188773D01*
X188649235Y-99212572D01*
X188640970Y-99235671D01*
X188630480Y-99257850D01*
X188617868Y-99278893D01*
X188603253Y-99298599D01*
X188586777Y-99316777D01*
X188568599Y-99333253D01*
X188548893Y-99347868D01*
X188527850Y-99360480D01*
X188505671Y-99370970D01*
X188482572Y-99379235D01*
X188458773Y-99385196D01*
X188434505Y-99388796D01*
X188410001Y-99390000D01*
X187509999Y-99390000D01*
X187485495Y-99388796D01*
X187461227Y-99385196D01*
X187437428Y-99379235D01*
X187414329Y-99370970D01*
X187392150Y-99360480D01*
X187371107Y-99347868D01*
X187351401Y-99333253D01*
X187333223Y-99316777D01*
X187316747Y-99298599D01*
X187302132Y-99278893D01*
X187289520Y-99257850D01*
X187279030Y-99235671D01*
X187270765Y-99212572D01*
X187264804Y-99188773D01*
X187261204Y-99164505D01*
X187260000Y-99140001D01*
X187260000Y-98489999D01*
X187261204Y-98465495D01*
X187264804Y-98441227D01*
X187270765Y-98417428D01*
X187279030Y-98394329D01*
X187289520Y-98372150D01*
X187302132Y-98351107D01*
X187316747Y-98331401D01*
X187333223Y-98313223D01*
X187351401Y-98296747D01*
X187371107Y-98282132D01*
X187392150Y-98269520D01*
X187414329Y-98259030D01*
X187437428Y-98250765D01*
X187461227Y-98244804D01*
X187485495Y-98241204D01*
X187509999Y-98240000D01*
X188410001Y-98240000D01*
X188434505Y-98241204D01*
X188434505Y-98241204D01*
G37*
D14*
X187960000Y-98815000D03*
D13*
G36*
X188434505Y-91891204D02*
G01*
X188458773Y-91894804D01*
X188482572Y-91900765D01*
X188505671Y-91909030D01*
X188527850Y-91919520D01*
X188548893Y-91932132D01*
X188568599Y-91946747D01*
X188586777Y-91963223D01*
X188603253Y-91981401D01*
X188617868Y-92001107D01*
X188630480Y-92022150D01*
X188640970Y-92044329D01*
X188649235Y-92067428D01*
X188655196Y-92091227D01*
X188658796Y-92115495D01*
X188660000Y-92139999D01*
X188660000Y-92790001D01*
X188658796Y-92814505D01*
X188655196Y-92838773D01*
X188649235Y-92862572D01*
X188640970Y-92885671D01*
X188630480Y-92907850D01*
X188617868Y-92928893D01*
X188603253Y-92948599D01*
X188586777Y-92966777D01*
X188568599Y-92983253D01*
X188548893Y-92997868D01*
X188527850Y-93010480D01*
X188505671Y-93020970D01*
X188482572Y-93029235D01*
X188458773Y-93035196D01*
X188434505Y-93038796D01*
X188410001Y-93040000D01*
X187509999Y-93040000D01*
X187485495Y-93038796D01*
X187461227Y-93035196D01*
X187437428Y-93029235D01*
X187414329Y-93020970D01*
X187392150Y-93010480D01*
X187371107Y-92997868D01*
X187351401Y-92983253D01*
X187333223Y-92966777D01*
X187316747Y-92948599D01*
X187302132Y-92928893D01*
X187289520Y-92907850D01*
X187279030Y-92885671D01*
X187270765Y-92862572D01*
X187264804Y-92838773D01*
X187261204Y-92814505D01*
X187260000Y-92790001D01*
X187260000Y-92139999D01*
X187261204Y-92115495D01*
X187264804Y-92091227D01*
X187270765Y-92067428D01*
X187279030Y-92044329D01*
X187289520Y-92022150D01*
X187302132Y-92001107D01*
X187316747Y-91981401D01*
X187333223Y-91963223D01*
X187351401Y-91946747D01*
X187371107Y-91932132D01*
X187392150Y-91919520D01*
X187414329Y-91909030D01*
X187437428Y-91900765D01*
X187461227Y-91894804D01*
X187485495Y-91891204D01*
X187509999Y-91890000D01*
X188410001Y-91890000D01*
X188434505Y-91891204D01*
X188434505Y-91891204D01*
G37*
D14*
X187960000Y-92465000D03*
D13*
G36*
X188434505Y-89841204D02*
G01*
X188458773Y-89844804D01*
X188482572Y-89850765D01*
X188505671Y-89859030D01*
X188527850Y-89869520D01*
X188548893Y-89882132D01*
X188568599Y-89896747D01*
X188586777Y-89913223D01*
X188603253Y-89931401D01*
X188617868Y-89951107D01*
X188630480Y-89972150D01*
X188640970Y-89994329D01*
X188649235Y-90017428D01*
X188655196Y-90041227D01*
X188658796Y-90065495D01*
X188660000Y-90089999D01*
X188660000Y-90740001D01*
X188658796Y-90764505D01*
X188655196Y-90788773D01*
X188649235Y-90812572D01*
X188640970Y-90835671D01*
X188630480Y-90857850D01*
X188617868Y-90878893D01*
X188603253Y-90898599D01*
X188586777Y-90916777D01*
X188568599Y-90933253D01*
X188548893Y-90947868D01*
X188527850Y-90960480D01*
X188505671Y-90970970D01*
X188482572Y-90979235D01*
X188458773Y-90985196D01*
X188434505Y-90988796D01*
X188410001Y-90990000D01*
X187509999Y-90990000D01*
X187485495Y-90988796D01*
X187461227Y-90985196D01*
X187437428Y-90979235D01*
X187414329Y-90970970D01*
X187392150Y-90960480D01*
X187371107Y-90947868D01*
X187351401Y-90933253D01*
X187333223Y-90916777D01*
X187316747Y-90898599D01*
X187302132Y-90878893D01*
X187289520Y-90857850D01*
X187279030Y-90835671D01*
X187270765Y-90812572D01*
X187264804Y-90788773D01*
X187261204Y-90764505D01*
X187260000Y-90740001D01*
X187260000Y-90089999D01*
X187261204Y-90065495D01*
X187264804Y-90041227D01*
X187270765Y-90017428D01*
X187279030Y-89994329D01*
X187289520Y-89972150D01*
X187302132Y-89951107D01*
X187316747Y-89931401D01*
X187333223Y-89913223D01*
X187351401Y-89896747D01*
X187371107Y-89882132D01*
X187392150Y-89869520D01*
X187414329Y-89859030D01*
X187437428Y-89850765D01*
X187461227Y-89844804D01*
X187485495Y-89841204D01*
X187509999Y-89840000D01*
X188410001Y-89840000D01*
X188434505Y-89841204D01*
X188434505Y-89841204D01*
G37*
D14*
X187960000Y-90415000D03*
D15*
X157300000Y-109037500D03*
X160200000Y-109037500D03*
X160200000Y-106862500D03*
X157300000Y-106862500D03*
D16*
X176515000Y-111315000D03*
X176515000Y-110515000D03*
X176515000Y-109715000D03*
X176515000Y-108915000D03*
X176515000Y-108115000D03*
X176515000Y-107315000D03*
X176515000Y-106515000D03*
X176515000Y-105715000D03*
X176515000Y-104915000D03*
X176515000Y-104115000D03*
X176515000Y-103315000D03*
D17*
X174815000Y-101615000D03*
X174015000Y-101615000D03*
X173215000Y-101615000D03*
X172415000Y-101615000D03*
X171615000Y-101615000D03*
X170815000Y-101615000D03*
X170015000Y-101615000D03*
X169215000Y-101615000D03*
X168415000Y-101615000D03*
X167615000Y-101615000D03*
X166815000Y-101615000D03*
D16*
X165115000Y-103315000D03*
X165115000Y-104115000D03*
X165115000Y-104915000D03*
X165115000Y-105715000D03*
X165115000Y-106515000D03*
X165115000Y-107315000D03*
X165115000Y-108115000D03*
X165115000Y-108915000D03*
X165115000Y-109715000D03*
X165115000Y-110515000D03*
X165115000Y-111315000D03*
D17*
X166815000Y-113015000D03*
X167615000Y-113015000D03*
X168415000Y-113015000D03*
X169215000Y-113015000D03*
X170015000Y-113015000D03*
X170815000Y-113015000D03*
X171615000Y-113015000D03*
X172415000Y-113015000D03*
X173215000Y-113015000D03*
X174015000Y-113015000D03*
X174815000Y-113015000D03*
D10*
X147260000Y-116840000D03*
D11*
X139700000Y-114300000D03*
D12*
X143510000Y-116840000D03*
X137160000Y-119380000D03*
D10*
X133410000Y-119380000D03*
X166310000Y-116840000D03*
D11*
X158750000Y-114300000D03*
D12*
X162560000Y-116840000D03*
X156210000Y-119380000D03*
D10*
X152460000Y-119380000D03*
X185360000Y-116840000D03*
D11*
X177800000Y-114300000D03*
D12*
X181610000Y-116840000D03*
X175260000Y-119380000D03*
D10*
X171510000Y-119380000D03*
D18*
X132200000Y-92750000D03*
D19*
X132200000Y-95250000D03*
X132200000Y-97750000D03*
D20*
X139700000Y-89650000D03*
X139700000Y-100850000D03*
D19*
X146700000Y-92750000D03*
X146700000Y-97750000D03*
D18*
X185300000Y-97115000D03*
D19*
X185300000Y-94615000D03*
X185300000Y-92115000D03*
D20*
X177800000Y-100215000D03*
X177800000Y-89015000D03*
D19*
X170800000Y-97115000D03*
X170800000Y-92115000D03*
X140820000Y-105410000D03*
X140820000Y-109910000D03*
X147320000Y-105410000D03*
X147320000Y-109910000D03*
D13*
G36*
X175219505Y-96456204D02*
G01*
X175243773Y-96459804D01*
X175267572Y-96465765D01*
X175290671Y-96474030D01*
X175312850Y-96484520D01*
X175333893Y-96497132D01*
X175353599Y-96511747D01*
X175371777Y-96528223D01*
X175388253Y-96546401D01*
X175402868Y-96566107D01*
X175415480Y-96587150D01*
X175425970Y-96609329D01*
X175434235Y-96632428D01*
X175440196Y-96656227D01*
X175443796Y-96680495D01*
X175445000Y-96704999D01*
X175445000Y-97605001D01*
X175443796Y-97629505D01*
X175440196Y-97653773D01*
X175434235Y-97677572D01*
X175425970Y-97700671D01*
X175415480Y-97722850D01*
X175402868Y-97743893D01*
X175388253Y-97763599D01*
X175371777Y-97781777D01*
X175353599Y-97798253D01*
X175333893Y-97812868D01*
X175312850Y-97825480D01*
X175290671Y-97835970D01*
X175267572Y-97844235D01*
X175243773Y-97850196D01*
X175219505Y-97853796D01*
X175195001Y-97855000D01*
X174544999Y-97855000D01*
X174520495Y-97853796D01*
X174496227Y-97850196D01*
X174472428Y-97844235D01*
X174449329Y-97835970D01*
X174427150Y-97825480D01*
X174406107Y-97812868D01*
X174386401Y-97798253D01*
X174368223Y-97781777D01*
X174351747Y-97763599D01*
X174337132Y-97743893D01*
X174324520Y-97722850D01*
X174314030Y-97700671D01*
X174305765Y-97677572D01*
X174299804Y-97653773D01*
X174296204Y-97629505D01*
X174295000Y-97605001D01*
X174295000Y-96704999D01*
X174296204Y-96680495D01*
X174299804Y-96656227D01*
X174305765Y-96632428D01*
X174314030Y-96609329D01*
X174324520Y-96587150D01*
X174337132Y-96566107D01*
X174351747Y-96546401D01*
X174368223Y-96528223D01*
X174386401Y-96511747D01*
X174406107Y-96497132D01*
X174427150Y-96484520D01*
X174449329Y-96474030D01*
X174472428Y-96465765D01*
X174496227Y-96459804D01*
X174520495Y-96456204D01*
X174544999Y-96455000D01*
X175195001Y-96455000D01*
X175219505Y-96456204D01*
X175219505Y-96456204D01*
G37*
D14*
X174870000Y-97155000D03*
D13*
G36*
X177269505Y-96456204D02*
G01*
X177293773Y-96459804D01*
X177317572Y-96465765D01*
X177340671Y-96474030D01*
X177362850Y-96484520D01*
X177383893Y-96497132D01*
X177403599Y-96511747D01*
X177421777Y-96528223D01*
X177438253Y-96546401D01*
X177452868Y-96566107D01*
X177465480Y-96587150D01*
X177475970Y-96609329D01*
X177484235Y-96632428D01*
X177490196Y-96656227D01*
X177493796Y-96680495D01*
X177495000Y-96704999D01*
X177495000Y-97605001D01*
X177493796Y-97629505D01*
X177490196Y-97653773D01*
X177484235Y-97677572D01*
X177475970Y-97700671D01*
X177465480Y-97722850D01*
X177452868Y-97743893D01*
X177438253Y-97763599D01*
X177421777Y-97781777D01*
X177403599Y-97798253D01*
X177383893Y-97812868D01*
X177362850Y-97825480D01*
X177340671Y-97835970D01*
X177317572Y-97844235D01*
X177293773Y-97850196D01*
X177269505Y-97853796D01*
X177245001Y-97855000D01*
X176594999Y-97855000D01*
X176570495Y-97853796D01*
X176546227Y-97850196D01*
X176522428Y-97844235D01*
X176499329Y-97835970D01*
X176477150Y-97825480D01*
X176456107Y-97812868D01*
X176436401Y-97798253D01*
X176418223Y-97781777D01*
X176401747Y-97763599D01*
X176387132Y-97743893D01*
X176374520Y-97722850D01*
X176364030Y-97700671D01*
X176355765Y-97677572D01*
X176349804Y-97653773D01*
X176346204Y-97629505D01*
X176345000Y-97605001D01*
X176345000Y-96704999D01*
X176346204Y-96680495D01*
X176349804Y-96656227D01*
X176355765Y-96632428D01*
X176364030Y-96609329D01*
X176374520Y-96587150D01*
X176387132Y-96566107D01*
X176401747Y-96546401D01*
X176418223Y-96528223D01*
X176436401Y-96511747D01*
X176456107Y-96497132D01*
X176477150Y-96484520D01*
X176499329Y-96474030D01*
X176522428Y-96465765D01*
X176546227Y-96459804D01*
X176570495Y-96456204D01*
X176594999Y-96455000D01*
X177245001Y-96455000D01*
X177269505Y-96456204D01*
X177269505Y-96456204D01*
G37*
D14*
X176920000Y-97155000D03*
D13*
G36*
X172679505Y-122491204D02*
G01*
X172703773Y-122494804D01*
X172727572Y-122500765D01*
X172750671Y-122509030D01*
X172772850Y-122519520D01*
X172793893Y-122532132D01*
X172813599Y-122546747D01*
X172831777Y-122563223D01*
X172848253Y-122581401D01*
X172862868Y-122601107D01*
X172875480Y-122622150D01*
X172885970Y-122644329D01*
X172894235Y-122667428D01*
X172900196Y-122691227D01*
X172903796Y-122715495D01*
X172905000Y-122739999D01*
X172905000Y-123640001D01*
X172903796Y-123664505D01*
X172900196Y-123688773D01*
X172894235Y-123712572D01*
X172885970Y-123735671D01*
X172875480Y-123757850D01*
X172862868Y-123778893D01*
X172848253Y-123798599D01*
X172831777Y-123816777D01*
X172813599Y-123833253D01*
X172793893Y-123847868D01*
X172772850Y-123860480D01*
X172750671Y-123870970D01*
X172727572Y-123879235D01*
X172703773Y-123885196D01*
X172679505Y-123888796D01*
X172655001Y-123890000D01*
X172004999Y-123890000D01*
X171980495Y-123888796D01*
X171956227Y-123885196D01*
X171932428Y-123879235D01*
X171909329Y-123870970D01*
X171887150Y-123860480D01*
X171866107Y-123847868D01*
X171846401Y-123833253D01*
X171828223Y-123816777D01*
X171811747Y-123798599D01*
X171797132Y-123778893D01*
X171784520Y-123757850D01*
X171774030Y-123735671D01*
X171765765Y-123712572D01*
X171759804Y-123688773D01*
X171756204Y-123664505D01*
X171755000Y-123640001D01*
X171755000Y-122739999D01*
X171756204Y-122715495D01*
X171759804Y-122691227D01*
X171765765Y-122667428D01*
X171774030Y-122644329D01*
X171784520Y-122622150D01*
X171797132Y-122601107D01*
X171811747Y-122581401D01*
X171828223Y-122563223D01*
X171846401Y-122546747D01*
X171866107Y-122532132D01*
X171887150Y-122519520D01*
X171909329Y-122509030D01*
X171932428Y-122500765D01*
X171956227Y-122494804D01*
X171980495Y-122491204D01*
X172004999Y-122490000D01*
X172655001Y-122490000D01*
X172679505Y-122491204D01*
X172679505Y-122491204D01*
G37*
D14*
X172330000Y-123190000D03*
D13*
G36*
X174729505Y-122491204D02*
G01*
X174753773Y-122494804D01*
X174777572Y-122500765D01*
X174800671Y-122509030D01*
X174822850Y-122519520D01*
X174843893Y-122532132D01*
X174863599Y-122546747D01*
X174881777Y-122563223D01*
X174898253Y-122581401D01*
X174912868Y-122601107D01*
X174925480Y-122622150D01*
X174935970Y-122644329D01*
X174944235Y-122667428D01*
X174950196Y-122691227D01*
X174953796Y-122715495D01*
X174955000Y-122739999D01*
X174955000Y-123640001D01*
X174953796Y-123664505D01*
X174950196Y-123688773D01*
X174944235Y-123712572D01*
X174935970Y-123735671D01*
X174925480Y-123757850D01*
X174912868Y-123778893D01*
X174898253Y-123798599D01*
X174881777Y-123816777D01*
X174863599Y-123833253D01*
X174843893Y-123847868D01*
X174822850Y-123860480D01*
X174800671Y-123870970D01*
X174777572Y-123879235D01*
X174753773Y-123885196D01*
X174729505Y-123888796D01*
X174705001Y-123890000D01*
X174054999Y-123890000D01*
X174030495Y-123888796D01*
X174006227Y-123885196D01*
X173982428Y-123879235D01*
X173959329Y-123870970D01*
X173937150Y-123860480D01*
X173916107Y-123847868D01*
X173896401Y-123833253D01*
X173878223Y-123816777D01*
X173861747Y-123798599D01*
X173847132Y-123778893D01*
X173834520Y-123757850D01*
X173824030Y-123735671D01*
X173815765Y-123712572D01*
X173809804Y-123688773D01*
X173806204Y-123664505D01*
X173805000Y-123640001D01*
X173805000Y-122739999D01*
X173806204Y-122715495D01*
X173809804Y-122691227D01*
X173815765Y-122667428D01*
X173824030Y-122644329D01*
X173834520Y-122622150D01*
X173847132Y-122601107D01*
X173861747Y-122581401D01*
X173878223Y-122563223D01*
X173896401Y-122546747D01*
X173916107Y-122532132D01*
X173937150Y-122519520D01*
X173959329Y-122509030D01*
X173982428Y-122500765D01*
X174006227Y-122494804D01*
X174030495Y-122491204D01*
X174054999Y-122490000D01*
X174705001Y-122490000D01*
X174729505Y-122491204D01*
X174729505Y-122491204D01*
G37*
D14*
X174380000Y-123190000D03*
D13*
G36*
X172432505Y-116402204D02*
G01*
X172456773Y-116405804D01*
X172480572Y-116411765D01*
X172503671Y-116420030D01*
X172525850Y-116430520D01*
X172546893Y-116443132D01*
X172566599Y-116457747D01*
X172584777Y-116474223D01*
X172601253Y-116492401D01*
X172615868Y-116512107D01*
X172628480Y-116533150D01*
X172638970Y-116555329D01*
X172647235Y-116578428D01*
X172653196Y-116602227D01*
X172656796Y-116626495D01*
X172658000Y-116650999D01*
X172658000Y-117301001D01*
X172656796Y-117325505D01*
X172653196Y-117349773D01*
X172647235Y-117373572D01*
X172638970Y-117396671D01*
X172628480Y-117418850D01*
X172615868Y-117439893D01*
X172601253Y-117459599D01*
X172584777Y-117477777D01*
X172566599Y-117494253D01*
X172546893Y-117508868D01*
X172525850Y-117521480D01*
X172503671Y-117531970D01*
X172480572Y-117540235D01*
X172456773Y-117546196D01*
X172432505Y-117549796D01*
X172408001Y-117551000D01*
X171507999Y-117551000D01*
X171483495Y-117549796D01*
X171459227Y-117546196D01*
X171435428Y-117540235D01*
X171412329Y-117531970D01*
X171390150Y-117521480D01*
X171369107Y-117508868D01*
X171349401Y-117494253D01*
X171331223Y-117477777D01*
X171314747Y-117459599D01*
X171300132Y-117439893D01*
X171287520Y-117418850D01*
X171277030Y-117396671D01*
X171268765Y-117373572D01*
X171262804Y-117349773D01*
X171259204Y-117325505D01*
X171258000Y-117301001D01*
X171258000Y-116650999D01*
X171259204Y-116626495D01*
X171262804Y-116602227D01*
X171268765Y-116578428D01*
X171277030Y-116555329D01*
X171287520Y-116533150D01*
X171300132Y-116512107D01*
X171314747Y-116492401D01*
X171331223Y-116474223D01*
X171349401Y-116457747D01*
X171369107Y-116443132D01*
X171390150Y-116430520D01*
X171412329Y-116420030D01*
X171435428Y-116411765D01*
X171459227Y-116405804D01*
X171483495Y-116402204D01*
X171507999Y-116401000D01*
X172408001Y-116401000D01*
X172432505Y-116402204D01*
X172432505Y-116402204D01*
G37*
D14*
X171958000Y-116976000D03*
D13*
G36*
X172432505Y-114352204D02*
G01*
X172456773Y-114355804D01*
X172480572Y-114361765D01*
X172503671Y-114370030D01*
X172525850Y-114380520D01*
X172546893Y-114393132D01*
X172566599Y-114407747D01*
X172584777Y-114424223D01*
X172601253Y-114442401D01*
X172615868Y-114462107D01*
X172628480Y-114483150D01*
X172638970Y-114505329D01*
X172647235Y-114528428D01*
X172653196Y-114552227D01*
X172656796Y-114576495D01*
X172658000Y-114600999D01*
X172658000Y-115251001D01*
X172656796Y-115275505D01*
X172653196Y-115299773D01*
X172647235Y-115323572D01*
X172638970Y-115346671D01*
X172628480Y-115368850D01*
X172615868Y-115389893D01*
X172601253Y-115409599D01*
X172584777Y-115427777D01*
X172566599Y-115444253D01*
X172546893Y-115458868D01*
X172525850Y-115471480D01*
X172503671Y-115481970D01*
X172480572Y-115490235D01*
X172456773Y-115496196D01*
X172432505Y-115499796D01*
X172408001Y-115501000D01*
X171507999Y-115501000D01*
X171483495Y-115499796D01*
X171459227Y-115496196D01*
X171435428Y-115490235D01*
X171412329Y-115481970D01*
X171390150Y-115471480D01*
X171369107Y-115458868D01*
X171349401Y-115444253D01*
X171331223Y-115427777D01*
X171314747Y-115409599D01*
X171300132Y-115389893D01*
X171287520Y-115368850D01*
X171277030Y-115346671D01*
X171268765Y-115323572D01*
X171262804Y-115299773D01*
X171259204Y-115275505D01*
X171258000Y-115251001D01*
X171258000Y-114600999D01*
X171259204Y-114576495D01*
X171262804Y-114552227D01*
X171268765Y-114528428D01*
X171277030Y-114505329D01*
X171287520Y-114483150D01*
X171300132Y-114462107D01*
X171314747Y-114442401D01*
X171331223Y-114424223D01*
X171349401Y-114407747D01*
X171369107Y-114393132D01*
X171390150Y-114380520D01*
X171412329Y-114370030D01*
X171435428Y-114361765D01*
X171459227Y-114355804D01*
X171483495Y-114352204D01*
X171507999Y-114351000D01*
X172408001Y-114351000D01*
X172432505Y-114352204D01*
X172432505Y-114352204D01*
G37*
D14*
X171958000Y-114926000D03*
D13*
G36*
X152874505Y-92526204D02*
G01*
X152898773Y-92529804D01*
X152922572Y-92535765D01*
X152945671Y-92544030D01*
X152967850Y-92554520D01*
X152988893Y-92567132D01*
X153008599Y-92581747D01*
X153026777Y-92598223D01*
X153043253Y-92616401D01*
X153057868Y-92636107D01*
X153070480Y-92657150D01*
X153080970Y-92679329D01*
X153089235Y-92702428D01*
X153095196Y-92726227D01*
X153098796Y-92750495D01*
X153100000Y-92774999D01*
X153100000Y-93425001D01*
X153098796Y-93449505D01*
X153095196Y-93473773D01*
X153089235Y-93497572D01*
X153080970Y-93520671D01*
X153070480Y-93542850D01*
X153057868Y-93563893D01*
X153043253Y-93583599D01*
X153026777Y-93601777D01*
X153008599Y-93618253D01*
X152988893Y-93632868D01*
X152967850Y-93645480D01*
X152945671Y-93655970D01*
X152922572Y-93664235D01*
X152898773Y-93670196D01*
X152874505Y-93673796D01*
X152850001Y-93675000D01*
X151949999Y-93675000D01*
X151925495Y-93673796D01*
X151901227Y-93670196D01*
X151877428Y-93664235D01*
X151854329Y-93655970D01*
X151832150Y-93645480D01*
X151811107Y-93632868D01*
X151791401Y-93618253D01*
X151773223Y-93601777D01*
X151756747Y-93583599D01*
X151742132Y-93563893D01*
X151729520Y-93542850D01*
X151719030Y-93520671D01*
X151710765Y-93497572D01*
X151704804Y-93473773D01*
X151701204Y-93449505D01*
X151700000Y-93425001D01*
X151700000Y-92774999D01*
X151701204Y-92750495D01*
X151704804Y-92726227D01*
X151710765Y-92702428D01*
X151719030Y-92679329D01*
X151729520Y-92657150D01*
X151742132Y-92636107D01*
X151756747Y-92616401D01*
X151773223Y-92598223D01*
X151791401Y-92581747D01*
X151811107Y-92567132D01*
X151832150Y-92554520D01*
X151854329Y-92544030D01*
X151877428Y-92535765D01*
X151901227Y-92529804D01*
X151925495Y-92526204D01*
X151949999Y-92525000D01*
X152850001Y-92525000D01*
X152874505Y-92526204D01*
X152874505Y-92526204D01*
G37*
D14*
X152400000Y-93100000D03*
D13*
G36*
X152874505Y-90476204D02*
G01*
X152898773Y-90479804D01*
X152922572Y-90485765D01*
X152945671Y-90494030D01*
X152967850Y-90504520D01*
X152988893Y-90517132D01*
X153008599Y-90531747D01*
X153026777Y-90548223D01*
X153043253Y-90566401D01*
X153057868Y-90586107D01*
X153070480Y-90607150D01*
X153080970Y-90629329D01*
X153089235Y-90652428D01*
X153095196Y-90676227D01*
X153098796Y-90700495D01*
X153100000Y-90724999D01*
X153100000Y-91375001D01*
X153098796Y-91399505D01*
X153095196Y-91423773D01*
X153089235Y-91447572D01*
X153080970Y-91470671D01*
X153070480Y-91492850D01*
X153057868Y-91513893D01*
X153043253Y-91533599D01*
X153026777Y-91551777D01*
X153008599Y-91568253D01*
X152988893Y-91582868D01*
X152967850Y-91595480D01*
X152945671Y-91605970D01*
X152922572Y-91614235D01*
X152898773Y-91620196D01*
X152874505Y-91623796D01*
X152850001Y-91625000D01*
X151949999Y-91625000D01*
X151925495Y-91623796D01*
X151901227Y-91620196D01*
X151877428Y-91614235D01*
X151854329Y-91605970D01*
X151832150Y-91595480D01*
X151811107Y-91582868D01*
X151791401Y-91568253D01*
X151773223Y-91551777D01*
X151756747Y-91533599D01*
X151742132Y-91513893D01*
X151729520Y-91492850D01*
X151719030Y-91470671D01*
X151710765Y-91447572D01*
X151704804Y-91423773D01*
X151701204Y-91399505D01*
X151700000Y-91375001D01*
X151700000Y-90724999D01*
X151701204Y-90700495D01*
X151704804Y-90676227D01*
X151710765Y-90652428D01*
X151719030Y-90629329D01*
X151729520Y-90607150D01*
X151742132Y-90586107D01*
X151756747Y-90566401D01*
X151773223Y-90548223D01*
X151791401Y-90531747D01*
X151811107Y-90517132D01*
X151832150Y-90504520D01*
X151854329Y-90494030D01*
X151877428Y-90485765D01*
X151901227Y-90479804D01*
X151925495Y-90476204D01*
X151949999Y-90475000D01*
X152850001Y-90475000D01*
X152874505Y-90476204D01*
X152874505Y-90476204D01*
G37*
D14*
X152400000Y-91050000D03*
D13*
G36*
X143469505Y-111696204D02*
G01*
X143493773Y-111699804D01*
X143517572Y-111705765D01*
X143540671Y-111714030D01*
X143562850Y-111724520D01*
X143583893Y-111737132D01*
X143603599Y-111751747D01*
X143621777Y-111768223D01*
X143638253Y-111786401D01*
X143652868Y-111806107D01*
X143665480Y-111827150D01*
X143675970Y-111849329D01*
X143684235Y-111872428D01*
X143690196Y-111896227D01*
X143693796Y-111920495D01*
X143695000Y-111944999D01*
X143695000Y-112845001D01*
X143693796Y-112869505D01*
X143690196Y-112893773D01*
X143684235Y-112917572D01*
X143675970Y-112940671D01*
X143665480Y-112962850D01*
X143652868Y-112983893D01*
X143638253Y-113003599D01*
X143621777Y-113021777D01*
X143603599Y-113038253D01*
X143583893Y-113052868D01*
X143562850Y-113065480D01*
X143540671Y-113075970D01*
X143517572Y-113084235D01*
X143493773Y-113090196D01*
X143469505Y-113093796D01*
X143445001Y-113095000D01*
X142794999Y-113095000D01*
X142770495Y-113093796D01*
X142746227Y-113090196D01*
X142722428Y-113084235D01*
X142699329Y-113075970D01*
X142677150Y-113065480D01*
X142656107Y-113052868D01*
X142636401Y-113038253D01*
X142618223Y-113021777D01*
X142601747Y-113003599D01*
X142587132Y-112983893D01*
X142574520Y-112962850D01*
X142564030Y-112940671D01*
X142555765Y-112917572D01*
X142549804Y-112893773D01*
X142546204Y-112869505D01*
X142545000Y-112845001D01*
X142545000Y-111944999D01*
X142546204Y-111920495D01*
X142549804Y-111896227D01*
X142555765Y-111872428D01*
X142564030Y-111849329D01*
X142574520Y-111827150D01*
X142587132Y-111806107D01*
X142601747Y-111786401D01*
X142618223Y-111768223D01*
X142636401Y-111751747D01*
X142656107Y-111737132D01*
X142677150Y-111724520D01*
X142699329Y-111714030D01*
X142722428Y-111705765D01*
X142746227Y-111699804D01*
X142770495Y-111696204D01*
X142794999Y-111695000D01*
X143445001Y-111695000D01*
X143469505Y-111696204D01*
X143469505Y-111696204D01*
G37*
D14*
X143120000Y-112395000D03*
D13*
G36*
X145519505Y-111696204D02*
G01*
X145543773Y-111699804D01*
X145567572Y-111705765D01*
X145590671Y-111714030D01*
X145612850Y-111724520D01*
X145633893Y-111737132D01*
X145653599Y-111751747D01*
X145671777Y-111768223D01*
X145688253Y-111786401D01*
X145702868Y-111806107D01*
X145715480Y-111827150D01*
X145725970Y-111849329D01*
X145734235Y-111872428D01*
X145740196Y-111896227D01*
X145743796Y-111920495D01*
X145745000Y-111944999D01*
X145745000Y-112845001D01*
X145743796Y-112869505D01*
X145740196Y-112893773D01*
X145734235Y-112917572D01*
X145725970Y-112940671D01*
X145715480Y-112962850D01*
X145702868Y-112983893D01*
X145688253Y-113003599D01*
X145671777Y-113021777D01*
X145653599Y-113038253D01*
X145633893Y-113052868D01*
X145612850Y-113065480D01*
X145590671Y-113075970D01*
X145567572Y-113084235D01*
X145543773Y-113090196D01*
X145519505Y-113093796D01*
X145495001Y-113095000D01*
X144844999Y-113095000D01*
X144820495Y-113093796D01*
X144796227Y-113090196D01*
X144772428Y-113084235D01*
X144749329Y-113075970D01*
X144727150Y-113065480D01*
X144706107Y-113052868D01*
X144686401Y-113038253D01*
X144668223Y-113021777D01*
X144651747Y-113003599D01*
X144637132Y-112983893D01*
X144624520Y-112962850D01*
X144614030Y-112940671D01*
X144605765Y-112917572D01*
X144599804Y-112893773D01*
X144596204Y-112869505D01*
X144595000Y-112845001D01*
X144595000Y-111944999D01*
X144596204Y-111920495D01*
X144599804Y-111896227D01*
X144605765Y-111872428D01*
X144614030Y-111849329D01*
X144624520Y-111827150D01*
X144637132Y-111806107D01*
X144651747Y-111786401D01*
X144668223Y-111768223D01*
X144686401Y-111751747D01*
X144706107Y-111737132D01*
X144727150Y-111724520D01*
X144749329Y-111714030D01*
X144772428Y-111705765D01*
X144796227Y-111699804D01*
X144820495Y-111696204D01*
X144844999Y-111695000D01*
X145495001Y-111695000D01*
X145519505Y-111696204D01*
X145519505Y-111696204D01*
G37*
D14*
X145170000Y-112395000D03*
D21*
X156350000Y-88735000D03*
X157150000Y-88735000D03*
X157950000Y-88735000D03*
X159550000Y-88735000D03*
X160350000Y-88735000D03*
X161150000Y-88735000D03*
X155950000Y-89435000D03*
X157550000Y-89435000D03*
X158350000Y-89435000D03*
X159150000Y-89435000D03*
X159950000Y-89435000D03*
X161550000Y-89435000D03*
X155150000Y-90085000D03*
D22*
X162350000Y-90085000D03*
D23*
X154260000Y-82885000D03*
X163240000Y-82885000D03*
X162880000Y-88835000D03*
D24*
X161000000Y-90745000D03*
X159500000Y-90745000D03*
X160000000Y-90745000D03*
X160500000Y-90745000D03*
X161500000Y-90745000D03*
X159000000Y-90745000D03*
X158500000Y-90745000D03*
X158000000Y-90745000D03*
X157500000Y-90745000D03*
X157000000Y-90745000D03*
X156500000Y-90745000D03*
X156000000Y-90745000D03*
D23*
X154620000Y-88835000D03*
D13*
G36*
X151869505Y-85026204D02*
G01*
X151893773Y-85029804D01*
X151917572Y-85035765D01*
X151940671Y-85044030D01*
X151962850Y-85054520D01*
X151983893Y-85067132D01*
X152003599Y-85081747D01*
X152021777Y-85098223D01*
X152038253Y-85116401D01*
X152052868Y-85136107D01*
X152065480Y-85157150D01*
X152075970Y-85179329D01*
X152084235Y-85202428D01*
X152090196Y-85226227D01*
X152093796Y-85250495D01*
X152095000Y-85274999D01*
X152095000Y-86175001D01*
X152093796Y-86199505D01*
X152090196Y-86223773D01*
X152084235Y-86247572D01*
X152075970Y-86270671D01*
X152065480Y-86292850D01*
X152052868Y-86313893D01*
X152038253Y-86333599D01*
X152021777Y-86351777D01*
X152003599Y-86368253D01*
X151983893Y-86382868D01*
X151962850Y-86395480D01*
X151940671Y-86405970D01*
X151917572Y-86414235D01*
X151893773Y-86420196D01*
X151869505Y-86423796D01*
X151845001Y-86425000D01*
X151194999Y-86425000D01*
X151170495Y-86423796D01*
X151146227Y-86420196D01*
X151122428Y-86414235D01*
X151099329Y-86405970D01*
X151077150Y-86395480D01*
X151056107Y-86382868D01*
X151036401Y-86368253D01*
X151018223Y-86351777D01*
X151001747Y-86333599D01*
X150987132Y-86313893D01*
X150974520Y-86292850D01*
X150964030Y-86270671D01*
X150955765Y-86247572D01*
X150949804Y-86223773D01*
X150946204Y-86199505D01*
X150945000Y-86175001D01*
X150945000Y-85274999D01*
X150946204Y-85250495D01*
X150949804Y-85226227D01*
X150955765Y-85202428D01*
X150964030Y-85179329D01*
X150974520Y-85157150D01*
X150987132Y-85136107D01*
X151001747Y-85116401D01*
X151018223Y-85098223D01*
X151036401Y-85081747D01*
X151056107Y-85067132D01*
X151077150Y-85054520D01*
X151099329Y-85044030D01*
X151122428Y-85035765D01*
X151146227Y-85029804D01*
X151170495Y-85026204D01*
X151194999Y-85025000D01*
X151845001Y-85025000D01*
X151869505Y-85026204D01*
X151869505Y-85026204D01*
G37*
D14*
X151520000Y-85725000D03*
D13*
G36*
X149819505Y-85026204D02*
G01*
X149843773Y-85029804D01*
X149867572Y-85035765D01*
X149890671Y-85044030D01*
X149912850Y-85054520D01*
X149933893Y-85067132D01*
X149953599Y-85081747D01*
X149971777Y-85098223D01*
X149988253Y-85116401D01*
X150002868Y-85136107D01*
X150015480Y-85157150D01*
X150025970Y-85179329D01*
X150034235Y-85202428D01*
X150040196Y-85226227D01*
X150043796Y-85250495D01*
X150045000Y-85274999D01*
X150045000Y-86175001D01*
X150043796Y-86199505D01*
X150040196Y-86223773D01*
X150034235Y-86247572D01*
X150025970Y-86270671D01*
X150015480Y-86292850D01*
X150002868Y-86313893D01*
X149988253Y-86333599D01*
X149971777Y-86351777D01*
X149953599Y-86368253D01*
X149933893Y-86382868D01*
X149912850Y-86395480D01*
X149890671Y-86405970D01*
X149867572Y-86414235D01*
X149843773Y-86420196D01*
X149819505Y-86423796D01*
X149795001Y-86425000D01*
X149144999Y-86425000D01*
X149120495Y-86423796D01*
X149096227Y-86420196D01*
X149072428Y-86414235D01*
X149049329Y-86405970D01*
X149027150Y-86395480D01*
X149006107Y-86382868D01*
X148986401Y-86368253D01*
X148968223Y-86351777D01*
X148951747Y-86333599D01*
X148937132Y-86313893D01*
X148924520Y-86292850D01*
X148914030Y-86270671D01*
X148905765Y-86247572D01*
X148899804Y-86223773D01*
X148896204Y-86199505D01*
X148895000Y-86175001D01*
X148895000Y-85274999D01*
X148896204Y-85250495D01*
X148899804Y-85226227D01*
X148905765Y-85202428D01*
X148914030Y-85179329D01*
X148924520Y-85157150D01*
X148937132Y-85136107D01*
X148951747Y-85116401D01*
X148968223Y-85098223D01*
X148986401Y-85081747D01*
X149006107Y-85067132D01*
X149027150Y-85054520D01*
X149049329Y-85044030D01*
X149072428Y-85035765D01*
X149096227Y-85029804D01*
X149120495Y-85026204D01*
X149144999Y-85025000D01*
X149795001Y-85025000D01*
X149819505Y-85026204D01*
X149819505Y-85026204D01*
G37*
D14*
X149470000Y-85725000D03*
D25*
X131535000Y-105740000D03*
X131535000Y-102540000D03*
X136435000Y-105740000D03*
X136435000Y-102540000D03*
X186600000Y-101905000D03*
X186600000Y-105105000D03*
X181700000Y-101905000D03*
X181700000Y-105105000D03*
D26*
X148590000Y-121285000D03*
D27*
X148590000Y-113665000D03*
D26*
X160655000Y-123190000D03*
D27*
X168275000Y-123190000D03*
D26*
X186690000Y-121285000D03*
D27*
X186690000Y-113665000D03*
D26*
X149860000Y-102235000D03*
D27*
X149860000Y-94615000D03*
D26*
X167640000Y-86995000D03*
D27*
X167640000Y-94615000D03*
D26*
X181610000Y-85725000D03*
D27*
X173990000Y-85725000D03*
D13*
G36*
X133454505Y-107251204D02*
G01*
X133478773Y-107254804D01*
X133502572Y-107260765D01*
X133525671Y-107269030D01*
X133547850Y-107279520D01*
X133568893Y-107292132D01*
X133588599Y-107306747D01*
X133606777Y-107323223D01*
X133623253Y-107341401D01*
X133637868Y-107361107D01*
X133650480Y-107382150D01*
X133660970Y-107404329D01*
X133669235Y-107427428D01*
X133675196Y-107451227D01*
X133678796Y-107475495D01*
X133680000Y-107499999D01*
X133680000Y-108400001D01*
X133678796Y-108424505D01*
X133675196Y-108448773D01*
X133669235Y-108472572D01*
X133660970Y-108495671D01*
X133650480Y-108517850D01*
X133637868Y-108538893D01*
X133623253Y-108558599D01*
X133606777Y-108576777D01*
X133588599Y-108593253D01*
X133568893Y-108607868D01*
X133547850Y-108620480D01*
X133525671Y-108630970D01*
X133502572Y-108639235D01*
X133478773Y-108645196D01*
X133454505Y-108648796D01*
X133430001Y-108650000D01*
X132779999Y-108650000D01*
X132755495Y-108648796D01*
X132731227Y-108645196D01*
X132707428Y-108639235D01*
X132684329Y-108630970D01*
X132662150Y-108620480D01*
X132641107Y-108607868D01*
X132621401Y-108593253D01*
X132603223Y-108576777D01*
X132586747Y-108558599D01*
X132572132Y-108538893D01*
X132559520Y-108517850D01*
X132549030Y-108495671D01*
X132540765Y-108472572D01*
X132534804Y-108448773D01*
X132531204Y-108424505D01*
X132530000Y-108400001D01*
X132530000Y-107499999D01*
X132531204Y-107475495D01*
X132534804Y-107451227D01*
X132540765Y-107427428D01*
X132549030Y-107404329D01*
X132559520Y-107382150D01*
X132572132Y-107361107D01*
X132586747Y-107341401D01*
X132603223Y-107323223D01*
X132621401Y-107306747D01*
X132641107Y-107292132D01*
X132662150Y-107279520D01*
X132684329Y-107269030D01*
X132707428Y-107260765D01*
X132731227Y-107254804D01*
X132755495Y-107251204D01*
X132779999Y-107250000D01*
X133430001Y-107250000D01*
X133454505Y-107251204D01*
X133454505Y-107251204D01*
G37*
D14*
X133105000Y-107950000D03*
D13*
G36*
X131404505Y-107251204D02*
G01*
X131428773Y-107254804D01*
X131452572Y-107260765D01*
X131475671Y-107269030D01*
X131497850Y-107279520D01*
X131518893Y-107292132D01*
X131538599Y-107306747D01*
X131556777Y-107323223D01*
X131573253Y-107341401D01*
X131587868Y-107361107D01*
X131600480Y-107382150D01*
X131610970Y-107404329D01*
X131619235Y-107427428D01*
X131625196Y-107451227D01*
X131628796Y-107475495D01*
X131630000Y-107499999D01*
X131630000Y-108400001D01*
X131628796Y-108424505D01*
X131625196Y-108448773D01*
X131619235Y-108472572D01*
X131610970Y-108495671D01*
X131600480Y-108517850D01*
X131587868Y-108538893D01*
X131573253Y-108558599D01*
X131556777Y-108576777D01*
X131538599Y-108593253D01*
X131518893Y-108607868D01*
X131497850Y-108620480D01*
X131475671Y-108630970D01*
X131452572Y-108639235D01*
X131428773Y-108645196D01*
X131404505Y-108648796D01*
X131380001Y-108650000D01*
X130729999Y-108650000D01*
X130705495Y-108648796D01*
X130681227Y-108645196D01*
X130657428Y-108639235D01*
X130634329Y-108630970D01*
X130612150Y-108620480D01*
X130591107Y-108607868D01*
X130571401Y-108593253D01*
X130553223Y-108576777D01*
X130536747Y-108558599D01*
X130522132Y-108538893D01*
X130509520Y-108517850D01*
X130499030Y-108495671D01*
X130490765Y-108472572D01*
X130484804Y-108448773D01*
X130481204Y-108424505D01*
X130480000Y-108400001D01*
X130480000Y-107499999D01*
X130481204Y-107475495D01*
X130484804Y-107451227D01*
X130490765Y-107427428D01*
X130499030Y-107404329D01*
X130509520Y-107382150D01*
X130522132Y-107361107D01*
X130536747Y-107341401D01*
X130553223Y-107323223D01*
X130571401Y-107306747D01*
X130591107Y-107292132D01*
X130612150Y-107279520D01*
X130634329Y-107269030D01*
X130657428Y-107260765D01*
X130681227Y-107254804D01*
X130705495Y-107251204D01*
X130729999Y-107250000D01*
X131380001Y-107250000D01*
X131404505Y-107251204D01*
X131404505Y-107251204D01*
G37*
D14*
X131055000Y-107950000D03*
D13*
G36*
X183474505Y-106616204D02*
G01*
X183498773Y-106619804D01*
X183522572Y-106625765D01*
X183545671Y-106634030D01*
X183567850Y-106644520D01*
X183588893Y-106657132D01*
X183608599Y-106671747D01*
X183626777Y-106688223D01*
X183643253Y-106706401D01*
X183657868Y-106726107D01*
X183670480Y-106747150D01*
X183680970Y-106769329D01*
X183689235Y-106792428D01*
X183695196Y-106816227D01*
X183698796Y-106840495D01*
X183700000Y-106864999D01*
X183700000Y-107765001D01*
X183698796Y-107789505D01*
X183695196Y-107813773D01*
X183689235Y-107837572D01*
X183680970Y-107860671D01*
X183670480Y-107882850D01*
X183657868Y-107903893D01*
X183643253Y-107923599D01*
X183626777Y-107941777D01*
X183608599Y-107958253D01*
X183588893Y-107972868D01*
X183567850Y-107985480D01*
X183545671Y-107995970D01*
X183522572Y-108004235D01*
X183498773Y-108010196D01*
X183474505Y-108013796D01*
X183450001Y-108015000D01*
X182799999Y-108015000D01*
X182775495Y-108013796D01*
X182751227Y-108010196D01*
X182727428Y-108004235D01*
X182704329Y-107995970D01*
X182682150Y-107985480D01*
X182661107Y-107972868D01*
X182641401Y-107958253D01*
X182623223Y-107941777D01*
X182606747Y-107923599D01*
X182592132Y-107903893D01*
X182579520Y-107882850D01*
X182569030Y-107860671D01*
X182560765Y-107837572D01*
X182554804Y-107813773D01*
X182551204Y-107789505D01*
X182550000Y-107765001D01*
X182550000Y-106864999D01*
X182551204Y-106840495D01*
X182554804Y-106816227D01*
X182560765Y-106792428D01*
X182569030Y-106769329D01*
X182579520Y-106747150D01*
X182592132Y-106726107D01*
X182606747Y-106706401D01*
X182623223Y-106688223D01*
X182641401Y-106671747D01*
X182661107Y-106657132D01*
X182682150Y-106644520D01*
X182704329Y-106634030D01*
X182727428Y-106625765D01*
X182751227Y-106619804D01*
X182775495Y-106616204D01*
X182799999Y-106615000D01*
X183450001Y-106615000D01*
X183474505Y-106616204D01*
X183474505Y-106616204D01*
G37*
D14*
X183125000Y-107315000D03*
D13*
G36*
X185524505Y-106616204D02*
G01*
X185548773Y-106619804D01*
X185572572Y-106625765D01*
X185595671Y-106634030D01*
X185617850Y-106644520D01*
X185638893Y-106657132D01*
X185658599Y-106671747D01*
X185676777Y-106688223D01*
X185693253Y-106706401D01*
X185707868Y-106726107D01*
X185720480Y-106747150D01*
X185730970Y-106769329D01*
X185739235Y-106792428D01*
X185745196Y-106816227D01*
X185748796Y-106840495D01*
X185750000Y-106864999D01*
X185750000Y-107765001D01*
X185748796Y-107789505D01*
X185745196Y-107813773D01*
X185739235Y-107837572D01*
X185730970Y-107860671D01*
X185720480Y-107882850D01*
X185707868Y-107903893D01*
X185693253Y-107923599D01*
X185676777Y-107941777D01*
X185658599Y-107958253D01*
X185638893Y-107972868D01*
X185617850Y-107985480D01*
X185595671Y-107995970D01*
X185572572Y-108004235D01*
X185548773Y-108010196D01*
X185524505Y-108013796D01*
X185500001Y-108015000D01*
X184849999Y-108015000D01*
X184825495Y-108013796D01*
X184801227Y-108010196D01*
X184777428Y-108004235D01*
X184754329Y-107995970D01*
X184732150Y-107985480D01*
X184711107Y-107972868D01*
X184691401Y-107958253D01*
X184673223Y-107941777D01*
X184656747Y-107923599D01*
X184642132Y-107903893D01*
X184629520Y-107882850D01*
X184619030Y-107860671D01*
X184610765Y-107837572D01*
X184604804Y-107813773D01*
X184601204Y-107789505D01*
X184600000Y-107765001D01*
X184600000Y-106864999D01*
X184601204Y-106840495D01*
X184604804Y-106816227D01*
X184610765Y-106792428D01*
X184619030Y-106769329D01*
X184629520Y-106747150D01*
X184642132Y-106726107D01*
X184656747Y-106706401D01*
X184673223Y-106688223D01*
X184691401Y-106671747D01*
X184711107Y-106657132D01*
X184732150Y-106644520D01*
X184754329Y-106634030D01*
X184777428Y-106625765D01*
X184801227Y-106619804D01*
X184825495Y-106616204D01*
X184849999Y-106615000D01*
X185500001Y-106615000D01*
X185524505Y-106616204D01*
X185524505Y-106616204D01*
G37*
D14*
X185175000Y-107315000D03*
D13*
G36*
X170400505Y-116402204D02*
G01*
X170424773Y-116405804D01*
X170448572Y-116411765D01*
X170471671Y-116420030D01*
X170493850Y-116430520D01*
X170514893Y-116443132D01*
X170534599Y-116457747D01*
X170552777Y-116474223D01*
X170569253Y-116492401D01*
X170583868Y-116512107D01*
X170596480Y-116533150D01*
X170606970Y-116555329D01*
X170615235Y-116578428D01*
X170621196Y-116602227D01*
X170624796Y-116626495D01*
X170626000Y-116650999D01*
X170626000Y-117301001D01*
X170624796Y-117325505D01*
X170621196Y-117349773D01*
X170615235Y-117373572D01*
X170606970Y-117396671D01*
X170596480Y-117418850D01*
X170583868Y-117439893D01*
X170569253Y-117459599D01*
X170552777Y-117477777D01*
X170534599Y-117494253D01*
X170514893Y-117508868D01*
X170493850Y-117521480D01*
X170471671Y-117531970D01*
X170448572Y-117540235D01*
X170424773Y-117546196D01*
X170400505Y-117549796D01*
X170376001Y-117551000D01*
X169475999Y-117551000D01*
X169451495Y-117549796D01*
X169427227Y-117546196D01*
X169403428Y-117540235D01*
X169380329Y-117531970D01*
X169358150Y-117521480D01*
X169337107Y-117508868D01*
X169317401Y-117494253D01*
X169299223Y-117477777D01*
X169282747Y-117459599D01*
X169268132Y-117439893D01*
X169255520Y-117418850D01*
X169245030Y-117396671D01*
X169236765Y-117373572D01*
X169230804Y-117349773D01*
X169227204Y-117325505D01*
X169226000Y-117301001D01*
X169226000Y-116650999D01*
X169227204Y-116626495D01*
X169230804Y-116602227D01*
X169236765Y-116578428D01*
X169245030Y-116555329D01*
X169255520Y-116533150D01*
X169268132Y-116512107D01*
X169282747Y-116492401D01*
X169299223Y-116474223D01*
X169317401Y-116457747D01*
X169337107Y-116443132D01*
X169358150Y-116430520D01*
X169380329Y-116420030D01*
X169403428Y-116411765D01*
X169427227Y-116405804D01*
X169451495Y-116402204D01*
X169475999Y-116401000D01*
X170376001Y-116401000D01*
X170400505Y-116402204D01*
X170400505Y-116402204D01*
G37*
D14*
X169926000Y-116976000D03*
D13*
G36*
X170400505Y-114352204D02*
G01*
X170424773Y-114355804D01*
X170448572Y-114361765D01*
X170471671Y-114370030D01*
X170493850Y-114380520D01*
X170514893Y-114393132D01*
X170534599Y-114407747D01*
X170552777Y-114424223D01*
X170569253Y-114442401D01*
X170583868Y-114462107D01*
X170596480Y-114483150D01*
X170606970Y-114505329D01*
X170615235Y-114528428D01*
X170621196Y-114552227D01*
X170624796Y-114576495D01*
X170626000Y-114600999D01*
X170626000Y-115251001D01*
X170624796Y-115275505D01*
X170621196Y-115299773D01*
X170615235Y-115323572D01*
X170606970Y-115346671D01*
X170596480Y-115368850D01*
X170583868Y-115389893D01*
X170569253Y-115409599D01*
X170552777Y-115427777D01*
X170534599Y-115444253D01*
X170514893Y-115458868D01*
X170493850Y-115471480D01*
X170471671Y-115481970D01*
X170448572Y-115490235D01*
X170424773Y-115496196D01*
X170400505Y-115499796D01*
X170376001Y-115501000D01*
X169475999Y-115501000D01*
X169451495Y-115499796D01*
X169427227Y-115496196D01*
X169403428Y-115490235D01*
X169380329Y-115481970D01*
X169358150Y-115471480D01*
X169337107Y-115458868D01*
X169317401Y-115444253D01*
X169299223Y-115427777D01*
X169282747Y-115409599D01*
X169268132Y-115389893D01*
X169255520Y-115368850D01*
X169245030Y-115346671D01*
X169236765Y-115323572D01*
X169230804Y-115299773D01*
X169227204Y-115275505D01*
X169226000Y-115251001D01*
X169226000Y-114600999D01*
X169227204Y-114576495D01*
X169230804Y-114552227D01*
X169236765Y-114528428D01*
X169245030Y-114505329D01*
X169255520Y-114483150D01*
X169268132Y-114462107D01*
X169282747Y-114442401D01*
X169299223Y-114424223D01*
X169317401Y-114407747D01*
X169337107Y-114393132D01*
X169358150Y-114380520D01*
X169380329Y-114370030D01*
X169403428Y-114361765D01*
X169427227Y-114355804D01*
X169451495Y-114352204D01*
X169475999Y-114351000D01*
X170376001Y-114351000D01*
X170400505Y-114352204D01*
X170400505Y-114352204D01*
G37*
D14*
X169926000Y-114926000D03*
D13*
G36*
X155414505Y-108256204D02*
G01*
X155438773Y-108259804D01*
X155462572Y-108265765D01*
X155485671Y-108274030D01*
X155507850Y-108284520D01*
X155528893Y-108297132D01*
X155548599Y-108311747D01*
X155566777Y-108328223D01*
X155583253Y-108346401D01*
X155597868Y-108366107D01*
X155610480Y-108387150D01*
X155620970Y-108409329D01*
X155629235Y-108432428D01*
X155635196Y-108456227D01*
X155638796Y-108480495D01*
X155640000Y-108504999D01*
X155640000Y-109155001D01*
X155638796Y-109179505D01*
X155635196Y-109203773D01*
X155629235Y-109227572D01*
X155620970Y-109250671D01*
X155610480Y-109272850D01*
X155597868Y-109293893D01*
X155583253Y-109313599D01*
X155566777Y-109331777D01*
X155548599Y-109348253D01*
X155528893Y-109362868D01*
X155507850Y-109375480D01*
X155485671Y-109385970D01*
X155462572Y-109394235D01*
X155438773Y-109400196D01*
X155414505Y-109403796D01*
X155390001Y-109405000D01*
X154489999Y-109405000D01*
X154465495Y-109403796D01*
X154441227Y-109400196D01*
X154417428Y-109394235D01*
X154394329Y-109385970D01*
X154372150Y-109375480D01*
X154351107Y-109362868D01*
X154331401Y-109348253D01*
X154313223Y-109331777D01*
X154296747Y-109313599D01*
X154282132Y-109293893D01*
X154269520Y-109272850D01*
X154259030Y-109250671D01*
X154250765Y-109227572D01*
X154244804Y-109203773D01*
X154241204Y-109179505D01*
X154240000Y-109155001D01*
X154240000Y-108504999D01*
X154241204Y-108480495D01*
X154244804Y-108456227D01*
X154250765Y-108432428D01*
X154259030Y-108409329D01*
X154269520Y-108387150D01*
X154282132Y-108366107D01*
X154296747Y-108346401D01*
X154313223Y-108328223D01*
X154331401Y-108311747D01*
X154351107Y-108297132D01*
X154372150Y-108284520D01*
X154394329Y-108274030D01*
X154417428Y-108265765D01*
X154441227Y-108259804D01*
X154465495Y-108256204D01*
X154489999Y-108255000D01*
X155390001Y-108255000D01*
X155414505Y-108256204D01*
X155414505Y-108256204D01*
G37*
D14*
X154940000Y-108830000D03*
D13*
G36*
X155414505Y-110306204D02*
G01*
X155438773Y-110309804D01*
X155462572Y-110315765D01*
X155485671Y-110324030D01*
X155507850Y-110334520D01*
X155528893Y-110347132D01*
X155548599Y-110361747D01*
X155566777Y-110378223D01*
X155583253Y-110396401D01*
X155597868Y-110416107D01*
X155610480Y-110437150D01*
X155620970Y-110459329D01*
X155629235Y-110482428D01*
X155635196Y-110506227D01*
X155638796Y-110530495D01*
X155640000Y-110554999D01*
X155640000Y-111205001D01*
X155638796Y-111229505D01*
X155635196Y-111253773D01*
X155629235Y-111277572D01*
X155620970Y-111300671D01*
X155610480Y-111322850D01*
X155597868Y-111343893D01*
X155583253Y-111363599D01*
X155566777Y-111381777D01*
X155548599Y-111398253D01*
X155528893Y-111412868D01*
X155507850Y-111425480D01*
X155485671Y-111435970D01*
X155462572Y-111444235D01*
X155438773Y-111450196D01*
X155414505Y-111453796D01*
X155390001Y-111455000D01*
X154489999Y-111455000D01*
X154465495Y-111453796D01*
X154441227Y-111450196D01*
X154417428Y-111444235D01*
X154394329Y-111435970D01*
X154372150Y-111425480D01*
X154351107Y-111412868D01*
X154331401Y-111398253D01*
X154313223Y-111381777D01*
X154296747Y-111363599D01*
X154282132Y-111343893D01*
X154269520Y-111322850D01*
X154259030Y-111300671D01*
X154250765Y-111277572D01*
X154244804Y-111253773D01*
X154241204Y-111229505D01*
X154240000Y-111205001D01*
X154240000Y-110554999D01*
X154241204Y-110530495D01*
X154244804Y-110506227D01*
X154250765Y-110482428D01*
X154259030Y-110459329D01*
X154269520Y-110437150D01*
X154282132Y-110416107D01*
X154296747Y-110396401D01*
X154313223Y-110378223D01*
X154331401Y-110361747D01*
X154351107Y-110347132D01*
X154372150Y-110334520D01*
X154394329Y-110324030D01*
X154417428Y-110315765D01*
X154441227Y-110309804D01*
X154465495Y-110306204D01*
X154489999Y-110305000D01*
X155390001Y-110305000D01*
X155414505Y-110306204D01*
X155414505Y-110306204D01*
G37*
D14*
X154940000Y-110880000D03*
D13*
G36*
X155414505Y-104446204D02*
G01*
X155438773Y-104449804D01*
X155462572Y-104455765D01*
X155485671Y-104464030D01*
X155507850Y-104474520D01*
X155528893Y-104487132D01*
X155548599Y-104501747D01*
X155566777Y-104518223D01*
X155583253Y-104536401D01*
X155597868Y-104556107D01*
X155610480Y-104577150D01*
X155620970Y-104599329D01*
X155629235Y-104622428D01*
X155635196Y-104646227D01*
X155638796Y-104670495D01*
X155640000Y-104694999D01*
X155640000Y-105345001D01*
X155638796Y-105369505D01*
X155635196Y-105393773D01*
X155629235Y-105417572D01*
X155620970Y-105440671D01*
X155610480Y-105462850D01*
X155597868Y-105483893D01*
X155583253Y-105503599D01*
X155566777Y-105521777D01*
X155548599Y-105538253D01*
X155528893Y-105552868D01*
X155507850Y-105565480D01*
X155485671Y-105575970D01*
X155462572Y-105584235D01*
X155438773Y-105590196D01*
X155414505Y-105593796D01*
X155390001Y-105595000D01*
X154489999Y-105595000D01*
X154465495Y-105593796D01*
X154441227Y-105590196D01*
X154417428Y-105584235D01*
X154394329Y-105575970D01*
X154372150Y-105565480D01*
X154351107Y-105552868D01*
X154331401Y-105538253D01*
X154313223Y-105521777D01*
X154296747Y-105503599D01*
X154282132Y-105483893D01*
X154269520Y-105462850D01*
X154259030Y-105440671D01*
X154250765Y-105417572D01*
X154244804Y-105393773D01*
X154241204Y-105369505D01*
X154240000Y-105345001D01*
X154240000Y-104694999D01*
X154241204Y-104670495D01*
X154244804Y-104646227D01*
X154250765Y-104622428D01*
X154259030Y-104599329D01*
X154269520Y-104577150D01*
X154282132Y-104556107D01*
X154296747Y-104536401D01*
X154313223Y-104518223D01*
X154331401Y-104501747D01*
X154351107Y-104487132D01*
X154372150Y-104474520D01*
X154394329Y-104464030D01*
X154417428Y-104455765D01*
X154441227Y-104449804D01*
X154465495Y-104446204D01*
X154489999Y-104445000D01*
X155390001Y-104445000D01*
X155414505Y-104446204D01*
X155414505Y-104446204D01*
G37*
D14*
X154940000Y-105020000D03*
D13*
G36*
X155414505Y-106496204D02*
G01*
X155438773Y-106499804D01*
X155462572Y-106505765D01*
X155485671Y-106514030D01*
X155507850Y-106524520D01*
X155528893Y-106537132D01*
X155548599Y-106551747D01*
X155566777Y-106568223D01*
X155583253Y-106586401D01*
X155597868Y-106606107D01*
X155610480Y-106627150D01*
X155620970Y-106649329D01*
X155629235Y-106672428D01*
X155635196Y-106696227D01*
X155638796Y-106720495D01*
X155640000Y-106744999D01*
X155640000Y-107395001D01*
X155638796Y-107419505D01*
X155635196Y-107443773D01*
X155629235Y-107467572D01*
X155620970Y-107490671D01*
X155610480Y-107512850D01*
X155597868Y-107533893D01*
X155583253Y-107553599D01*
X155566777Y-107571777D01*
X155548599Y-107588253D01*
X155528893Y-107602868D01*
X155507850Y-107615480D01*
X155485671Y-107625970D01*
X155462572Y-107634235D01*
X155438773Y-107640196D01*
X155414505Y-107643796D01*
X155390001Y-107645000D01*
X154489999Y-107645000D01*
X154465495Y-107643796D01*
X154441227Y-107640196D01*
X154417428Y-107634235D01*
X154394329Y-107625970D01*
X154372150Y-107615480D01*
X154351107Y-107602868D01*
X154331401Y-107588253D01*
X154313223Y-107571777D01*
X154296747Y-107553599D01*
X154282132Y-107533893D01*
X154269520Y-107512850D01*
X154259030Y-107490671D01*
X154250765Y-107467572D01*
X154244804Y-107443773D01*
X154241204Y-107419505D01*
X154240000Y-107395001D01*
X154240000Y-106744999D01*
X154241204Y-106720495D01*
X154244804Y-106696227D01*
X154250765Y-106672428D01*
X154259030Y-106649329D01*
X154269520Y-106627150D01*
X154282132Y-106606107D01*
X154296747Y-106586401D01*
X154313223Y-106568223D01*
X154331401Y-106551747D01*
X154351107Y-106537132D01*
X154372150Y-106524520D01*
X154394329Y-106514030D01*
X154417428Y-106505765D01*
X154441227Y-106499804D01*
X154465495Y-106496204D01*
X154489999Y-106495000D01*
X155390001Y-106495000D01*
X155414505Y-106496204D01*
X155414505Y-106496204D01*
G37*
D14*
X154940000Y-107070000D03*
D13*
G36*
X136364505Y-86811204D02*
G01*
X136388773Y-86814804D01*
X136412572Y-86820765D01*
X136435671Y-86829030D01*
X136457850Y-86839520D01*
X136478893Y-86852132D01*
X136498599Y-86866747D01*
X136516777Y-86883223D01*
X136533253Y-86901401D01*
X136547868Y-86921107D01*
X136560480Y-86942150D01*
X136570970Y-86964329D01*
X136579235Y-86987428D01*
X136585196Y-87011227D01*
X136588796Y-87035495D01*
X136590000Y-87059999D01*
X136590000Y-87710001D01*
X136588796Y-87734505D01*
X136585196Y-87758773D01*
X136579235Y-87782572D01*
X136570970Y-87805671D01*
X136560480Y-87827850D01*
X136547868Y-87848893D01*
X136533253Y-87868599D01*
X136516777Y-87886777D01*
X136498599Y-87903253D01*
X136478893Y-87917868D01*
X136457850Y-87930480D01*
X136435671Y-87940970D01*
X136412572Y-87949235D01*
X136388773Y-87955196D01*
X136364505Y-87958796D01*
X136340001Y-87960000D01*
X135439999Y-87960000D01*
X135415495Y-87958796D01*
X135391227Y-87955196D01*
X135367428Y-87949235D01*
X135344329Y-87940970D01*
X135322150Y-87930480D01*
X135301107Y-87917868D01*
X135281401Y-87903253D01*
X135263223Y-87886777D01*
X135246747Y-87868599D01*
X135232132Y-87848893D01*
X135219520Y-87827850D01*
X135209030Y-87805671D01*
X135200765Y-87782572D01*
X135194804Y-87758773D01*
X135191204Y-87734505D01*
X135190000Y-87710001D01*
X135190000Y-87059999D01*
X135191204Y-87035495D01*
X135194804Y-87011227D01*
X135200765Y-86987428D01*
X135209030Y-86964329D01*
X135219520Y-86942150D01*
X135232132Y-86921107D01*
X135246747Y-86901401D01*
X135263223Y-86883223D01*
X135281401Y-86866747D01*
X135301107Y-86852132D01*
X135322150Y-86839520D01*
X135344329Y-86829030D01*
X135367428Y-86820765D01*
X135391227Y-86814804D01*
X135415495Y-86811204D01*
X135439999Y-86810000D01*
X136340001Y-86810000D01*
X136364505Y-86811204D01*
X136364505Y-86811204D01*
G37*
D14*
X135890000Y-87385000D03*
D13*
G36*
X136364505Y-84761204D02*
G01*
X136388773Y-84764804D01*
X136412572Y-84770765D01*
X136435671Y-84779030D01*
X136457850Y-84789520D01*
X136478893Y-84802132D01*
X136498599Y-84816747D01*
X136516777Y-84833223D01*
X136533253Y-84851401D01*
X136547868Y-84871107D01*
X136560480Y-84892150D01*
X136570970Y-84914329D01*
X136579235Y-84937428D01*
X136585196Y-84961227D01*
X136588796Y-84985495D01*
X136590000Y-85009999D01*
X136590000Y-85660001D01*
X136588796Y-85684505D01*
X136585196Y-85708773D01*
X136579235Y-85732572D01*
X136570970Y-85755671D01*
X136560480Y-85777850D01*
X136547868Y-85798893D01*
X136533253Y-85818599D01*
X136516777Y-85836777D01*
X136498599Y-85853253D01*
X136478893Y-85867868D01*
X136457850Y-85880480D01*
X136435671Y-85890970D01*
X136412572Y-85899235D01*
X136388773Y-85905196D01*
X136364505Y-85908796D01*
X136340001Y-85910000D01*
X135439999Y-85910000D01*
X135415495Y-85908796D01*
X135391227Y-85905196D01*
X135367428Y-85899235D01*
X135344329Y-85890970D01*
X135322150Y-85880480D01*
X135301107Y-85867868D01*
X135281401Y-85853253D01*
X135263223Y-85836777D01*
X135246747Y-85818599D01*
X135232132Y-85798893D01*
X135219520Y-85777850D01*
X135209030Y-85755671D01*
X135200765Y-85732572D01*
X135194804Y-85708773D01*
X135191204Y-85684505D01*
X135190000Y-85660001D01*
X135190000Y-85009999D01*
X135191204Y-84985495D01*
X135194804Y-84961227D01*
X135200765Y-84937428D01*
X135209030Y-84914329D01*
X135219520Y-84892150D01*
X135232132Y-84871107D01*
X135246747Y-84851401D01*
X135263223Y-84833223D01*
X135281401Y-84816747D01*
X135301107Y-84802132D01*
X135322150Y-84789520D01*
X135344329Y-84779030D01*
X135367428Y-84770765D01*
X135391227Y-84764804D01*
X135415495Y-84761204D01*
X135439999Y-84760000D01*
X136340001Y-84760000D01*
X136364505Y-84761204D01*
X136364505Y-84761204D01*
G37*
D14*
X135890000Y-85335000D03*
D13*
G36*
X138269505Y-86811204D02*
G01*
X138293773Y-86814804D01*
X138317572Y-86820765D01*
X138340671Y-86829030D01*
X138362850Y-86839520D01*
X138383893Y-86852132D01*
X138403599Y-86866747D01*
X138421777Y-86883223D01*
X138438253Y-86901401D01*
X138452868Y-86921107D01*
X138465480Y-86942150D01*
X138475970Y-86964329D01*
X138484235Y-86987428D01*
X138490196Y-87011227D01*
X138493796Y-87035495D01*
X138495000Y-87059999D01*
X138495000Y-87710001D01*
X138493796Y-87734505D01*
X138490196Y-87758773D01*
X138484235Y-87782572D01*
X138475970Y-87805671D01*
X138465480Y-87827850D01*
X138452868Y-87848893D01*
X138438253Y-87868599D01*
X138421777Y-87886777D01*
X138403599Y-87903253D01*
X138383893Y-87917868D01*
X138362850Y-87930480D01*
X138340671Y-87940970D01*
X138317572Y-87949235D01*
X138293773Y-87955196D01*
X138269505Y-87958796D01*
X138245001Y-87960000D01*
X137344999Y-87960000D01*
X137320495Y-87958796D01*
X137296227Y-87955196D01*
X137272428Y-87949235D01*
X137249329Y-87940970D01*
X137227150Y-87930480D01*
X137206107Y-87917868D01*
X137186401Y-87903253D01*
X137168223Y-87886777D01*
X137151747Y-87868599D01*
X137137132Y-87848893D01*
X137124520Y-87827850D01*
X137114030Y-87805671D01*
X137105765Y-87782572D01*
X137099804Y-87758773D01*
X137096204Y-87734505D01*
X137095000Y-87710001D01*
X137095000Y-87059999D01*
X137096204Y-87035495D01*
X137099804Y-87011227D01*
X137105765Y-86987428D01*
X137114030Y-86964329D01*
X137124520Y-86942150D01*
X137137132Y-86921107D01*
X137151747Y-86901401D01*
X137168223Y-86883223D01*
X137186401Y-86866747D01*
X137206107Y-86852132D01*
X137227150Y-86839520D01*
X137249329Y-86829030D01*
X137272428Y-86820765D01*
X137296227Y-86814804D01*
X137320495Y-86811204D01*
X137344999Y-86810000D01*
X138245001Y-86810000D01*
X138269505Y-86811204D01*
X138269505Y-86811204D01*
G37*
D14*
X137795000Y-87385000D03*
D13*
G36*
X138269505Y-84761204D02*
G01*
X138293773Y-84764804D01*
X138317572Y-84770765D01*
X138340671Y-84779030D01*
X138362850Y-84789520D01*
X138383893Y-84802132D01*
X138403599Y-84816747D01*
X138421777Y-84833223D01*
X138438253Y-84851401D01*
X138452868Y-84871107D01*
X138465480Y-84892150D01*
X138475970Y-84914329D01*
X138484235Y-84937428D01*
X138490196Y-84961227D01*
X138493796Y-84985495D01*
X138495000Y-85009999D01*
X138495000Y-85660001D01*
X138493796Y-85684505D01*
X138490196Y-85708773D01*
X138484235Y-85732572D01*
X138475970Y-85755671D01*
X138465480Y-85777850D01*
X138452868Y-85798893D01*
X138438253Y-85818599D01*
X138421777Y-85836777D01*
X138403599Y-85853253D01*
X138383893Y-85867868D01*
X138362850Y-85880480D01*
X138340671Y-85890970D01*
X138317572Y-85899235D01*
X138293773Y-85905196D01*
X138269505Y-85908796D01*
X138245001Y-85910000D01*
X137344999Y-85910000D01*
X137320495Y-85908796D01*
X137296227Y-85905196D01*
X137272428Y-85899235D01*
X137249329Y-85890970D01*
X137227150Y-85880480D01*
X137206107Y-85867868D01*
X137186401Y-85853253D01*
X137168223Y-85836777D01*
X137151747Y-85818599D01*
X137137132Y-85798893D01*
X137124520Y-85777850D01*
X137114030Y-85755671D01*
X137105765Y-85732572D01*
X137099804Y-85708773D01*
X137096204Y-85684505D01*
X137095000Y-85660001D01*
X137095000Y-85009999D01*
X137096204Y-84985495D01*
X137099804Y-84961227D01*
X137105765Y-84937428D01*
X137114030Y-84914329D01*
X137124520Y-84892150D01*
X137137132Y-84871107D01*
X137151747Y-84851401D01*
X137168223Y-84833223D01*
X137186401Y-84816747D01*
X137206107Y-84802132D01*
X137227150Y-84789520D01*
X137249329Y-84779030D01*
X137272428Y-84770765D01*
X137296227Y-84764804D01*
X137320495Y-84761204D01*
X137344999Y-84760000D01*
X138245001Y-84760000D01*
X138269505Y-84761204D01*
X138269505Y-84761204D01*
G37*
D14*
X137795000Y-85335000D03*
D13*
G36*
X140174505Y-86811204D02*
G01*
X140198773Y-86814804D01*
X140222572Y-86820765D01*
X140245671Y-86829030D01*
X140267850Y-86839520D01*
X140288893Y-86852132D01*
X140308599Y-86866747D01*
X140326777Y-86883223D01*
X140343253Y-86901401D01*
X140357868Y-86921107D01*
X140370480Y-86942150D01*
X140380970Y-86964329D01*
X140389235Y-86987428D01*
X140395196Y-87011227D01*
X140398796Y-87035495D01*
X140400000Y-87059999D01*
X140400000Y-87710001D01*
X140398796Y-87734505D01*
X140395196Y-87758773D01*
X140389235Y-87782572D01*
X140380970Y-87805671D01*
X140370480Y-87827850D01*
X140357868Y-87848893D01*
X140343253Y-87868599D01*
X140326777Y-87886777D01*
X140308599Y-87903253D01*
X140288893Y-87917868D01*
X140267850Y-87930480D01*
X140245671Y-87940970D01*
X140222572Y-87949235D01*
X140198773Y-87955196D01*
X140174505Y-87958796D01*
X140150001Y-87960000D01*
X139249999Y-87960000D01*
X139225495Y-87958796D01*
X139201227Y-87955196D01*
X139177428Y-87949235D01*
X139154329Y-87940970D01*
X139132150Y-87930480D01*
X139111107Y-87917868D01*
X139091401Y-87903253D01*
X139073223Y-87886777D01*
X139056747Y-87868599D01*
X139042132Y-87848893D01*
X139029520Y-87827850D01*
X139019030Y-87805671D01*
X139010765Y-87782572D01*
X139004804Y-87758773D01*
X139001204Y-87734505D01*
X139000000Y-87710001D01*
X139000000Y-87059999D01*
X139001204Y-87035495D01*
X139004804Y-87011227D01*
X139010765Y-86987428D01*
X139019030Y-86964329D01*
X139029520Y-86942150D01*
X139042132Y-86921107D01*
X139056747Y-86901401D01*
X139073223Y-86883223D01*
X139091401Y-86866747D01*
X139111107Y-86852132D01*
X139132150Y-86839520D01*
X139154329Y-86829030D01*
X139177428Y-86820765D01*
X139201227Y-86814804D01*
X139225495Y-86811204D01*
X139249999Y-86810000D01*
X140150001Y-86810000D01*
X140174505Y-86811204D01*
X140174505Y-86811204D01*
G37*
D14*
X139700000Y-87385000D03*
D13*
G36*
X140174505Y-84761204D02*
G01*
X140198773Y-84764804D01*
X140222572Y-84770765D01*
X140245671Y-84779030D01*
X140267850Y-84789520D01*
X140288893Y-84802132D01*
X140308599Y-84816747D01*
X140326777Y-84833223D01*
X140343253Y-84851401D01*
X140357868Y-84871107D01*
X140370480Y-84892150D01*
X140380970Y-84914329D01*
X140389235Y-84937428D01*
X140395196Y-84961227D01*
X140398796Y-84985495D01*
X140400000Y-85009999D01*
X140400000Y-85660001D01*
X140398796Y-85684505D01*
X140395196Y-85708773D01*
X140389235Y-85732572D01*
X140380970Y-85755671D01*
X140370480Y-85777850D01*
X140357868Y-85798893D01*
X140343253Y-85818599D01*
X140326777Y-85836777D01*
X140308599Y-85853253D01*
X140288893Y-85867868D01*
X140267850Y-85880480D01*
X140245671Y-85890970D01*
X140222572Y-85899235D01*
X140198773Y-85905196D01*
X140174505Y-85908796D01*
X140150001Y-85910000D01*
X139249999Y-85910000D01*
X139225495Y-85908796D01*
X139201227Y-85905196D01*
X139177428Y-85899235D01*
X139154329Y-85890970D01*
X139132150Y-85880480D01*
X139111107Y-85867868D01*
X139091401Y-85853253D01*
X139073223Y-85836777D01*
X139056747Y-85818599D01*
X139042132Y-85798893D01*
X139029520Y-85777850D01*
X139019030Y-85755671D01*
X139010765Y-85732572D01*
X139004804Y-85708773D01*
X139001204Y-85684505D01*
X139000000Y-85660001D01*
X139000000Y-85009999D01*
X139001204Y-84985495D01*
X139004804Y-84961227D01*
X139010765Y-84937428D01*
X139019030Y-84914329D01*
X139029520Y-84892150D01*
X139042132Y-84871107D01*
X139056747Y-84851401D01*
X139073223Y-84833223D01*
X139091401Y-84816747D01*
X139111107Y-84802132D01*
X139132150Y-84789520D01*
X139154329Y-84779030D01*
X139177428Y-84770765D01*
X139201227Y-84764804D01*
X139225495Y-84761204D01*
X139249999Y-84760000D01*
X140150001Y-84760000D01*
X140174505Y-84761204D01*
X140174505Y-84761204D01*
G37*
D14*
X139700000Y-85335000D03*
D13*
G36*
X142079505Y-86811204D02*
G01*
X142103773Y-86814804D01*
X142127572Y-86820765D01*
X142150671Y-86829030D01*
X142172850Y-86839520D01*
X142193893Y-86852132D01*
X142213599Y-86866747D01*
X142231777Y-86883223D01*
X142248253Y-86901401D01*
X142262868Y-86921107D01*
X142275480Y-86942150D01*
X142285970Y-86964329D01*
X142294235Y-86987428D01*
X142300196Y-87011227D01*
X142303796Y-87035495D01*
X142305000Y-87059999D01*
X142305000Y-87710001D01*
X142303796Y-87734505D01*
X142300196Y-87758773D01*
X142294235Y-87782572D01*
X142285970Y-87805671D01*
X142275480Y-87827850D01*
X142262868Y-87848893D01*
X142248253Y-87868599D01*
X142231777Y-87886777D01*
X142213599Y-87903253D01*
X142193893Y-87917868D01*
X142172850Y-87930480D01*
X142150671Y-87940970D01*
X142127572Y-87949235D01*
X142103773Y-87955196D01*
X142079505Y-87958796D01*
X142055001Y-87960000D01*
X141154999Y-87960000D01*
X141130495Y-87958796D01*
X141106227Y-87955196D01*
X141082428Y-87949235D01*
X141059329Y-87940970D01*
X141037150Y-87930480D01*
X141016107Y-87917868D01*
X140996401Y-87903253D01*
X140978223Y-87886777D01*
X140961747Y-87868599D01*
X140947132Y-87848893D01*
X140934520Y-87827850D01*
X140924030Y-87805671D01*
X140915765Y-87782572D01*
X140909804Y-87758773D01*
X140906204Y-87734505D01*
X140905000Y-87710001D01*
X140905000Y-87059999D01*
X140906204Y-87035495D01*
X140909804Y-87011227D01*
X140915765Y-86987428D01*
X140924030Y-86964329D01*
X140934520Y-86942150D01*
X140947132Y-86921107D01*
X140961747Y-86901401D01*
X140978223Y-86883223D01*
X140996401Y-86866747D01*
X141016107Y-86852132D01*
X141037150Y-86839520D01*
X141059329Y-86829030D01*
X141082428Y-86820765D01*
X141106227Y-86814804D01*
X141130495Y-86811204D01*
X141154999Y-86810000D01*
X142055001Y-86810000D01*
X142079505Y-86811204D01*
X142079505Y-86811204D01*
G37*
D14*
X141605000Y-87385000D03*
D13*
G36*
X142079505Y-84761204D02*
G01*
X142103773Y-84764804D01*
X142127572Y-84770765D01*
X142150671Y-84779030D01*
X142172850Y-84789520D01*
X142193893Y-84802132D01*
X142213599Y-84816747D01*
X142231777Y-84833223D01*
X142248253Y-84851401D01*
X142262868Y-84871107D01*
X142275480Y-84892150D01*
X142285970Y-84914329D01*
X142294235Y-84937428D01*
X142300196Y-84961227D01*
X142303796Y-84985495D01*
X142305000Y-85009999D01*
X142305000Y-85660001D01*
X142303796Y-85684505D01*
X142300196Y-85708773D01*
X142294235Y-85732572D01*
X142285970Y-85755671D01*
X142275480Y-85777850D01*
X142262868Y-85798893D01*
X142248253Y-85818599D01*
X142231777Y-85836777D01*
X142213599Y-85853253D01*
X142193893Y-85867868D01*
X142172850Y-85880480D01*
X142150671Y-85890970D01*
X142127572Y-85899235D01*
X142103773Y-85905196D01*
X142079505Y-85908796D01*
X142055001Y-85910000D01*
X141154999Y-85910000D01*
X141130495Y-85908796D01*
X141106227Y-85905196D01*
X141082428Y-85899235D01*
X141059329Y-85890970D01*
X141037150Y-85880480D01*
X141016107Y-85867868D01*
X140996401Y-85853253D01*
X140978223Y-85836777D01*
X140961747Y-85818599D01*
X140947132Y-85798893D01*
X140934520Y-85777850D01*
X140924030Y-85755671D01*
X140915765Y-85732572D01*
X140909804Y-85708773D01*
X140906204Y-85684505D01*
X140905000Y-85660001D01*
X140905000Y-85009999D01*
X140906204Y-84985495D01*
X140909804Y-84961227D01*
X140915765Y-84937428D01*
X140924030Y-84914329D01*
X140934520Y-84892150D01*
X140947132Y-84871107D01*
X140961747Y-84851401D01*
X140978223Y-84833223D01*
X140996401Y-84816747D01*
X141016107Y-84802132D01*
X141037150Y-84789520D01*
X141059329Y-84779030D01*
X141082428Y-84770765D01*
X141106227Y-84764804D01*
X141130495Y-84761204D01*
X141154999Y-84760000D01*
X142055001Y-84760000D01*
X142079505Y-84761204D01*
X142079505Y-84761204D01*
G37*
D14*
X141605000Y-85335000D03*
D13*
G36*
X143984505Y-86811204D02*
G01*
X144008773Y-86814804D01*
X144032572Y-86820765D01*
X144055671Y-86829030D01*
X144077850Y-86839520D01*
X144098893Y-86852132D01*
X144118599Y-86866747D01*
X144136777Y-86883223D01*
X144153253Y-86901401D01*
X144167868Y-86921107D01*
X144180480Y-86942150D01*
X144190970Y-86964329D01*
X144199235Y-86987428D01*
X144205196Y-87011227D01*
X144208796Y-87035495D01*
X144210000Y-87059999D01*
X144210000Y-87710001D01*
X144208796Y-87734505D01*
X144205196Y-87758773D01*
X144199235Y-87782572D01*
X144190970Y-87805671D01*
X144180480Y-87827850D01*
X144167868Y-87848893D01*
X144153253Y-87868599D01*
X144136777Y-87886777D01*
X144118599Y-87903253D01*
X144098893Y-87917868D01*
X144077850Y-87930480D01*
X144055671Y-87940970D01*
X144032572Y-87949235D01*
X144008773Y-87955196D01*
X143984505Y-87958796D01*
X143960001Y-87960000D01*
X143059999Y-87960000D01*
X143035495Y-87958796D01*
X143011227Y-87955196D01*
X142987428Y-87949235D01*
X142964329Y-87940970D01*
X142942150Y-87930480D01*
X142921107Y-87917868D01*
X142901401Y-87903253D01*
X142883223Y-87886777D01*
X142866747Y-87868599D01*
X142852132Y-87848893D01*
X142839520Y-87827850D01*
X142829030Y-87805671D01*
X142820765Y-87782572D01*
X142814804Y-87758773D01*
X142811204Y-87734505D01*
X142810000Y-87710001D01*
X142810000Y-87059999D01*
X142811204Y-87035495D01*
X142814804Y-87011227D01*
X142820765Y-86987428D01*
X142829030Y-86964329D01*
X142839520Y-86942150D01*
X142852132Y-86921107D01*
X142866747Y-86901401D01*
X142883223Y-86883223D01*
X142901401Y-86866747D01*
X142921107Y-86852132D01*
X142942150Y-86839520D01*
X142964329Y-86829030D01*
X142987428Y-86820765D01*
X143011227Y-86814804D01*
X143035495Y-86811204D01*
X143059999Y-86810000D01*
X143960001Y-86810000D01*
X143984505Y-86811204D01*
X143984505Y-86811204D01*
G37*
D14*
X143510000Y-87385000D03*
D13*
G36*
X143984505Y-84761204D02*
G01*
X144008773Y-84764804D01*
X144032572Y-84770765D01*
X144055671Y-84779030D01*
X144077850Y-84789520D01*
X144098893Y-84802132D01*
X144118599Y-84816747D01*
X144136777Y-84833223D01*
X144153253Y-84851401D01*
X144167868Y-84871107D01*
X144180480Y-84892150D01*
X144190970Y-84914329D01*
X144199235Y-84937428D01*
X144205196Y-84961227D01*
X144208796Y-84985495D01*
X144210000Y-85009999D01*
X144210000Y-85660001D01*
X144208796Y-85684505D01*
X144205196Y-85708773D01*
X144199235Y-85732572D01*
X144190970Y-85755671D01*
X144180480Y-85777850D01*
X144167868Y-85798893D01*
X144153253Y-85818599D01*
X144136777Y-85836777D01*
X144118599Y-85853253D01*
X144098893Y-85867868D01*
X144077850Y-85880480D01*
X144055671Y-85890970D01*
X144032572Y-85899235D01*
X144008773Y-85905196D01*
X143984505Y-85908796D01*
X143960001Y-85910000D01*
X143059999Y-85910000D01*
X143035495Y-85908796D01*
X143011227Y-85905196D01*
X142987428Y-85899235D01*
X142964329Y-85890970D01*
X142942150Y-85880480D01*
X142921107Y-85867868D01*
X142901401Y-85853253D01*
X142883223Y-85836777D01*
X142866747Y-85818599D01*
X142852132Y-85798893D01*
X142839520Y-85777850D01*
X142829030Y-85755671D01*
X142820765Y-85732572D01*
X142814804Y-85708773D01*
X142811204Y-85684505D01*
X142810000Y-85660001D01*
X142810000Y-85009999D01*
X142811204Y-84985495D01*
X142814804Y-84961227D01*
X142820765Y-84937428D01*
X142829030Y-84914329D01*
X142839520Y-84892150D01*
X142852132Y-84871107D01*
X142866747Y-84851401D01*
X142883223Y-84833223D01*
X142901401Y-84816747D01*
X142921107Y-84802132D01*
X142942150Y-84789520D01*
X142964329Y-84779030D01*
X142987428Y-84770765D01*
X143011227Y-84764804D01*
X143035495Y-84761204D01*
X143059999Y-84760000D01*
X143960001Y-84760000D01*
X143984505Y-84761204D01*
X143984505Y-84761204D01*
G37*
D14*
X143510000Y-85335000D03*
M02*
