G04 #@! TF.GenerationSoftware,KiCad,Pcbnew,5.1.2*
G04 #@! TF.CreationDate,2019-05-02T19:13:18+02:00*
G04 #@! TF.ProjectId,pcb,7063622e-6b69-4636-9164-5f7063625858,rev?*
G04 #@! TF.SameCoordinates,Original*
G04 #@! TF.FileFunction,Legend,Bot*
G04 #@! TF.FilePolarity,Positive*
%FSLAX46Y46*%
G04 Gerber Fmt 4.6, Leading zero omitted, Abs format (unit mm)*
G04 Created by KiCad (PCBNEW 5.1.2) date 2019-05-02 19:13:18*
%MOMM*%
%LPD*%
G04 APERTURE LIST*
%ADD10C,0.150000*%
%ADD11C,0.120000*%
G04 APERTURE END LIST*
D10*
X146787142Y-124277380D02*
X146787142Y-123277380D01*
X146549047Y-123277380D01*
X146406190Y-123325000D01*
X146310952Y-123420238D01*
X146263333Y-123515476D01*
X146215714Y-123705952D01*
X146215714Y-123848809D01*
X146263333Y-124039285D01*
X146310952Y-124134523D01*
X146406190Y-124229761D01*
X146549047Y-124277380D01*
X146787142Y-124277380D01*
X145406190Y-124229761D02*
X145501428Y-124277380D01*
X145691904Y-124277380D01*
X145787142Y-124229761D01*
X145834761Y-124134523D01*
X145834761Y-123753571D01*
X145787142Y-123658333D01*
X145691904Y-123610714D01*
X145501428Y-123610714D01*
X145406190Y-123658333D01*
X145358571Y-123753571D01*
X145358571Y-123848809D01*
X145834761Y-123944047D01*
X144977619Y-124229761D02*
X144882380Y-124277380D01*
X144691904Y-124277380D01*
X144596666Y-124229761D01*
X144549047Y-124134523D01*
X144549047Y-124086904D01*
X144596666Y-123991666D01*
X144691904Y-123944047D01*
X144834761Y-123944047D01*
X144930000Y-123896428D01*
X144977619Y-123801190D01*
X144977619Y-123753571D01*
X144930000Y-123658333D01*
X144834761Y-123610714D01*
X144691904Y-123610714D01*
X144596666Y-123658333D01*
X144120476Y-124277380D02*
X144120476Y-123610714D01*
X144120476Y-123277380D02*
X144168095Y-123325000D01*
X144120476Y-123372619D01*
X144072857Y-123325000D01*
X144120476Y-123277380D01*
X144120476Y-123372619D01*
X143215714Y-123610714D02*
X143215714Y-124420238D01*
X143263333Y-124515476D01*
X143310952Y-124563095D01*
X143406190Y-124610714D01*
X143549047Y-124610714D01*
X143644285Y-124563095D01*
X143215714Y-124229761D02*
X143310952Y-124277380D01*
X143501428Y-124277380D01*
X143596666Y-124229761D01*
X143644285Y-124182142D01*
X143691904Y-124086904D01*
X143691904Y-123801190D01*
X143644285Y-123705952D01*
X143596666Y-123658333D01*
X143501428Y-123610714D01*
X143310952Y-123610714D01*
X143215714Y-123658333D01*
X142739523Y-123610714D02*
X142739523Y-124277380D01*
X142739523Y-123705952D02*
X142691904Y-123658333D01*
X142596666Y-123610714D01*
X142453809Y-123610714D01*
X142358571Y-123658333D01*
X142310952Y-123753571D01*
X142310952Y-124277380D01*
X141453809Y-124229761D02*
X141549047Y-124277380D01*
X141739523Y-124277380D01*
X141834761Y-124229761D01*
X141882380Y-124134523D01*
X141882380Y-123753571D01*
X141834761Y-123658333D01*
X141739523Y-123610714D01*
X141549047Y-123610714D01*
X141453809Y-123658333D01*
X141406190Y-123753571D01*
X141406190Y-123848809D01*
X141882380Y-123944047D01*
X140549047Y-124277380D02*
X140549047Y-123277380D01*
X140549047Y-124229761D02*
X140644285Y-124277380D01*
X140834761Y-124277380D01*
X140930000Y-124229761D01*
X140977619Y-124182142D01*
X141025238Y-124086904D01*
X141025238Y-123801190D01*
X140977619Y-123705952D01*
X140930000Y-123658333D01*
X140834761Y-123610714D01*
X140644285Y-123610714D01*
X140549047Y-123658333D01*
X139310952Y-124277380D02*
X139310952Y-123277380D01*
X139310952Y-123658333D02*
X139215714Y-123610714D01*
X139025238Y-123610714D01*
X138930000Y-123658333D01*
X138882380Y-123705952D01*
X138834761Y-123801190D01*
X138834761Y-124086904D01*
X138882380Y-124182142D01*
X138930000Y-124229761D01*
X139025238Y-124277380D01*
X139215714Y-124277380D01*
X139310952Y-124229761D01*
X138501428Y-123610714D02*
X138263333Y-124277380D01*
X138025238Y-123610714D02*
X138263333Y-124277380D01*
X138358571Y-124515476D01*
X138406190Y-124563095D01*
X138501428Y-124610714D01*
X136882380Y-124277380D02*
X136882380Y-123277380D01*
X136549047Y-123991666D01*
X136215714Y-123277380D01*
X136215714Y-124277380D01*
X135310952Y-124277380D02*
X135310952Y-123753571D01*
X135358571Y-123658333D01*
X135453809Y-123610714D01*
X135644285Y-123610714D01*
X135739523Y-123658333D01*
X135310952Y-124229761D02*
X135406190Y-124277380D01*
X135644285Y-124277380D01*
X135739523Y-124229761D01*
X135787142Y-124134523D01*
X135787142Y-124039285D01*
X135739523Y-123944047D01*
X135644285Y-123896428D01*
X135406190Y-123896428D01*
X135310952Y-123848809D01*
X134930000Y-124277380D02*
X134406190Y-123610714D01*
X134930000Y-123610714D02*
X134406190Y-124277380D01*
X134025238Y-124277380D02*
X134025238Y-123610714D01*
X134025238Y-123801190D02*
X133977619Y-123705952D01*
X133930000Y-123658333D01*
X133834761Y-123610714D01*
X133739523Y-123610714D01*
X132882380Y-124277380D02*
X133453809Y-124277380D01*
X133168095Y-124277380D02*
X133168095Y-123277380D01*
X133263333Y-123420238D01*
X133358571Y-123515476D01*
X133453809Y-123563095D01*
X132406190Y-124277380D02*
X132215714Y-124277380D01*
X132120476Y-124229761D01*
X132072857Y-124182142D01*
X131977619Y-124039285D01*
X131930000Y-123848809D01*
X131930000Y-123467857D01*
X131977619Y-123372619D01*
X132025238Y-123325000D01*
X132120476Y-123277380D01*
X132310952Y-123277380D01*
X132406190Y-123325000D01*
X132453809Y-123372619D01*
X132501428Y-123467857D01*
X132501428Y-123705952D01*
X132453809Y-123801190D01*
X132406190Y-123848809D01*
X132310952Y-123896428D01*
X132120476Y-123896428D01*
X132025238Y-123848809D01*
X131977619Y-123801190D01*
X131930000Y-123705952D01*
X131453809Y-124277380D02*
X131263333Y-124277380D01*
X131168095Y-124229761D01*
X131120476Y-124182142D01*
X131025238Y-124039285D01*
X130977619Y-123848809D01*
X130977619Y-123467857D01*
X131025238Y-123372619D01*
X131072857Y-123325000D01*
X131168095Y-123277380D01*
X131358571Y-123277380D01*
X131453809Y-123325000D01*
X131501428Y-123372619D01*
X131549047Y-123467857D01*
X131549047Y-123705952D01*
X131501428Y-123801190D01*
X131453809Y-123848809D01*
X131358571Y-123896428D01*
X131168095Y-123896428D01*
X131072857Y-123848809D01*
X131025238Y-123801190D01*
X130977619Y-123705952D01*
X130406190Y-123705952D02*
X130501428Y-123658333D01*
X130549047Y-123610714D01*
X130596666Y-123515476D01*
X130596666Y-123467857D01*
X130549047Y-123372619D01*
X130501428Y-123325000D01*
X130406190Y-123277380D01*
X130215714Y-123277380D01*
X130120476Y-123325000D01*
X130072857Y-123372619D01*
X130025238Y-123467857D01*
X130025238Y-123515476D01*
X130072857Y-123610714D01*
X130120476Y-123658333D01*
X130215714Y-123705952D01*
X130406190Y-123705952D01*
X130501428Y-123753571D01*
X130549047Y-123801190D01*
X130596666Y-123896428D01*
X130596666Y-124086904D01*
X130549047Y-124182142D01*
X130501428Y-124229761D01*
X130406190Y-124277380D01*
X130215714Y-124277380D01*
X130120476Y-124229761D01*
X130072857Y-124182142D01*
X130025238Y-124086904D01*
X130025238Y-123896428D01*
X130072857Y-123801190D01*
X130120476Y-123753571D01*
X130215714Y-123705952D01*
X187221428Y-124277380D02*
X187221428Y-123277380D01*
X186840476Y-123277380D01*
X186745238Y-123325000D01*
X186697619Y-123372619D01*
X186650000Y-123467857D01*
X186650000Y-123610714D01*
X186697619Y-123705952D01*
X186745238Y-123753571D01*
X186840476Y-123801190D01*
X187221428Y-123801190D01*
X185792857Y-123610714D02*
X185792857Y-124277380D01*
X186221428Y-123610714D02*
X186221428Y-124134523D01*
X186173809Y-124229761D01*
X186078571Y-124277380D01*
X185935714Y-124277380D01*
X185840476Y-124229761D01*
X185792857Y-124182142D01*
X185173809Y-124277380D02*
X185269047Y-124229761D01*
X185316666Y-124134523D01*
X185316666Y-123277380D01*
X184840476Y-124229761D02*
X184745238Y-124277380D01*
X184554761Y-124277380D01*
X184459523Y-124229761D01*
X184411904Y-124134523D01*
X184411904Y-124086904D01*
X184459523Y-123991666D01*
X184554761Y-123944047D01*
X184697619Y-123944047D01*
X184792857Y-123896428D01*
X184840476Y-123801190D01*
X184840476Y-123753571D01*
X184792857Y-123658333D01*
X184697619Y-123610714D01*
X184554761Y-123610714D01*
X184459523Y-123658333D01*
X183602380Y-124229761D02*
X183697619Y-124277380D01*
X183888095Y-124277380D01*
X183983333Y-124229761D01*
X184030952Y-124134523D01*
X184030952Y-123753571D01*
X183983333Y-123658333D01*
X183888095Y-123610714D01*
X183697619Y-123610714D01*
X183602380Y-123658333D01*
X183554761Y-123753571D01*
X183554761Y-123848809D01*
X184030952Y-123944047D01*
X181935714Y-123610714D02*
X181935714Y-124277380D01*
X182173809Y-123229761D02*
X182411904Y-123944047D01*
X181792857Y-123944047D01*
X181411904Y-124277380D02*
X181411904Y-123277380D01*
X181316666Y-123896428D02*
X181030952Y-124277380D01*
X181030952Y-123610714D02*
X181411904Y-123991666D01*
X151750000Y-102250000D02*
X151750000Y-101250000D01*
X152750000Y-102250000D02*
X151750000Y-102250000D01*
X151750000Y-88250000D02*
X152750000Y-88250000D01*
X151750000Y-89250000D02*
X151750000Y-88250000D01*
X165750000Y-88250000D02*
X165750000Y-89250000D01*
X164750000Y-88250000D02*
X165750000Y-88250000D01*
X165750000Y-102250000D02*
X164750000Y-102250000D01*
X165750000Y-101250000D02*
X165750000Y-102250000D01*
D11*
X130250000Y-90543748D02*
X130250000Y-91066252D01*
X128830000Y-90543748D02*
X128830000Y-91066252D01*
X130250000Y-98798748D02*
X130250000Y-99321252D01*
X128830000Y-98798748D02*
X128830000Y-99321252D01*
X187250000Y-98051252D02*
X187250000Y-97528748D01*
X188670000Y-98051252D02*
X188670000Y-97528748D01*
X188670000Y-91178748D02*
X188670000Y-91701252D01*
X187250000Y-91178748D02*
X187250000Y-91701252D01*
X156050000Y-105800000D02*
X161450000Y-105800000D01*
X156050000Y-110100000D02*
X156050000Y-105800000D01*
D10*
X175415000Y-112490000D02*
X175415000Y-113765000D01*
X175990000Y-102140000D02*
X175990000Y-102815000D01*
X165640000Y-102140000D02*
X165640000Y-102815000D01*
X165640000Y-112490000D02*
X165640000Y-111815000D01*
X175990000Y-112490000D02*
X175990000Y-111815000D01*
X165640000Y-112490000D02*
X166315000Y-112490000D01*
X165640000Y-102140000D02*
X166315000Y-102140000D01*
X175990000Y-102140000D02*
X175315000Y-102140000D01*
X175990000Y-112490000D02*
X175415000Y-112490000D01*
X132700000Y-121300000D02*
X132700000Y-120300000D01*
X133700000Y-121300000D02*
X132700000Y-121300000D01*
X132700000Y-107300000D02*
X133700000Y-107300000D01*
X132700000Y-108300000D02*
X132700000Y-107300000D01*
X146700000Y-107300000D02*
X146700000Y-108300000D01*
X145700000Y-107300000D02*
X146700000Y-107300000D01*
X146700000Y-121300000D02*
X145700000Y-121300000D01*
X146700000Y-120300000D02*
X146700000Y-121300000D01*
X151750000Y-121300000D02*
X151750000Y-120300000D01*
X152750000Y-121300000D02*
X151750000Y-121300000D01*
X151750000Y-107300000D02*
X152750000Y-107300000D01*
X151750000Y-108300000D02*
X151750000Y-107300000D01*
X165750000Y-107300000D02*
X165750000Y-108300000D01*
X164750000Y-107300000D02*
X165750000Y-107300000D01*
X165750000Y-121300000D02*
X164750000Y-121300000D01*
X165750000Y-120300000D02*
X165750000Y-121300000D01*
X170800000Y-121300000D02*
X170800000Y-120300000D01*
X171800000Y-121300000D02*
X170800000Y-121300000D01*
X170800000Y-107300000D02*
X171800000Y-107300000D01*
X170800000Y-108300000D02*
X170800000Y-107300000D01*
X184800000Y-107300000D02*
X184800000Y-108300000D01*
X183800000Y-107300000D02*
X184800000Y-107300000D01*
X184800000Y-121300000D02*
X183800000Y-121300000D01*
X184800000Y-120300000D02*
X184800000Y-121300000D01*
D11*
X140570000Y-108410000D02*
X140570000Y-106910000D01*
X141820000Y-104410000D02*
X146320000Y-104410000D01*
X147570000Y-106910000D02*
X147570000Y-108410000D01*
X146320000Y-110910000D02*
X141820000Y-110910000D01*
X176156252Y-97865000D02*
X175633748Y-97865000D01*
X176156252Y-96445000D02*
X175633748Y-96445000D01*
X173616252Y-123900000D02*
X173093748Y-123900000D01*
X173616252Y-122480000D02*
X173093748Y-122480000D01*
X172668000Y-115689748D02*
X172668000Y-116212252D01*
X171248000Y-115689748D02*
X171248000Y-116212252D01*
X153110000Y-91813748D02*
X153110000Y-92336252D01*
X151690000Y-91813748D02*
X151690000Y-92336252D01*
X144406252Y-113105000D02*
X143883748Y-113105000D01*
X144406252Y-111685000D02*
X143883748Y-111685000D01*
X154000000Y-91095000D02*
X155500000Y-91095000D01*
X154000000Y-91095000D02*
X154000000Y-83835000D01*
X163500000Y-91095000D02*
X163500000Y-83835000D01*
X162000000Y-91095000D02*
X163500000Y-91095000D01*
X150233748Y-85015000D02*
X150756252Y-85015000D01*
X150233748Y-86435000D02*
X150756252Y-86435000D01*
X137635000Y-101390000D02*
X137635000Y-102540000D01*
X130335000Y-101390000D02*
X137635000Y-101390000D01*
X130335000Y-106890000D02*
X137635000Y-106890000D01*
X180500000Y-106255000D02*
X180500000Y-105105000D01*
X187800000Y-106255000D02*
X180500000Y-106255000D01*
X187800000Y-100755000D02*
X180500000Y-100755000D01*
X131818748Y-107240000D02*
X132341252Y-107240000D01*
X131818748Y-108660000D02*
X132341252Y-108660000D01*
X184411252Y-108025000D02*
X183888748Y-108025000D01*
X184411252Y-106605000D02*
X183888748Y-106605000D01*
X170636000Y-115689748D02*
X170636000Y-116212252D01*
X169216000Y-115689748D02*
X169216000Y-116212252D01*
X154230000Y-110116252D02*
X154230000Y-109593748D01*
X155650000Y-110116252D02*
X155650000Y-109593748D01*
X154230000Y-106306252D02*
X154230000Y-105783748D01*
X155650000Y-106306252D02*
X155650000Y-105783748D01*
X136600000Y-86098748D02*
X136600000Y-86621252D01*
X135180000Y-86098748D02*
X135180000Y-86621252D01*
X138505000Y-86098748D02*
X138505000Y-86621252D01*
X137085000Y-86098748D02*
X137085000Y-86621252D01*
X140410000Y-86098748D02*
X140410000Y-86621252D01*
X138990000Y-86098748D02*
X138990000Y-86621252D01*
X142315000Y-86098748D02*
X142315000Y-86621252D01*
X140895000Y-86098748D02*
X140895000Y-86621252D01*
X144220000Y-86098748D02*
X144220000Y-86621252D01*
X142800000Y-86098748D02*
X142800000Y-86621252D01*
D10*
X130563857Y-88844380D02*
X130897190Y-88368190D01*
X131135285Y-88844380D02*
X131135285Y-87844380D01*
X130754333Y-87844380D01*
X130659095Y-87892000D01*
X130611476Y-87939619D01*
X130563857Y-88034857D01*
X130563857Y-88177714D01*
X130611476Y-88272952D01*
X130659095Y-88320571D01*
X130754333Y-88368190D01*
X131135285Y-88368190D01*
X129611476Y-88844380D02*
X130182904Y-88844380D01*
X129897190Y-88844380D02*
X129897190Y-87844380D01*
X129992428Y-87987238D01*
X130087666Y-88082476D01*
X130182904Y-88130095D01*
X128992428Y-87844380D02*
X128897190Y-87844380D01*
X128801952Y-87892000D01*
X128754333Y-87939619D01*
X128706714Y-88034857D01*
X128659095Y-88225333D01*
X128659095Y-88463428D01*
X128706714Y-88653904D01*
X128754333Y-88749142D01*
X128801952Y-88796761D01*
X128897190Y-88844380D01*
X128992428Y-88844380D01*
X129087666Y-88796761D01*
X129135285Y-88749142D01*
X129182904Y-88653904D01*
X129230523Y-88463428D01*
X129230523Y-88225333D01*
X129182904Y-88034857D01*
X129135285Y-87939619D01*
X129087666Y-87892000D01*
X128992428Y-87844380D01*
X129706666Y-97099380D02*
X130040000Y-96623190D01*
X130278095Y-97099380D02*
X130278095Y-96099380D01*
X129897142Y-96099380D01*
X129801904Y-96147000D01*
X129754285Y-96194619D01*
X129706666Y-96289857D01*
X129706666Y-96432714D01*
X129754285Y-96527952D01*
X129801904Y-96575571D01*
X129897142Y-96623190D01*
X130278095Y-96623190D01*
X129230476Y-97099380D02*
X129040000Y-97099380D01*
X128944761Y-97051761D01*
X128897142Y-97004142D01*
X128801904Y-96861285D01*
X128754285Y-96670809D01*
X128754285Y-96289857D01*
X128801904Y-96194619D01*
X128849523Y-96147000D01*
X128944761Y-96099380D01*
X129135238Y-96099380D01*
X129230476Y-96147000D01*
X129278095Y-96194619D01*
X129325714Y-96289857D01*
X129325714Y-96527952D01*
X129278095Y-96623190D01*
X129230476Y-96670809D01*
X129135238Y-96718428D01*
X128944761Y-96718428D01*
X128849523Y-96670809D01*
X128801904Y-96623190D01*
X128754285Y-96527952D01*
X188126666Y-95829380D02*
X188460000Y-95353190D01*
X188698095Y-95829380D02*
X188698095Y-94829380D01*
X188317142Y-94829380D01*
X188221904Y-94877000D01*
X188174285Y-94924619D01*
X188126666Y-95019857D01*
X188126666Y-95162714D01*
X188174285Y-95257952D01*
X188221904Y-95305571D01*
X188317142Y-95353190D01*
X188698095Y-95353190D01*
X187555238Y-95257952D02*
X187650476Y-95210333D01*
X187698095Y-95162714D01*
X187745714Y-95067476D01*
X187745714Y-95019857D01*
X187698095Y-94924619D01*
X187650476Y-94877000D01*
X187555238Y-94829380D01*
X187364761Y-94829380D01*
X187269523Y-94877000D01*
X187221904Y-94924619D01*
X187174285Y-95019857D01*
X187174285Y-95067476D01*
X187221904Y-95162714D01*
X187269523Y-95210333D01*
X187364761Y-95257952D01*
X187555238Y-95257952D01*
X187650476Y-95305571D01*
X187698095Y-95353190D01*
X187745714Y-95448428D01*
X187745714Y-95638904D01*
X187698095Y-95734142D01*
X187650476Y-95781761D01*
X187555238Y-95829380D01*
X187364761Y-95829380D01*
X187269523Y-95781761D01*
X187221904Y-95734142D01*
X187174285Y-95638904D01*
X187174285Y-95448428D01*
X187221904Y-95353190D01*
X187269523Y-95305571D01*
X187364761Y-95257952D01*
X188126666Y-89352380D02*
X188460000Y-88876190D01*
X188698095Y-89352380D02*
X188698095Y-88352380D01*
X188317142Y-88352380D01*
X188221904Y-88400000D01*
X188174285Y-88447619D01*
X188126666Y-88542857D01*
X188126666Y-88685714D01*
X188174285Y-88780952D01*
X188221904Y-88828571D01*
X188317142Y-88876190D01*
X188698095Y-88876190D01*
X187793333Y-88352380D02*
X187126666Y-88352380D01*
X187555238Y-89352380D01*
X159226190Y-110720190D02*
X159226190Y-111196380D01*
X159559523Y-110196380D02*
X159226190Y-110720190D01*
X158892857Y-110196380D01*
X158035714Y-111196380D02*
X158607142Y-111196380D01*
X158321428Y-111196380D02*
X158321428Y-110196380D01*
X158416666Y-110339238D01*
X158511904Y-110434476D01*
X158607142Y-110482095D01*
X171576904Y-106005380D02*
X171576904Y-106814904D01*
X171529285Y-106910142D01*
X171481666Y-106957761D01*
X171386428Y-107005380D01*
X171195952Y-107005380D01*
X171100714Y-106957761D01*
X171053095Y-106910142D01*
X171005476Y-106814904D01*
X171005476Y-106005380D01*
X170005476Y-107005380D02*
X170576904Y-107005380D01*
X170291190Y-107005380D02*
X170291190Y-106005380D01*
X170386428Y-106148238D01*
X170481666Y-106243476D01*
X170576904Y-106291095D01*
X145308095Y-103862380D02*
X145641428Y-103386190D01*
X145879523Y-103862380D02*
X145879523Y-102862380D01*
X145498571Y-102862380D01*
X145403333Y-102910000D01*
X145355714Y-102957619D01*
X145308095Y-103052857D01*
X145308095Y-103195714D01*
X145355714Y-103290952D01*
X145403333Y-103338571D01*
X145498571Y-103386190D01*
X145879523Y-103386190D01*
X144498571Y-103814761D02*
X144593809Y-103862380D01*
X144784285Y-103862380D01*
X144879523Y-103814761D01*
X144927142Y-103719523D01*
X144927142Y-103338571D01*
X144879523Y-103243333D01*
X144784285Y-103195714D01*
X144593809Y-103195714D01*
X144498571Y-103243333D01*
X144450952Y-103338571D01*
X144450952Y-103433809D01*
X144927142Y-103529047D01*
X144070000Y-103814761D02*
X143974761Y-103862380D01*
X143784285Y-103862380D01*
X143689047Y-103814761D01*
X143641428Y-103719523D01*
X143641428Y-103671904D01*
X143689047Y-103576666D01*
X143784285Y-103529047D01*
X143927142Y-103529047D01*
X144022380Y-103481428D01*
X144070000Y-103386190D01*
X144070000Y-103338571D01*
X144022380Y-103243333D01*
X143927142Y-103195714D01*
X143784285Y-103195714D01*
X143689047Y-103243333D01*
X142831904Y-103814761D02*
X142927142Y-103862380D01*
X143117619Y-103862380D01*
X143212857Y-103814761D01*
X143260476Y-103719523D01*
X143260476Y-103338571D01*
X143212857Y-103243333D01*
X143117619Y-103195714D01*
X142927142Y-103195714D01*
X142831904Y-103243333D01*
X142784285Y-103338571D01*
X142784285Y-103433809D01*
X143260476Y-103529047D01*
X142498571Y-103195714D02*
X142117619Y-103195714D01*
X142355714Y-102862380D02*
X142355714Y-103719523D01*
X142308095Y-103814761D01*
X142212857Y-103862380D01*
X142117619Y-103862380D01*
X176061666Y-95957380D02*
X176395000Y-95481190D01*
X176633095Y-95957380D02*
X176633095Y-94957380D01*
X176252142Y-94957380D01*
X176156904Y-95005000D01*
X176109285Y-95052619D01*
X176061666Y-95147857D01*
X176061666Y-95290714D01*
X176109285Y-95385952D01*
X176156904Y-95433571D01*
X176252142Y-95481190D01*
X176633095Y-95481190D01*
X175204523Y-94957380D02*
X175395000Y-94957380D01*
X175490238Y-95005000D01*
X175537857Y-95052619D01*
X175633095Y-95195476D01*
X175680714Y-95385952D01*
X175680714Y-95766904D01*
X175633095Y-95862142D01*
X175585476Y-95909761D01*
X175490238Y-95957380D01*
X175299761Y-95957380D01*
X175204523Y-95909761D01*
X175156904Y-95862142D01*
X175109285Y-95766904D01*
X175109285Y-95528809D01*
X175156904Y-95433571D01*
X175204523Y-95385952D01*
X175299761Y-95338333D01*
X175490238Y-95338333D01*
X175585476Y-95385952D01*
X175633095Y-95433571D01*
X175680714Y-95528809D01*
X176442666Y-123642380D02*
X176776000Y-123166190D01*
X177014095Y-123642380D02*
X177014095Y-122642380D01*
X176633142Y-122642380D01*
X176537904Y-122690000D01*
X176490285Y-122737619D01*
X176442666Y-122832857D01*
X176442666Y-122975714D01*
X176490285Y-123070952D01*
X176537904Y-123118571D01*
X176633142Y-123166190D01*
X177014095Y-123166190D01*
X175537904Y-122642380D02*
X176014095Y-122642380D01*
X176061714Y-123118571D01*
X176014095Y-123070952D01*
X175918857Y-123023333D01*
X175680761Y-123023333D01*
X175585523Y-123070952D01*
X175537904Y-123118571D01*
X175490285Y-123213809D01*
X175490285Y-123451904D01*
X175537904Y-123547142D01*
X175585523Y-123594761D01*
X175680761Y-123642380D01*
X175918857Y-123642380D01*
X176014095Y-123594761D01*
X176061714Y-123547142D01*
X174029666Y-116403380D02*
X174363000Y-115927190D01*
X174601095Y-116403380D02*
X174601095Y-115403380D01*
X174220142Y-115403380D01*
X174124904Y-115451000D01*
X174077285Y-115498619D01*
X174029666Y-115593857D01*
X174029666Y-115736714D01*
X174077285Y-115831952D01*
X174124904Y-115879571D01*
X174220142Y-115927190D01*
X174601095Y-115927190D01*
X173172523Y-115736714D02*
X173172523Y-116403380D01*
X173410619Y-115355761D02*
X173648714Y-116070047D01*
X173029666Y-116070047D01*
X151202380Y-91908333D02*
X150726190Y-91575000D01*
X151202380Y-91336904D02*
X150202380Y-91336904D01*
X150202380Y-91717857D01*
X150250000Y-91813095D01*
X150297619Y-91860714D01*
X150392857Y-91908333D01*
X150535714Y-91908333D01*
X150630952Y-91860714D01*
X150678571Y-91813095D01*
X150726190Y-91717857D01*
X150726190Y-91336904D01*
X150297619Y-92289285D02*
X150250000Y-92336904D01*
X150202380Y-92432142D01*
X150202380Y-92670238D01*
X150250000Y-92765476D01*
X150297619Y-92813095D01*
X150392857Y-92860714D01*
X150488095Y-92860714D01*
X150630952Y-92813095D01*
X151202380Y-92241666D01*
X151202380Y-92860714D01*
X144311666Y-114752380D02*
X144645000Y-114276190D01*
X144883095Y-114752380D02*
X144883095Y-113752380D01*
X144502142Y-113752380D01*
X144406904Y-113800000D01*
X144359285Y-113847619D01*
X144311666Y-113942857D01*
X144311666Y-114085714D01*
X144359285Y-114180952D01*
X144406904Y-114228571D01*
X144502142Y-114276190D01*
X144883095Y-114276190D01*
X143359285Y-114752380D02*
X143930714Y-114752380D01*
X143645000Y-114752380D02*
X143645000Y-113752380D01*
X143740238Y-113895238D01*
X143835476Y-113990476D01*
X143930714Y-114038095D01*
X159083333Y-85177380D02*
X159083333Y-85891666D01*
X159130952Y-86034523D01*
X159226190Y-86129761D01*
X159369047Y-86177380D01*
X159464285Y-86177380D01*
X158083333Y-86177380D02*
X158654761Y-86177380D01*
X158369047Y-86177380D02*
X158369047Y-85177380D01*
X158464285Y-85320238D01*
X158559523Y-85415476D01*
X158654761Y-85463095D01*
X150828333Y-87303571D02*
X151161666Y-87303571D01*
X151161666Y-87827380D02*
X151161666Y-86827380D01*
X150685476Y-86827380D01*
X149780714Y-87827380D02*
X150352142Y-87827380D01*
X150066428Y-87827380D02*
X150066428Y-86827380D01*
X150161666Y-86970238D01*
X150256904Y-87065476D01*
X150352142Y-87113095D01*
X134723095Y-104592380D02*
X134723095Y-103592380D01*
X134485000Y-103592380D01*
X134342142Y-103640000D01*
X134246904Y-103735238D01*
X134199285Y-103830476D01*
X134151666Y-104020952D01*
X134151666Y-104163809D01*
X134199285Y-104354285D01*
X134246904Y-104449523D01*
X134342142Y-104544761D01*
X134485000Y-104592380D01*
X134723095Y-104592380D01*
X133580238Y-104020952D02*
X133675476Y-103973333D01*
X133723095Y-103925714D01*
X133770714Y-103830476D01*
X133770714Y-103782857D01*
X133723095Y-103687619D01*
X133675476Y-103640000D01*
X133580238Y-103592380D01*
X133389761Y-103592380D01*
X133294523Y-103640000D01*
X133246904Y-103687619D01*
X133199285Y-103782857D01*
X133199285Y-103830476D01*
X133246904Y-103925714D01*
X133294523Y-103973333D01*
X133389761Y-104020952D01*
X133580238Y-104020952D01*
X133675476Y-104068571D01*
X133723095Y-104116190D01*
X133770714Y-104211428D01*
X133770714Y-104401904D01*
X133723095Y-104497142D01*
X133675476Y-104544761D01*
X133580238Y-104592380D01*
X133389761Y-104592380D01*
X133294523Y-104544761D01*
X133246904Y-104497142D01*
X133199285Y-104401904D01*
X133199285Y-104211428D01*
X133246904Y-104116190D01*
X133294523Y-104068571D01*
X133389761Y-104020952D01*
X184888095Y-103957380D02*
X184888095Y-102957380D01*
X184650000Y-102957380D01*
X184507142Y-103005000D01*
X184411904Y-103100238D01*
X184364285Y-103195476D01*
X184316666Y-103385952D01*
X184316666Y-103528809D01*
X184364285Y-103719285D01*
X184411904Y-103814523D01*
X184507142Y-103909761D01*
X184650000Y-103957380D01*
X184888095Y-103957380D01*
X183983333Y-102957380D02*
X183316666Y-102957380D01*
X183745238Y-103957380D01*
X132722857Y-109957142D02*
X132770476Y-110004761D01*
X132913333Y-110052380D01*
X133008571Y-110052380D01*
X133151428Y-110004761D01*
X133246666Y-109909523D01*
X133294285Y-109814285D01*
X133341904Y-109623809D01*
X133341904Y-109480952D01*
X133294285Y-109290476D01*
X133246666Y-109195238D01*
X133151428Y-109100000D01*
X133008571Y-109052380D01*
X132913333Y-109052380D01*
X132770476Y-109100000D01*
X132722857Y-109147619D01*
X131770476Y-110052380D02*
X132341904Y-110052380D01*
X132056190Y-110052380D02*
X132056190Y-109052380D01*
X132151428Y-109195238D01*
X132246666Y-109290476D01*
X132341904Y-109338095D01*
X131151428Y-109052380D02*
X131056190Y-109052380D01*
X130960952Y-109100000D01*
X130913333Y-109147619D01*
X130865714Y-109242857D01*
X130818095Y-109433333D01*
X130818095Y-109671428D01*
X130865714Y-109861904D01*
X130913333Y-109957142D01*
X130960952Y-110004761D01*
X131056190Y-110052380D01*
X131151428Y-110052380D01*
X131246666Y-110004761D01*
X131294285Y-109957142D01*
X131341904Y-109861904D01*
X131389523Y-109671428D01*
X131389523Y-109433333D01*
X131341904Y-109242857D01*
X131294285Y-109147619D01*
X131246666Y-109100000D01*
X131151428Y-109052380D01*
X186983666Y-107672142D02*
X187031285Y-107719761D01*
X187174142Y-107767380D01*
X187269380Y-107767380D01*
X187412238Y-107719761D01*
X187507476Y-107624523D01*
X187555095Y-107529285D01*
X187602714Y-107338809D01*
X187602714Y-107195952D01*
X187555095Y-107005476D01*
X187507476Y-106910238D01*
X187412238Y-106815000D01*
X187269380Y-106767380D01*
X187174142Y-106767380D01*
X187031285Y-106815000D01*
X186983666Y-106862619D01*
X186507476Y-107767380D02*
X186317000Y-107767380D01*
X186221761Y-107719761D01*
X186174142Y-107672142D01*
X186078904Y-107529285D01*
X186031285Y-107338809D01*
X186031285Y-106957857D01*
X186078904Y-106862619D01*
X186126523Y-106815000D01*
X186221761Y-106767380D01*
X186412238Y-106767380D01*
X186507476Y-106815000D01*
X186555095Y-106862619D01*
X186602714Y-106957857D01*
X186602714Y-107195952D01*
X186555095Y-107291190D01*
X186507476Y-107338809D01*
X186412238Y-107386428D01*
X186221761Y-107386428D01*
X186126523Y-107338809D01*
X186078904Y-107291190D01*
X186031285Y-107195952D01*
X168314666Y-115165142D02*
X168362285Y-115212761D01*
X168505142Y-115260380D01*
X168600380Y-115260380D01*
X168743238Y-115212761D01*
X168838476Y-115117523D01*
X168886095Y-115022285D01*
X168933714Y-114831809D01*
X168933714Y-114688952D01*
X168886095Y-114498476D01*
X168838476Y-114403238D01*
X168743238Y-114308000D01*
X168600380Y-114260380D01*
X168505142Y-114260380D01*
X168362285Y-114308000D01*
X168314666Y-114355619D01*
X167743238Y-114688952D02*
X167838476Y-114641333D01*
X167886095Y-114593714D01*
X167933714Y-114498476D01*
X167933714Y-114450857D01*
X167886095Y-114355619D01*
X167838476Y-114308000D01*
X167743238Y-114260380D01*
X167552761Y-114260380D01*
X167457523Y-114308000D01*
X167409904Y-114355619D01*
X167362285Y-114450857D01*
X167362285Y-114498476D01*
X167409904Y-114593714D01*
X167457523Y-114641333D01*
X167552761Y-114688952D01*
X167743238Y-114688952D01*
X167838476Y-114736571D01*
X167886095Y-114784190D01*
X167933714Y-114879428D01*
X167933714Y-115069904D01*
X167886095Y-115165142D01*
X167838476Y-115212761D01*
X167743238Y-115260380D01*
X167552761Y-115260380D01*
X167457523Y-115212761D01*
X167409904Y-115165142D01*
X167362285Y-115069904D01*
X167362285Y-114879428D01*
X167409904Y-114784190D01*
X167457523Y-114736571D01*
X167552761Y-114688952D01*
X153201666Y-110212142D02*
X153249285Y-110259761D01*
X153392142Y-110307380D01*
X153487380Y-110307380D01*
X153630238Y-110259761D01*
X153725476Y-110164523D01*
X153773095Y-110069285D01*
X153820714Y-109878809D01*
X153820714Y-109735952D01*
X153773095Y-109545476D01*
X153725476Y-109450238D01*
X153630238Y-109355000D01*
X153487380Y-109307380D01*
X153392142Y-109307380D01*
X153249285Y-109355000D01*
X153201666Y-109402619D01*
X152868333Y-109307380D02*
X152201666Y-109307380D01*
X152630238Y-110307380D01*
X153328666Y-106402142D02*
X153376285Y-106449761D01*
X153519142Y-106497380D01*
X153614380Y-106497380D01*
X153757238Y-106449761D01*
X153852476Y-106354523D01*
X153900095Y-106259285D01*
X153947714Y-106068809D01*
X153947714Y-105925952D01*
X153900095Y-105735476D01*
X153852476Y-105640238D01*
X153757238Y-105545000D01*
X153614380Y-105497380D01*
X153519142Y-105497380D01*
X153376285Y-105545000D01*
X153328666Y-105592619D01*
X152471523Y-105497380D02*
X152662000Y-105497380D01*
X152757238Y-105545000D01*
X152804857Y-105592619D01*
X152900095Y-105735476D01*
X152947714Y-105925952D01*
X152947714Y-106306904D01*
X152900095Y-106402142D01*
X152852476Y-106449761D01*
X152757238Y-106497380D01*
X152566761Y-106497380D01*
X152471523Y-106449761D01*
X152423904Y-106402142D01*
X152376285Y-106306904D01*
X152376285Y-106068809D01*
X152423904Y-105973571D01*
X152471523Y-105925952D01*
X152566761Y-105878333D01*
X152757238Y-105878333D01*
X152852476Y-105925952D01*
X152900095Y-105973571D01*
X152947714Y-106068809D01*
X136056666Y-89130142D02*
X136104285Y-89177761D01*
X136247142Y-89225380D01*
X136342380Y-89225380D01*
X136485238Y-89177761D01*
X136580476Y-89082523D01*
X136628095Y-88987285D01*
X136675714Y-88796809D01*
X136675714Y-88653952D01*
X136628095Y-88463476D01*
X136580476Y-88368238D01*
X136485238Y-88273000D01*
X136342380Y-88225380D01*
X136247142Y-88225380D01*
X136104285Y-88273000D01*
X136056666Y-88320619D01*
X135151904Y-88225380D02*
X135628095Y-88225380D01*
X135675714Y-88701571D01*
X135628095Y-88653952D01*
X135532857Y-88606333D01*
X135294761Y-88606333D01*
X135199523Y-88653952D01*
X135151904Y-88701571D01*
X135104285Y-88796809D01*
X135104285Y-89034904D01*
X135151904Y-89130142D01*
X135199523Y-89177761D01*
X135294761Y-89225380D01*
X135532857Y-89225380D01*
X135628095Y-89177761D01*
X135675714Y-89130142D01*
D11*
X137903333Y-86592142D02*
X137934285Y-86623095D01*
X138027142Y-86654047D01*
X138089047Y-86654047D01*
X138181904Y-86623095D01*
X138243809Y-86561190D01*
X138274761Y-86499285D01*
X138305714Y-86375476D01*
X138305714Y-86282619D01*
X138274761Y-86158809D01*
X138243809Y-86096904D01*
X138181904Y-86035000D01*
X138089047Y-86004047D01*
X138027142Y-86004047D01*
X137934285Y-86035000D01*
X137903333Y-86065952D01*
X137346190Y-86220714D02*
X137346190Y-86654047D01*
X137500952Y-85973095D02*
X137655714Y-86437380D01*
X137253333Y-86437380D01*
X139808333Y-86592142D02*
X139839285Y-86623095D01*
X139932142Y-86654047D01*
X139994047Y-86654047D01*
X140086904Y-86623095D01*
X140148809Y-86561190D01*
X140179761Y-86499285D01*
X140210714Y-86375476D01*
X140210714Y-86282619D01*
X140179761Y-86158809D01*
X140148809Y-86096904D01*
X140086904Y-86035000D01*
X139994047Y-86004047D01*
X139932142Y-86004047D01*
X139839285Y-86035000D01*
X139808333Y-86065952D01*
X139591666Y-86004047D02*
X139189285Y-86004047D01*
X139405952Y-86251666D01*
X139313095Y-86251666D01*
X139251190Y-86282619D01*
X139220238Y-86313571D01*
X139189285Y-86375476D01*
X139189285Y-86530238D01*
X139220238Y-86592142D01*
X139251190Y-86623095D01*
X139313095Y-86654047D01*
X139498809Y-86654047D01*
X139560714Y-86623095D01*
X139591666Y-86592142D01*
X141713333Y-86592142D02*
X141744285Y-86623095D01*
X141837142Y-86654047D01*
X141899047Y-86654047D01*
X141991904Y-86623095D01*
X142053809Y-86561190D01*
X142084761Y-86499285D01*
X142115714Y-86375476D01*
X142115714Y-86282619D01*
X142084761Y-86158809D01*
X142053809Y-86096904D01*
X141991904Y-86035000D01*
X141899047Y-86004047D01*
X141837142Y-86004047D01*
X141744285Y-86035000D01*
X141713333Y-86065952D01*
X141465714Y-86065952D02*
X141434761Y-86035000D01*
X141372857Y-86004047D01*
X141218095Y-86004047D01*
X141156190Y-86035000D01*
X141125238Y-86065952D01*
X141094285Y-86127857D01*
X141094285Y-86189761D01*
X141125238Y-86282619D01*
X141496666Y-86654047D01*
X141094285Y-86654047D01*
D10*
X143676666Y-89130142D02*
X143724285Y-89177761D01*
X143867142Y-89225380D01*
X143962380Y-89225380D01*
X144105238Y-89177761D01*
X144200476Y-89082523D01*
X144248095Y-88987285D01*
X144295714Y-88796809D01*
X144295714Y-88653952D01*
X144248095Y-88463476D01*
X144200476Y-88368238D01*
X144105238Y-88273000D01*
X143962380Y-88225380D01*
X143867142Y-88225380D01*
X143724285Y-88273000D01*
X143676666Y-88320619D01*
X142724285Y-89225380D02*
X143295714Y-89225380D01*
X143010000Y-89225380D02*
X143010000Y-88225380D01*
X143105238Y-88368238D01*
X143200476Y-88463476D01*
X143295714Y-88511095D01*
M02*
